<?xml version="1.0" standalone="no"?><!DOCTYPE svg PUBLIC "-//W3C//DTD SVG 1.1//EN" "http://www.w3.org/Graphics/SVG/1.1/DTD/svg11.dtd" ><svg xmlns="http://www.w3.org/2000/svg"><metadata></metadata><defs><font id="2.000;ADBO;SourceHanSansCN-Regular;ADOBE" horiz-adv-x="2048"><font-face font-family="Source Han Sans CN" font-weight="400" font-stretch="normal" units-per-em="2048" panose-1="2 11 5 0 0 0 0 0 0 0" ascent="2376" descent="-590" x-height="0" bbox="6 -512 2005 1802" underline-thickness="102" underline-position="-307" unicode-range="U+0020-ff0c" /><missing-glyph horiz-adv-x="2048" d="M205 -246 l0 2048 l1638 0 l0 -2048 l-1638 0 ZM1024 862 l651 838 l-1302 0 l651 -838 ZM1090 778 l651 -837 l0 1675 l-651 -838 ZM373 -143 l1302 0 l-651 837 l-651 -837 ZM307 1616 l0 -1675 l651 837 l-651 838 Z" /><glyph glyph-name="" unicode="  " d="" /><glyph glyph-name="" unicode="%" d="M420 582 q-154 0 -247 124.5 q-93 124.5 -93 352.5 q0 226 93 348.5 q93 122.5 247 122.5 q155 0 248.5 -122.5 q93.5 -122.5 93.5 -348.5 q0 -228 -93.5 -352.5 q-93.5 -124.5 -248.5 -124.5 ZM420 698 q89 0 145 90.5 q56 90.5 56 270.5 q0 180 -56 268 q-56 88 -145 88 q-88 0 -143.5 -88 q-55.5 -88 -55.5 -268 q0 -180 55.5 -270.5 q55.5 -90.5 143.5 -90.5 ZM465 -27 l827 1557 l127 0 l-829 -1557 l-125 0 ZM1466 -27 q-153 0 -247.5 124 q-94.5 124 -94.5 352 q0 225 94.5 348 q94.5 123 247.5 123 q154 0 247 -123 q93 -123 93 -348 q0 -228 -93 -352 q-93 -124 -247 -124 ZM1466 88 q88 0 143.5 90.5 q55.5 90.5 55.5 270.5 q0 179 -55.5 267.5 q-55.5 88.5 -143.5 88.5 q-89 0 -143.5 -88.5 q-54.5 -88.5 -54.5 -267.5 q0 -180 54.5 -270.5 q54.5 -90.5 143.5 -90.5 Z" /><glyph glyph-name="" unicode="&#39;" d="M225 989 l-37 379 l-4 211 l197 0 l-4 -211 l-37 -379 l-115 0 Z" /><glyph glyph-name="" unicode="(" d="M489 -403 q-141 230 -221 483.5 q-80 253.5 -80 556.5 q0 301 80 555 q80 254 221 483 l117 -53 q-133 -220 -197.5 -472 q-64.5 -252 -64.5 -513 q0 -261 64.5 -514 q64.5 -253 197.5 -471 l-117 -55 Z" /><glyph glyph-name="" unicode=")" d="M203 -403 l-115 55 q132 218 197 471 q65 253 65 514 q0 261 -65 513 q-65 252 -197 472 l115 53 q143 -229 223 -483 q80 -254 80 -555 q0 -303 -80 -556.5 q-80 -253.5 -223 -483.5 Z" /><glyph glyph-name="" unicode="," d="M154 -389 l-45 110 q96 43 150 115.5 q54 72.5 54 163.5 q-8 -2 -22 -2 q-54 0 -95.5 33.5 q-41.5 33.5 -41.5 97.5 q0 60 42 95.5 q42 35.5 99 35.5 q74 0 116 -59 q42 -59 42 -162 q0 -148 -80.5 -259 q-80.5 -111 -218.5 -169 Z" /><glyph glyph-name="" unicode="-­&#x2011;" d="M94 502 l0 143 l524 0 l0 -143 l-524 0 Z" /><glyph glyph-name="" unicode="." d="M285 -27 q-56 0 -95.5 39.5 q-39.5 39.5 -39.5 102.5 q0 64 39.5 104.5 q39.5 40.5 95.5 40.5 q55 0 95 -40.5 q40 -40.5 40 -104.5 q0 -63 -40 -102.5 q-40 -39.5 -95 -39.5 Z" /><glyph glyph-name="" unicode="/" d="M23 -367 l614 1993 l135 0 l-612 -1993 l-137 0 Z" /><glyph glyph-name="" unicode="0" d="M569 -27 q-215 0 -342 195.5 q-127 195.5 -127 587.5 q0 391 127 582.5 q127 191.5 342 191.5 q214 0 340.5 -192 q126.5 -192 126.5 -582 q0 -392 -126.5 -587.5 q-126.5 -195.5 -340.5 -195.5 ZM569 123 q128 0 206.5 150.5 q78.5 150.5 78.5 482.5 q0 328 -78.5 476 q-78.5 148 -206.5 148 q-129 0 -207.5 -148 q-78.5 -148 -78.5 -476 q0 -332 78.5 -482.5 q78.5 -150.5 207.5 -150.5 Z" /><glyph glyph-name="" unicode="3" d="M541 -27 q-177 0 -292.5 62.5 q-115.5 62.5 -189.5 142.5 l95 123 q66 -69 155.5 -120.5 q89.5 -51.5 216.5 -51.5 q134 0 219.5 75 q85.5 75 85.5 206 q0 89 -44.5 156 q-44.5 67 -146.5 105 q-102 38 -275 38 l0 143 q154 0 245 38 q91 38 130.5 103 q39.5 65 39.5 146 q0 107 -68.5 172 q-68.5 65 -185.5 65 q-90 0 -169 -40.5 q-79 -40.5 -142 -104.5 l-100 119 q84 78 186.5 129 q102.5 51 233.5 51 q125 0 224 -45 q99 -45 155.5 -129 q56.5 -84 56.5 -203 q0 -137 -74 -227.5 q-74 -90.5 -192 -134.5 l0 -9 q132 -30 224.5 -128.5 q92.5 -98.5 92.5 -252.5 q0 -134 -65 -229.5 q-65 -95.5 -174 -147 q-109 -51.5 -242 -51.5 Z" /><glyph glyph-name="" unicode="a" d="M465 840 l-74 -230 l455 0 l-72 230 q-41 127 -78 252 q-37 125 -73 256 l-9 0 q-35 -133 -72 -257 q-37 -124 -77 -251 ZM6 0 l510 1503 l211 0 l510 -1503 l-201 0 l-143 459 l-549 0 l-145 -459 l-193 0 Z" /><glyph glyph-name="" unicode="f" d="M205 0 l0 1503 l866 0 l0 -162 l-676 0 l0 -507 l574 0 l0 -160 l-574 0 l0 -674 l-190 0 Z" /><glyph glyph-name="" unicode="g" d="M795 -27 q-197 0 -349.5 92.5 q-152.5 92.5 -239.5 266.5 q-87 174 -87 418 q0 242 89 417 q89 175 244.5 269 q155.5 94 354.5 94 q157 0 262.5 -58.5 q105.5 -58.5 169.5 -128.5 l-102 -122 q-57 60 -134 101.5 q-77 41.5 -192 41.5 q-151 0 -262.5 -74 q-111.5 -74 -173.5 -210.5 q-62 -136.5 -62 -323.5 q0 -284 129.5 -450.5 q129.5 -166.5 372.5 -166.5 q80 0 153 23.5 q73 23.5 117 64.5 l0 394 l-317 0 l0 157 l492 0 l0 -631 q-73 -75 -193 -124.5 q-120 -49.5 -272 -49.5 Z" /><glyph glyph-name="" unicode="l" d="M205 0 l0 1503 l190 0 l0 -1341 l656 0 l0 -162 l-846 0 Z" /><glyph glyph-name="" unicode="m" d="M205 0 l0 1503 l229 0 l289 -805 q26 -78 52.5 -156.5 q26.5 -78.5 53.5 -156.5 l11 0 q26 78 51 156.5 q25 78.5 51 156.5 l287 805 l229 0 l0 -1503 l-178 0 l0 831 q0 97 8.5 221 q8.5 124 16.5 222 l-9 0 l-118 -342 l-285 -780 l-127 0 l-285 780 l-119 342 l-8 0 q6 -98 14.5 -222 q8.5 -124 8.5 -221 l0 -831 l-172 0 Z" /><glyph glyph-name="" unicode="n" d="M205 0 l0 1503 l196 0 l547 -948 l160 -309 l10 0 q-7 113 -15.5 235.5 q-8.5 122.5 -8.5 239.5 l0 782 l180 0 l0 -1503 l-195 0 l-547 948 l-161 309 l-9 0 q7 -113 15 -231.5 q8 -118.5 8 -237.5 l0 -788 l-180 0 Z" /><glyph glyph-name="" unicode="o" d="M760 -27 q-189 0 -333.5 95.5 q-144.5 95.5 -226 271 q-81.5 175.5 -81.5 416.5 q0 240 81.5 413.5 q81.5 173.5 226 267 q144.5 93.5 333.5 93.5 q188 0 332.5 -93.5 q144.5 -93.5 226.5 -267 q82 -173.5 82 -413.5 q0 -241 -82 -416.5 q-82 -175.5 -226.5 -271 q-144.5 -95.5 -332.5 -95.5 ZM760 139 q134 0 234.5 76 q100.5 76 156 214.5 q55.5 138.5 55.5 326.5 q0 188 -55.5 324.5 q-55.5 136.5 -156 210 q-100.5 73.5 -234.5 73.5 q-135 0 -235.5 -73.5 q-100.5 -73.5 -156 -210 q-55.5 -136.5 -55.5 -324.5 q0 -188 55.5 -326.5 q55.5 -138.5 156 -214.5 q100.5 -76 235.5 -76 Z" /><glyph glyph-name="" unicode="r" d="M205 0 l0 1503 l471 0 q152 0 270.5 -40.5 q118.5 -40.5 186 -133.5 q67.5 -93 67.5 -250 q0 -175 -93 -280 q-93 -105 -247 -142 l385 -657 l-215 0 l-364 637 l-271 0 l0 -637 l-190 0 ZM395 791 l252 0 q177 0 271 71 q94 71 94 217 q0 149 -94 209 q-94 60 -271 60 l-252 0 l0 -557 Z" /><glyph glyph-name="" unicode="s" d="M623 -27 q-160 0 -294 60.5 q-134 60.5 -233 163.5 l115 129 q80 -85 188.5 -136 q108.5 -51 225.5 -51 q147 0 231 67.5 q84 67.5 84 178.5 q0 77 -33 124 q-33 47 -89.5 79 q-56.5 32 -127.5 63 l-217 94 q-70 30 -140.5 78 q-70.5 48 -117.5 123 q-47 75 -47 184 q0 116 61.5 206.5 q61.5 90.5 168.5 142 q107 51.5 243 51.5 q134 0 248.5 -52 q114.5 -52 193.5 -135 l-100 -120 q-69 64 -153.5 102.5 q-84.5 38.5 -188.5 38.5 q-127 0 -204 -60 q-77 -60 -77 -161 q0 -73 38 -119 q38 -46 95 -76 q57 -30 115 -55 l215 -92 q87 -38 157 -88.5 q70 -50.5 111.5 -126 q41.5 -75.5 41.5 -187.5 q0 -118 -62.5 -215 q-62.5 -97 -177 -154 q-114.5 -57 -270.5 -57 Z" /><glyph glyph-name="" unicode="t" d="M518 0 l0 1341 l-455 0 l0 162 l1100 0 l0 -162 l-454 0 l0 -1341 l-191 0 Z" /><glyph glyph-name="" unicode="a" d="M444 -27 q-139 0 -232 82.5 q-93 82.5 -93 233.5 q0 181 164.5 278.5 q164.5 97.5 519.5 137.5 q0 71 -19.5 135.5 q-19.5 64.5 -69 104.5 q-49.5 40 -141.5 40 q-96 0 -181.5 -37 q-85.5 -37 -151.5 -82 l-74 129 q77 49 191 97.5 q114 48.5 247 48.5 q203 0 294 -125.5 q91 -125.5 91 -331.5 l0 -684 l-153 0 l-17 133 l-6 0 q-80 -66 -173 -113 q-93 -47 -196 -47 ZM498 123 q81 0 152 37.5 q71 37.5 153 109.5 l0 312 q-188 -23 -297.5 -61.5 q-109.5 -38.5 -157 -93 q-47.5 -54.5 -47.5 -126.5 q0 -95 57 -136.5 q57 -41.5 140 -41.5 Z" /><glyph glyph-name="" unicode="b" d="M678 -27 q-77 0 -160 38 q-83 38 -156 104 l-8 0 l-16 -115 l-150 0 l0 1630 l187 0 l0 -446 l-6 -201 q75 66 165.5 112 q90.5 46 182.5 46 q144 0 243 -70.5 q99 -70.5 150 -198 q51 -127.5 51 -297.5 q0 -191 -67.5 -325.5 q-67.5 -134.5 -177.5 -205.5 q-110 -71 -238 -71 ZM647 129 q138 0 229 117.5 q91 117.5 91 324.5 q0 185 -67.5 298.5 q-67.5 113.5 -225.5 113.5 q-71 0 -145 -39 q-74 -39 -154 -115 l0 -583 q74 -65 145.5 -91 q71.5 -26 126.5 -26 Z" /><glyph glyph-name="" unicode="c" d="M627 -27 q-148 0 -266 69 q-118 69 -187.5 199 q-69.5 130 -69.5 314 q0 185 75 316 q75 131 197.5 200.5 q122.5 69.5 264.5 69.5 q109 0 187.5 -39.5 q78.5 -39.5 138.5 -91.5 l-97 -123 q-49 43 -102 70.5 q-53 27.5 -119 27.5 q-101 0 -180 -54 q-79 -54 -124.5 -151 q-45.5 -97 -45.5 -225 q0 -128 43.5 -224 q43.5 -96 121 -149 q77.5 -53 179.5 -53 q77 0 143.5 31.5 q66.5 31.5 118.5 79.5 l82 -125 q-75 -68 -167.5 -105 q-92.5 -37 -192.5 -37 Z" /><glyph glyph-name="" unicode="d" d="M567 -27 q-209 0 -333.5 152 q-124.5 152 -124.5 430 q0 180 67 311.5 q67 131.5 177 203 q110 71.5 237 71.5 q98 0 168.5 -35 q70.5 -35 144.5 -96 l-8 192 l0 428 l184 0 l0 -1630 l-151 0 l-17 131 l-6 0 q-66 -64 -152 -111 q-86 -47 -186 -47 ZM608 129 q77 0 146.5 38.5 q69.5 38.5 140.5 115.5 l0 583 q-72 63 -137.5 90 q-65.5 27 -134.5 27 q-91 0 -163.5 -53.5 q-72.5 -53.5 -115.5 -149.5 q-43 -96 -43 -223 q0 -201 80 -314.5 q80 -113.5 227 -113.5 Z" /><glyph glyph-name="" unicode="e" d="M637 -27 q-148 0 -268.5 69 q-120.5 69 -192.5 199.5 q-72 130.5 -72 313.5 q0 180 72 311.5 q72 131.5 186.5 203 q114.5 71.5 243.5 71.5 q212 0 327.5 -142 q115.5 -142 115.5 -381 q0 -30 -3 -58 q-3 -28 -6 -48 l-749 0 q9 -178 109.5 -283.5 q100.5 -105.5 258.5 -105.5 q82 0 150 23 q68 23 129 65 l68 -123 q-74 -48 -164.5 -81.5 q-90.5 -33.5 -204.5 -33.5 ZM289 647 l596 0 q0 168 -73 256 q-73 88 -204 88 q-118 0 -210 -90.5 q-92 -90.5 -109 -253.5 Z" /><glyph glyph-name="" unicode="f" d="M219 0 l0 961 l-151 0 l0 141 l151 10 l0 178 q0 169 79 268 q79 99 245 99 q50 0 99 -10 q49 -10 87 -27 l-41 -141 q-64 28 -125 28 q-157 0 -157 -219 l0 -176 l235 0 l0 -151 l-235 0 l0 -961 l-187 0 Z" /><glyph glyph-name="" unicode="g" d="M563 -512 q-204 0 -331.5 77.5 q-127.5 77.5 -127.5 221.5 q0 71 43 136 q43 65 121 116 l0 8 q-44 26 -73 71 q-29 45 -29 111 q0 69 41 123 q41 54 84 84 l0 8 q-55 45 -100.5 122.5 q-45.5 77.5 -45.5 176.5 q0 122 57.5 211.5 q57.5 89.5 153 138 q95.5 48.5 207.5 48.5 q46 0 86.5 -9 q40.5 -9 69.5 -20 l387 0 l0 -143 l-227 0 q40 -39 65 -98 q25 -59 25 -132 q0 -118 -54.5 -205 q-54.5 -87 -146.5 -134.5 q-92 -47.5 -205 -47.5 q-88 0 -166 39 q-30 -26 -50.5 -56.5 q-20.5 -30.5 -20.5 -76.5 q0 -54 41 -87.5 q41 -33.5 153 -33.5 l217 0 q194 0 291.5 -63.5 q97.5 -63.5 97.5 -200.5 q0 -103 -69 -191 q-69 -88 -195.5 -141 q-126.5 -53 -298.5 -53 ZM563 479 q95 0 166.5 71.5 q71.5 71.5 71.5 192.5 q0 122 -69.5 191.5 q-69.5 69.5 -168.5 69.5 q-98 0 -167.5 -69 q-69.5 -69 -69.5 -192 q0 -121 70 -192.5 q70 -71.5 167 -71.5 ZM590 -385 q106 0 186 33 q80 33 124 85.5 q44 52.5 44 110.5 q0 77 -58.5 107.5 q-58.5 30.5 -168.5 30.5 l-193 0 q-30 0 -68 4.5 q-38 4.5 -75 13.5 q-60 -43 -86.5 -91 q-26.5 -48 -26.5 -97 q0 -90 85.5 -143.5 q85.5 -53.5 236.5 -53.5 Z" /><glyph glyph-name="" unicode="h" d="M188 0 l0 1630 l187 0 l0 -446 l-6 -230 q76 77 165.5 132 q89.5 55 202.5 55 q175 0 257.5 -111.5 q82.5 -111.5 82.5 -324.5 l0 -705 l-186 0 l0 680 q0 157 -50 227 q-50 70 -161 70 q-86 0 -153.5 -43 q-67.5 -43 -151.5 -127 l0 -807 l-187 0 Z" /><glyph glyph-name="" unicode="i" d="M188 0 l0 1112 l187 0 l0 -1112 l-187 0 ZM283 1341 q-56 0 -90.5 34.5 q-34.5 34.5 -34.5 90.5 q0 54 34.5 87.5 q34.5 33.5 90.5 33.5 q55 0 90 -33.5 q35 -33.5 35 -87.5 q0 -56 -35 -90.5 q-35 -34.5 -90 -34.5 Z" /><glyph glyph-name="" unicode="k" d="M188 0 l0 1630 l185 0 l0 -1106 l6 0 l475 588 l207 0 l-373 -446 l422 -666 l-203 0 l-325 537 l-209 -244 l0 -293 l-185 0 Z" /><glyph glyph-name="" unicode="l" d="M385 -27 q-104 0 -150.5 65 q-46.5 65 -46.5 183 l0 1409 l187 0 l0 -1421 q0 -43 16 -61.5 q16 -18.5 37 -18.5 q8 0 16 0.5 q8 0.5 23 3.5 l27 -143 q-20 -8 -45.5 -12.5 q-25.5 -4.5 -63.5 -4.5 Z" /><glyph glyph-name="" unicode="m" d="M188 0 l0 1112 l154 0 l16 -162 l7 0 q72 80 159 135.5 q87 55.5 187 55.5 q127 0 200 -57.5 q73 -57.5 107 -155.5 q86 93 175.5 153 q89.5 60 190.5 60 q172 0 255 -111.5 q83 -111.5 83 -324.5 l0 -705 l-186 0 l0 680 q0 157 -50.5 227 q-50.5 70 -156.5 70 q-126 0 -280 -170 l0 -807 l-187 0 l0 680 q0 157 -50.5 227 q-50.5 70 -156.5 70 q-128 0 -280 -170 l0 -807 l-187 0 Z" /><glyph glyph-name="" unicode="n" d="M188 0 l0 1112 l154 0 l16 -160 l7 0 q79 79 169 134 q90 55 203 55 q175 0 257.5 -111.5 q82.5 -111.5 82.5 -324.5 l0 -705 l-186 0 l0 680 q0 157 -50 227 q-50 70 -161 70 q-86 0 -153.5 -43 q-67.5 -43 -151.5 -127 l0 -807 l-187 0 Z" /><glyph glyph-name="" unicode="o" d="M621 -27 q-137 0 -254.5 69 q-117.5 69 -190 199 q-72.5 130 -72.5 314 q0 185 72.5 316 q72.5 131 190 200.5 q117.5 69.5 254.5 69.5 q136 0 253.5 -69.5 q117.5 -69.5 190 -200.5 q72.5 -131 72.5 -316 q0 -184 -72.5 -314 q-72.5 -130 -190 -199 q-117.5 -69 -253.5 -69 ZM621 129 q144 0 233.5 117 q89.5 117 89.5 309 q0 128 -40.5 225 q-40.5 97 -113.5 151 q-73 54 -169 54 q-97 0 -169 -54 q-72 -54 -112.5 -151 q-40.5 -97 -40.5 -225 q0 -192 88.5 -309 q88.5 -117 233.5 -117 Z" /><glyph glyph-name="" unicode="p" d="M188 -469 l0 1581 l154 0 l16 -127 l7 0 q75 62 166 109 q91 47 188 47 q143 0 241.5 -70.5 q98.5 -70.5 149.5 -198.5 q51 -128 51 -299 q0 -190 -67.5 -324 q-67.5 -134 -177.5 -205 q-110 -71 -238 -71 q-75 0 -153.5 34 q-78.5 34 -153.5 95 l4 -194 l0 -377 l-187 0 ZM647 129 q138 0 229 117.5 q91 117.5 91 324.5 q0 185 -67.5 298.5 q-67.5 113.5 -225.5 113.5 q-71 0 -144.5 -39 q-73.5 -39 -154.5 -115 l0 -583 q75 -65 146 -91 q71 -26 126 -26 Z" /><glyph glyph-name="" unicode="r" d="M188 0 l0 1112 l154 0 l16 -203 l7 0 q58 106 139.5 169 q81.5 63 175.5 63 q72 0 119 -25 l-35 -164 q-47 19 -109 19 q-69 0 -147 -56.5 q-78 -56.5 -133 -199.5 l0 -715 l-187 0 Z" /><glyph glyph-name="" unicode="s" d="M479 -27 q-118 0 -227 44 q-109 44 -189 110 l93 123 q72 -59 151 -95 q79 -36 178 -36 q111 0 165.5 51 q54.5 51 54.5 123 q0 57 -38 95 q-38 38 -96.5 65 q-58.5 27 -119.5 51 q-78 28 -153 67 q-75 39 -124 99.5 q-49 60.5 -49 154.5 q0 88 46 159.5 q46 71.5 132 114 q86 42.5 207 42.5 q103 0 191.5 -37.5 q88.5 -37.5 152.5 -87.5 l-90 -121 q-57 43 -117.5 70.5 q-60.5 27.5 -134.5 27.5 q-106 0 -156.5 -47.5 q-50.5 -47.5 -50.5 -111.5 q0 -54 34 -87.5 q34 -33.5 88.5 -57.5 q54.5 -24 117.5 -48 q81 -31 159 -69 q78 -38 129.5 -100.5 q51.5 -62.5 51.5 -168.5 q0 -90 -47 -165 q-47 -75 -137.5 -120 q-90.5 -45 -221.5 -45 Z" /><glyph glyph-name="" unicode="t" d="M539 -27 q-179 0 -248.5 102.5 q-69.5 102.5 -69.5 268.5 l0 617 l-166 0 l0 141 l174 10 l23 313 l156 0 l0 -313 l301 0 l0 -151 l-301 0 l0 -621 q0 -103 37.5 -159 q37.5 -56 134.5 -56 q29 0 64 9 q35 9 63 20 l36 -140 q-47 -15 -100.5 -28 q-53.5 -13 -103.5 -13 Z" /><glyph glyph-name="" unicode="u" d="M512 -27 q-175 0 -256.5 111.5 q-81.5 111.5 -81.5 323.5 l0 704 l186 0 l0 -682 q0 -155 49.5 -225 q49.5 -70 159.5 -70 q86 0 154 44.5 q68 44.5 147 144.5 l0 788 l187 0 l0 -1112 l-156 0 l-14 174 l-6 0 q-79 -91 -166.5 -146 q-87.5 -55 -202.5 -55 Z" /><glyph glyph-name="" unicode="v" d="M428 0 l-401 1112 l194 0 l209 -633 q26 -81 52 -165 q26 -84 53 -162 l8 0 q26 78 52 162 q26 84 50 165 l211 633 l184 0 l-395 -1112 l-217 0 Z" /><glyph glyph-name="" unicode="w" d="M365 0 l-310 1112 l191 0 l166 -643 q17 -80 33.5 -156.5 q16.5 -76.5 31.5 -154.5 l10 0 q19 78 37 155.5 q18 77.5 39 155.5 l172 643 l183 0 l174 -643 q20 -80 38.5 -156.5 q18.5 -76.5 38.5 -154.5 l9 0 q18 78 34.5 154.5 q16.5 76.5 34.5 156.5 l164 643 l176 0 l-299 -1112 l-225 0 l-162 600 q-21 78 -38.5 156.5 q-17.5 78.5 -37.5 163.5 l-10 0 q-18 -85 -36 -164.5 q-18 -79.5 -40 -159.5 l-155 -596 l-219 0 Z" /><glyph glyph-name="" unicode="y" d="M207 -479 q-77 0 -131 22 l37 150 q17 -6 39.5 -12.5 q22.5 -6.5 44.5 -6.5 q95 0 156.5 68.5 q61.5 68.5 95.5 171.5 l24 84 l-446 1114 l194 0 l228 -618 q24 -73 52 -154.5 q28 -81.5 54 -157.5 l10 0 q23 76 47 157 q24 81 47 155 l199 618 l182 0 l-419 -1204 q-38 -110 -92.5 -197.5 q-54.5 -87.5 -133 -138.5 q-78.5 -51 -188.5 -51 Z" /><glyph glyph-name="" unicode="&#x3002;" d="M397 500 q87 0 158.5 -42 q71.5 -42 113.5 -113 q42 -71 42 -157 q0 -87 -42 -158 q-42 -71 -113.5 -113 q-71.5 -42 -158.5 -42 q-85 0 -155.5 42 q-70.5 42 -113 113 q-42.5 71 -42.5 158 q0 86 42.5 157 q42.5 71 113 113 q70.5 42 155.5 42 ZM397 -20 q88 0 148.5 60.5 q60.5 60.5 60.5 147.5 q0 85 -60.5 146 q-60.5 61 -148.5 61 q-84 0 -145.5 -61 q-61.5 -61 -61.5 -146 q0 -87 61.5 -147.5 q61.5 -60.5 145.5 -60.5 Z" /><glyph glyph-name="" unicode="&#x3007;" d="M1024 1702 q191 0 358.5 -72 q167.5 -72 294.5 -199 q127 -127 199 -294.5 q72 -167.5 72 -358.5 q0 -191 -72 -358.5 q-72 -167.5 -199 -294.5 q-127 -127 -294.5 -198.5 q-167.5 -71.5 -358.5 -71.5 q-191 0 -358.5 71.5 q-167.5 71.5 -294.5 198.5 q-127 127 -199 294.5 q-72 167.5 -72 358.5 q0 191 72 358.5 q72 167.5 199 294.5 q127 127 294.5 199 q167.5 72 358.5 72 ZM1024 1544 q-159 0 -298 -59.5 q-139 -59.5 -244 -164.5 q-105 -105 -164.5 -244 q-59.5 -139 -59.5 -298 q0 -159 59.5 -297.5 q59.5 -138.5 164.5 -244 q105 -105.5 244 -165 q139 -59.5 298 -59.5 q159 0 298 59.5 q139 59.5 244 165 q105 105.5 164.5 244 q59.5 138.5 59.5 297.5 q0 159 -59.5 298 q-59.5 139 -164.5 244 q-105 105 -244 164.5 q-139 59.5 -298 59.5 Z" /><glyph glyph-name="" unicode="&#x3105;" d="M1688 1180 l-7 -80 q-33 -360 -68 -584.5 q-35 -224.5 -76 -346.5 q-41 -122 -93 -173 q-40 -43 -84 -59 q-44 -16 -109 -19 q-55 -5 -150 -2.5 q-95 2.5 -198 8.5 q-3 36 -18.5 81 q-15.5 45 -38.5 79 q113 -11 212 -13.5 q99 -2.5 142 -2.5 q37 0 62 5 q25 5 47 23 q42 37 77.5 143 q35.5 106 67 299 q31.5 193 59.5 492 l-890 0 q-82 0 -135 -6 q-53 -6 -68 -18 q-8 26 -24 73 q-16 47 -31 78 q21 6 38.5 31 q17.5 25 34.5 65 q9 26 32 93 q23 67 47 155.5 q24 88.5 36 179.5 l164 -47 q-25 -116 -64 -236 q-39 -120 -82 -218 l1117 0 Z" /><glyph glyph-name="" unicode="&#x3106;" d="M1546 1214 l107 -53 q-69 -218 -177.5 -398 q-108.5 -180 -248.5 -325 q141 -118 263.5 -231 q122.5 -113 205.5 -207 l-133 -117 q-79 94 -198 208.5 q-119 114.5 -257 234.5 q-183 -160 -397.5 -270.5 q-214.5 -110.5 -442.5 -178.5 q-12 32 -37.5 73.5 q-25.5 41.5 -48.5 65.5 q217 57 423.5 160 q206.5 103 381.5 252 q-117 98 -236 191.5 q-119 93.5 -231 173.5 l119 96 q109 -77 228 -167 q119 -90 237 -183 q107 109 193.5 239 q86.5 130 146.5 281 l-791 0 q-75 0 -125.5 -6 q-50.5 -6 -64.5 -19 l0 2 q-6 28 -23 74.5 q-17 46.5 -30 77.5 q18 6 35 30.5 q17 24.5 32 61.5 q10 23 31.5 85 q21.5 62 42.5 145 q21 83 33 169 l168 -39 q-22 -112 -60 -227 q-38 -115 -78 -207 l904 0 l28 8 Z" /><glyph glyph-name="" unicode="&#x3107;" d="M270 1518 l1518 0 l0 -1581 l-168 0 l0 1425 l-1188 0 l0 -1425 l-162 0 l0 1581 Z" /><glyph glyph-name="" unicode="&#x3108;" d="M647 139 l856 0 q52 0 114.5 2.5 q62.5 2.5 119 7.5 q56.5 5 92.5 11 q1 -33 8.5 -80 q7.5 -47 13.5 -78 q-41 -9 -138.5 -12.5 q-97.5 -3.5 -205.5 -3.5 l-843 0 q-215 0 -310.5 76 q-95.5 76 -95.5 276 l0 1155 l1550 0 l0 -154 l-1384 0 l0 -1009 q0 -100 46.5 -145.5 q46.5 -45.5 176.5 -45.5 Z" /><glyph glyph-name="" unicode="&#x3109;" d="M1749 1180 l-6 -76 q-21 -275 -41.5 -469 q-20.5 -194 -44 -322 q-23.5 -128 -51 -202.5 q-27.5 -74.5 -62.5 -110.5 q-35 -40 -74 -55.5 q-39 -15.5 -98 -20.5 q-47 -3 -131.5 -2.5 q-84.5 0.5 -173.5 6.5 q-3 34 -16.5 79 q-13.5 45 -34.5 77 q97 -9 180.5 -11.5 q83.5 -2.5 120.5 -2.5 q32 0 53 5 q21 5 41 23 q36 34 65.5 137 q29.5 103 55.5 297.5 q26 194.5 49 501.5 l-481 0 q-52 -298 -155.5 -516 q-103.5 -218 -269.5 -371.5 q-166 -153.5 -407 -257.5 q-15 25 -50.5 64.5 q-35.5 39.5 -59.5 62.5 q233 85 390 221.5 q157 136.5 251 333.5 q94 197 139 463 l-315 0 q-172 0 -203 -24 q-6 26 -24 74.5 q-18 48.5 -31 80.5 q20 5 38 30.5 q18 25.5 33 64.5 q10 25 33 91.5 q23 66.5 46 154.5 q23 88 34 180 l168 -50 q-26 -116 -67 -237 q-41 -121 -87 -219 l1186 0 Z" /><glyph glyph-name="" unicode="&#x310a;" d="M1896 1036 l-915 0 q-94 -245 -196.5 -474 q-102.5 -229 -206.5 -421 l866 109 q-57 86 -116.5 170 q-59.5 84 -115.5 160 l138 63 q84 -108 173 -233 q89 -125 166.5 -244.5 q77.5 -119.5 127.5 -210.5 l-146 -82 q-26 51 -62 112.5 q-36 61.5 -77 127.5 q-286 -39 -478 -65.5 q-192 -26.5 -311.5 -44 q-119.5 -17.5 -187 -29.5 q-67.5 -12 -101.5 -21 q-34 -9 -57 -19 q-7 25 -27.5 74.5 q-20.5 49.5 -35.5 83.5 q37 16 82.5 93.5 q45.5 77.5 105.5 197.5 q26 46 70 141.5 q44 95.5 98.5 227 q54.5 131.5 112.5 284.5 l-656 0 l0 154 l713 0 q45 123 85.5 251.5 q40.5 128.5 74.5 256.5 l170 -45 q-34 -115 -72 -231.5 q-38 -116.5 -80 -231.5 l858 0 l0 -154 Z" /><glyph glyph-name="" unicode="&#x310b;" d="M1014 963 l794 0 q0 0 -2.5 -28 q-2.5 -28 -7.5 -46 q-48 -277 -95.5 -457.5 q-47.5 -180.5 -99 -286.5 q-51.5 -106 -110.5 -157 q-43 -39 -88 -52 q-45 -13 -113 -16 q-50 -3 -141.5 -1 q-91.5 2 -194.5 9 q-1 34 -15.5 77 q-14.5 43 -37.5 77 q109 -11 207 -15 q98 -4 145 -4 q37 0 63.5 5 q26.5 5 49.5 22 q72 55 136 227 q64 172 124 498 l-639 0 q-66 0 -113 -7 q-47 -7 -61 -17 q-8 24 -27.5 67 q-19.5 43 -37.5 68 q32 7 74 38.5 q42 31.5 83 75.5 q23 23 71 76 q48 53 108 127 q60 74 118 158 l-887 0 l0 149 l996 0 l37 17 l108 -76 q-107 -148 -221 -284.5 q-114 -136.5 -223 -243.5 Z" /><glyph glyph-name="" unicode="&#x310c;" d="M1141 1180 l633 0 q0 0 -2 -30.5 q-2 -30.5 -5 -47.5 q-22 -273 -44 -465.5 q-22 -192.5 -47 -320 q-25 -127.5 -53.5 -202 q-28.5 -74.5 -63.5 -110.5 q-37 -41 -76.5 -57 q-39.5 -16 -98.5 -21 q-49 -3 -132.5 -1.5 q-83.5 1.5 -174.5 7.5 q-3 34 -16 79 q-13 45 -35 77 q97 -9 181 -11.5 q84 -2.5 122 -2.5 q34 0 55 5 q21 5 41 23 q37 34 69 137 q32 103 59.5 296 q27.5 193 52.5 497 l-496 0 q-63 -269 -166 -481.5 q-103 -212.5 -261.5 -376 q-158.5 -163.5 -387.5 -285.5 q-14 25 -48 65.5 q-34 40.5 -59 63.5 q215 104 364 249 q149 145 245.5 335.5 q96.5 190.5 154.5 429.5 l-372 0 q-88 0 -143 -6 q-55 -6 -68 -18 l0 2 q-8 24 -24 70 q-16 46 -30 77 q20 5 36.5 29.5 q16.5 24.5 31.5 64.5 q8 25 28.5 90.5 q20.5 65.5 41.5 153 q21 87.5 30 176.5 l158 -47 q-18 -114 -52 -231 q-34 -117 -71 -213 l467 0 q43 225 68 499 l155 -12 q-14 -132 -30 -253.5 q-16 -121.5 -37 -233.5 Z" /><glyph glyph-name="" unicode="&#x310d;" d="M797 1669 l159 -57 q-61 -122 -146.5 -257.5 q-85.5 -135.5 -178.5 -271 q-93 -135.5 -178 -258.5 q83 -105 168 -221 q85 -116 162.5 -231.5 q77.5 -115.5 141.5 -220.5 q64 -105 105 -187 l-160 -84 q-52 120 -146.5 279.5 q-94.5 159.5 -213 332 q-118.5 172.5 -242.5 330.5 q72 102 148 216.5 q76 114.5 148 229 q72 114.5 132 217.5 q60 103 101 183 ZM1493 1636 l162 -59 q-64 -116 -151.5 -246 q-87.5 -130 -182.5 -260.5 q-95 -130.5 -182 -247.5 q84 -100 170.5 -211.5 q86.5 -111.5 166.5 -222.5 q80 -111 145 -211.5 q65 -100.5 108 -179.5 l-160 -84 q-56 115 -153.5 268.5 q-97.5 153.5 -218.5 320 q-121 166.5 -247 318.5 q75 99 153 209 q78 110 151 220 q73 110 135 209.5 q62 99.5 104 176.5 Z" /><glyph glyph-name="" unicode="&#x310e;" d="M1886 1386 l-925 0 q-56 -113 -122.5 -224 q-66.5 -111 -136.5 -204 l926 0 q0 0 -1.5 -28 q-1.5 -28 -4.5 -45 q-40 -280 -79 -460.5 q-39 -180.5 -83.5 -283.5 q-44.5 -103 -99.5 -151 q-42 -40 -89 -53.5 q-47 -13.5 -116 -18.5 q-58 -1 -162 1 q-104 2 -221 11 q-3 33 -18.5 75.5 q-15.5 42.5 -38.5 74.5 q126 -11 238 -15 q112 -4 161 -4 q42 0 68.5 4 q26.5 4 48.5 21 q66 51 119 222.5 q53 171.5 102 504.5 l-737 0 q-71 0 -120 -6 q-49 -6 -63 -19 q-6 27 -22.5 76.5 q-16.5 49.5 -30.5 81.5 q25 6 50 32.5 q25 26.5 53 65.5 q16 22 48 73.5 q32 51.5 69.5 121.5 q37.5 70 72.5 147 l-600 0 l0 152 l1714 0 l0 -152 Z" /><glyph glyph-name="" unicode="&#x310f;" d="M1829 1477 l0 -150 l-1317 0 l0 -409 q0 -119 -10.5 -254.5 q-10.5 -135.5 -41 -275 q-30.5 -139.5 -89.5 -269.5 q-59 -130 -156 -238 q-20 20 -60.5 49 q-40.5 29 -68.5 41 q91 102 145.5 221.5 q54.5 119.5 81 246 q26.5 126.5 35 249 q8.5 122.5 8.5 232.5 l0 557 l1473 0 Z" /><glyph glyph-name="" unicode="&#x3110;" d="M1364 1669 l158 0 l0 -1788 l-158 0 l0 617 q-217 -54 -363.5 -92 q-146.5 -38 -238.5 -63 q-92 -25 -144.5 -42 q-52.5 -17 -80 -29.5 q-27.5 -12.5 -45.5 -23.5 q-8 32 -30.5 77 q-22.5 45 -43.5 74 q31 14 67.5 48 q36.5 34 36.5 96 l0 1007 l152 0 l0 -1069 l690 160 l0 1028 Z" /><glyph glyph-name="" unicode="&#x3111;" d="M1292 1679 l156 -75 q-68 -85 -160.5 -182.5 q-92.5 -97.5 -196.5 -200 q-104 -102.5 -211 -203 q-107 -100.5 -204 -191.5 q118 -101 241.5 -215.5 q123.5 -114.5 238.5 -230.5 q115 -116 211 -222 q96 -106 159 -190 l-154 -96 q-63 91 -160.5 206 q-97.5 115 -218 242.5 q-120.5 127.5 -253.5 256.5 q-133 129 -267 247 q111 102 228 217.5 q117 115.5 228 231.5 q111 116 205 220.5 q94 104.5 158 184.5 Z" /><glyph glyph-name="" unicode="&#x3112;" d="M1870 1499 l0 -153 l-762 0 l0 -1450 l-166 0 l0 1450 l-756 0 l0 153 l1684 0 Z" /><glyph glyph-name="" unicode="&#x3113;" d="M1100 125 l813 0 l0 -152 l-1778 0 l0 152 l809 0 l0 348 l-606 0 l0 944 l156 0 l0 -792 l450 0 l0 1034 l156 0 l0 -1034 l477 0 l0 792 l162 0 l0 -944 l-639 0 l0 -348 Z" /><glyph glyph-name="" unicode="&#x3114;" d="M1262 1724 l149 -69 q-115 -137 -272 -265.5 q-157 -128.5 -338 -237.5 q-181 -109 -367 -187 q-15 27 -43.5 65 q-28.5 38 -48.5 60 q178 71 354.5 173 q176.5 102 324 221 q147.5 119 241.5 240 ZM1571 1436 l141 -74 q-106 -140 -235.5 -267 q-129.5 -127 -274.5 -241 l0 -973 l-158 0 l0 854 q-318 -222 -665 -373 q-14 27 -44.5 71.5 q-30.5 44.5 -53.5 70.5 q249 97 489 238.5 q240 141.5 446 317.5 q206 176 355 376 Z" /><glyph glyph-name="" unicode="&#x3115;" d="M1776 1546 l0 -747 l-1219 0 l0 -37 q0 -98 -13 -215 q-13 -117 -50 -240.5 q-37 -123.5 -108.5 -241.5 q-71.5 -118 -188.5 -219 q-22 22 -61 51.5 q-39 29.5 -68 45.5 q109 93 175 200 q66 107 99 218 q33 111 44 214.5 q11 103.5 11 188.5 l0 184 l1223 0 l0 449 l-1292 0 l0 149 l1448 0 Z" /><glyph glyph-name="" unicode="&#x3116;" d="M727 1067 l129 70 q80 -97 165.5 -206.5 q85.5 -109.5 159.5 -213 q74 -103.5 122 -180.5 l-138 -84 q-46 79 -119.5 186.5 q-73.5 107.5 -157.5 220 q-84 112.5 -161 207.5 ZM496 164 l1048 20 l0 1227 l-1048 0 l0 -1247 ZM365 1565 l1347 0 l0 -1659 l-168 0 l0 129 q-303 -8 -506 -13 q-203 -5 -329 -8 q-126 -3 -196 -6 q-70 -3 -104.5 -7 q-34.5 -4 -56.5 -11 q-12 30 -42 76.5 q-30 46.5 -50 70.5 q25 16 50.5 55.5 q25.5 39.5 25.5 104.5 l0 1259 l29 0 l0 9 Z" /><glyph glyph-name="" unicode="&#x3117;" d="M246 1507 l1558 0 q0 0 -1 -29.5 q-1 -29.5 -3 -45.5 q-14 -315 -30.5 -506.5 q-16.5 -191.5 -39.5 -290.5 q-23 -99 -57 -137 q-29 -37 -64.5 -52 q-35.5 -15 -84.5 -20 q-46 -5 -123 -3 q-77 2 -160 5 q-3 35 -16 79 q-13 44 -33 75 q86 -8 160 -9.5 q74 -1.5 106 -1.5 q53 -2 80 27 q24 25 42.5 106.5 q18.5 81.5 33 240 q14.5 158.5 26.5 413.5 l-647 0 l0 -1475 l-162 0 l0 1475 l-585 0 l0 149 Z" /><glyph glyph-name="" unicode="&#x3118;" d="M1913 1149 l-1010 0 q-43 -109 -89.5 -211 q-46.5 -102 -92.5 -193 l758 0 l28 9 l117 -62 q-45 -155 -114.5 -312.5 q-69.5 -157.5 -149 -298 q-79.5 -140.5 -154.5 -245.5 q-23 22 -60.5 48.5 q-37.5 26.5 -66.5 43.5 q58 79 120.5 190 q62.5 111 119.5 234.5 q57 123.5 98 241.5 l-688 0 q-66 0 -113 -7 q-47 -7 -61 -18 q-8 25 -23.5 72 q-15.5 47 -29.5 76 q30 9 60 58 q30 49 67 126 q17 31 45.5 95.5 q28.5 64.5 62.5 152.5 l-608 0 l0 151 l666 0 q35 100 70 208.5 q35 108.5 61 215.5 l161 -38 q-27 -97 -59 -193.5 q-32 -96.5 -67 -192.5 l952 0 l0 -151 Z" /><glyph glyph-name="" unicode="&#x3119;" d="M1874 6 l-160 -72 q-24 63 -60 139.5 q-36 76.5 -77 157.5 q-327 -49 -546 -82.5 q-219 -33.5 -354.5 -55.5 q-135.5 -22 -211 -36 q-75.5 -14 -113 -24.5 q-37.5 -10.5 -61.5 -22.5 q-8 26 -27.5 77 q-19.5 51 -36.5 85 q39 12 85 82.5 q46 70.5 106 179.5 q31 53 91.5 175.5 q60.5 122.5 134.5 290 q74 167.5 147.5 358.5 q73.5 191 132.5 382 l174 -49 q-85 -244 -185 -486.5 q-100 -242.5 -208.5 -466 q-108.5 -223.5 -219.5 -413.5 l1018 146 q-54 101 -110.5 200.5 q-56.5 99.5 -110.5 188.5 l150 55 q80 -129 165.5 -275.5 q85.5 -146.5 158.5 -286 q73 -139.5 118 -247.5 Z" /><glyph glyph-name="" unicode="&#x311d;" d="M1905 942 l-457 0 q-18 -158 -57.5 -318.5 q-39.5 -160.5 -110.5 -314.5 q-25 23 -67.5 46.5 q-42.5 23.5 -75.5 35.5 q63 134 99 273.5 q36 139.5 56 277.5 l-598 0 l0 -645 q0 -98 39.5 -138 q39.5 -40 138.5 -40 l560 0 q56 0 123.5 4 q67.5 4 107.5 10 q3 -31 9.5 -75.5 q6.5 -44.5 10.5 -71.5 q-30 -8 -102 -11.5 q-72 -3.5 -151 -3.5 l-549 0 q-183 0 -261.5 72.5 q-78.5 72.5 -78.5 261.5 l0 637 l-400 0 l0 156 l400 0 l0 491 l153 0 l0 -491 l615 0 q9 104 11.5 203 q2.5 99 2.5 188 l0 129 l152 0 l0 -129 q0 -89 -2.5 -188 q-2.5 -99 -10.5 -203 l443 0 l0 -156 Z" /><glyph glyph-name="" unicode="&#x311e;" d="M1851 1403 l-663 0 q-37 -304 -105 -547 l525 0 l34 27 l138 -49 l-8 -27 q-24 -155 -58.5 -320 q-34.5 -165 -81 -319.5 q-46.5 -154.5 -104.5 -276.5 l-146 54 q46 98 84 226.5 q38 128.5 67 268.5 q29 140 48 271 l-547 0 q-101 -280 -273.5 -478.5 q-172.5 -198.5 -447.5 -334.5 q-15 24 -49.5 63.5 q-34.5 39.5 -60.5 61.5 q253 112 414.5 281 q161.5 169 256.5 407 l-348 0 q-184 0 -215 -25 q-6 25 -21.5 68.5 q-15.5 43.5 -27.5 72.5 q20 7 36.5 31.5 q16.5 24.5 33.5 61.5 q11 24 36 88 q25 64 50 149.5 q25 85.5 39 173.5 l153 -39 q-24 -115 -64 -229.5 q-40 -114.5 -81 -206.5 l461 0 q37 120 63 256.5 q26 136.5 43 290.5 l-827 0 l0 149 l1646 0 l0 -149 Z" /><glyph glyph-name="" unicode="&#x311f;" d="M768 1516 l121 -39 q97 -343 232.5 -593 q135.5 -250 316 -433.5 q180.5 -183.5 413.5 -327.5 q-33 -22 -72.5 -59.5 q-39.5 -37.5 -68.5 -63.5 q-206 135 -381 317.5 q-175 182.5 -317 432 q-142 249.5 -248 585.5 q-105 -66 -228.5 -133 q-123.5 -67 -252.5 -129 q-17 40 -39 80 q-22 40 -43 76 q95 34 198 82 q103 48 199 101.5 q96 53.5 170 103.5 Z" /><glyph glyph-name="" unicode="&#x3120;" d="M1888 -59 l-149 -72 q-45 118 -123 274 q-319 -43 -532.5 -72 q-213.5 -29 -345.5 -48 q-132 -19 -205 -32 q-73 -13 -109 -22.5 q-36 -9.5 -59 -19.5 q-7 26 -27 73 q-20 47 -35 80 q46 11 112 60.5 q66 49.5 163 134.5 q61 51 190 174 q129 123 281 289 q-212 -19 -340.5 -32.5 q-128.5 -13.5 -198 -22.5 q-69.5 -9 -102 -16.5 q-32.5 -7.5 -52.5 -14.5 q-4 24 -21 72.5 q-17 48.5 -32 80.5 q39 8 83 46 q44 38 103 98 q32 30 93.5 99 q61.5 69 138 164.5 q76.5 95.5 155.5 206 q79 110.5 146 224.5 l141 -86 q-132 -197 -283 -381.5 q-151 -184.5 -305 -335.5 l605 45 q78 89 154 183.5 q76 94.5 145 191.5 l133 -98 q-229 -301 -479.5 -561 q-250.5 -260 -497.5 -467 l915 114 q-40 77 -81 152.5 q-41 75.5 -80 142.5 l141 62 q65 -109 134 -233 q69 -124 128 -242.5 q59 -118.5 96 -210.5 Z" /><glyph glyph-name="" unicode="&#x3121;" d="M1642 1489 l109 -55 q-81 -252 -209 -469.5 q-128 -217.5 -287 -397.5 q165 -150 305 -295 q140 -145 232 -268 l-135 -117 q-86 120 -220 264.5 q-134 144.5 -292 297.5 q-194 -196 -414.5 -338.5 q-220.5 -142.5 -447.5 -233.5 q-17 32 -45.5 74.5 q-28.5 42.5 -53.5 66.5 q220 79 436.5 217 q216.5 138 405.5 324 q-129 117 -262 228.5 q-133 111.5 -260 207.5 l117 99 q255 -193 514 -420 q126 143 230.5 306.5 q104.5 163.5 176.5 344.5 l-1220 0 l0 154 l1294 0 l26 10 Z" /><glyph glyph-name="" unicode="&#x3122;" d="M1690 803 l110 -58 q-35 -157 -88.5 -320 q-53.5 -163 -116 -307 q-62.5 -144 -122.5 -243 q-22 19 -58 44 q-36 25 -65 40 q45 76 93.5 190.5 q48.5 114.5 92.5 244.5 q44 130 74 253 l-994 0 q-180 0 -210 -24 q-7 26 -23.5 72.5 q-16.5 46.5 -30.5 78.5 q22 5 43 33.5 q21 28.5 41 71.5 q15 27 45 99.5 q30 72.5 62 169 q32 96.5 53 195.5 l162 -47 q-36 -129 -88 -261.5 q-52 -132.5 -109 -239.5 l733 0 q31 93 62.5 197.5 q31.5 104.5 60.5 206 q29 101.5 51 187.5 l-1187 0 l0 148 l1241 0 l26 8 l117 -24 q-26 -102 -60.5 -225 q-34.5 -123 -73.5 -252 q-39 -129 -77 -246 l207 0 l29 8 Z" /><glyph glyph-name="" unicode="&#x3123;" d="M1696 926 l108 -54 q-35 -179 -89.5 -365 q-54.5 -186 -118.5 -350.5 q-64 -164.5 -128 -279.5 q-21 22 -57 48.5 q-36 26.5 -65 41.5 q50 89 101.5 224 q51.5 135 97 287 q45.5 152 77.5 292 l-1049 0 q-185 0 -213 -25 q-7 27 -23 74.5 q-16 47.5 -30 79.5 q26 6 50.5 42 q24.5 36 52.5 91 q13 28 39.5 90 q26.5 62 58 146.5 q31.5 84.5 61.5 181 q30 96.5 52 192.5 l170 -34 q-53 -183 -125.5 -364 q-72.5 -181 -147.5 -326 l1149 0 l29 8 Z" /><glyph glyph-name="" unicode="&#x3124;" d="M1255 90 l453 0 q43 0 99.5 3.5 q56.5 3.5 88.5 10.5 q4 -32 9 -76 q5 -44 10 -73 q-28 -6 -85 -9 q-57 -3 -120 -3 l-448 0 q-151 0 -207 56.5 q-56 56.5 -56 201.5 l0 596 q-45 -167 -137.5 -331.5 q-92.5 -164.5 -251.5 -313.5 q-159 -149 -405 -271 q-12 26 -41.5 67.5 q-29.5 41.5 -52.5 61.5 q224 111 371 240 q147 129 233 269 q86 140 127.5 284.5 q41.5 144.5 54.5 286.5 l-735 0 l0 149 l743 0 q0 18 0 35.5 q0 17.5 0 36.5 l0 356 l154 0 l0 -362 q0 -17 0 -33 q0 -16 0 -33 l813 0 l0 -149 l-821 0 q-5 -51 -12.5 -104 q-7.5 -53 -18.5 -105 l137 0 l0 -684 q0 -59 20 -83 q20 -24 78 -24 Z" /><glyph glyph-name="" unicode="&#x3125;" d="M473 158 l1344 26 q-2 -32 0.5 -78.5 q2.5 -46.5 7.5 -70.5 q-328 -9 -563.5 -14.5 q-235.5 -5.5 -396.5 -9.5 q-161 -4 -263.5 -7 q-102.5 -3 -161 -6 q-58.5 -3 -90.5 -7.5 q-32 -4.5 -53 -10.5 q-8 26 -28.5 75.5 q-20.5 49.5 -37.5 81.5 q42 14 93 82.5 q51 68.5 118 175.5 q36 52 106 172.5 q70 120.5 156 286 q86 165.5 173.5 355.5 q87.5 190 158.5 382 l168 -53 q-103 -254 -224 -500.5 q-121 -246.5 -250 -470.5 q-129 -224 -257 -409 Z" /><glyph glyph-name="" unicode="&#x3126;" d="M1182 1618 l161 0 l0 -1339 q0 -83 23.5 -114.5 q23.5 -31.5 83.5 -31.5 l338 0 q37 0 81.5 4 q44.5 4 74.5 8 q1 -30 7 -76.5 q6 -46.5 11 -74.5 q-26 -8 -74.5 -11 q-48.5 -3 -105.5 -3 l-326 0 q-157 0 -215.5 68 q-58.5 68 -58.5 239 l0 1331 ZM643 1614 l160 0 l0 -623 q0 -153 -19 -304.5 q-19 -151.5 -78 -294 q-59 -142.5 -176 -269.5 q-117 -127 -313 -229 q-17 27 -49.5 65 q-32.5 38 -58.5 61 q180 93 287 206 q107 113 160 239 q53 126 70 259.5 q17 133.5 17 266.5 l0 623 Z" /><glyph glyph-name="" unicode="&#x3128;" d="M1800 80 l-137 -129 q-91 143 -233.5 318 q-142.5 175 -311.5 360 q-170 -205 -362 -376 q-192 -171 -404 -304 q-17 26 -53.5 67 q-36.5 41 -62.5 66 q216 126 410 293.5 q194 167.5 362 369.5 q-152 160 -311 316 q-159 156 -310 291 l117 102 q146 -129 302 -276.5 q156 -147.5 306 -300.5 q124 165 231 347.5 q107 182.5 193 379.5 l156 -50 q-197 -433 -467 -792 q176 -184 327 -360 q151 -176 248 -322 Z" /><glyph glyph-name="" unicode="&#x3129;" d="M1612 1577 l155 0 l0 -1681 l-155 0 l0 122 q-329 -8 -549 -12.5 q-220 -4.5 -356.5 -8 q-136.5 -3.5 -211.5 -6.5 q-75 -3 -111 -7.5 q-36 -4.5 -58 -12.5 q-13 31 -40.5 73.5 q-27.5 42.5 -47.5 64.5 q23 16 47 55.5 q24 39.5 24 103.5 l0 1311 l152 0 l0 -1432 l1151 21 l0 1409 Z" /><glyph glyph-name="" unicode="&#x2f00;&#x4e00;" d="M98 881 l1860 0 l0 -166 l-1860 0 l0 166 Z" /><glyph glyph-name="" unicode="&#x4e01;" d="M1917 1526 l0 -156 l-748 0 l0 -1280 q0 -91 -28 -135 q-28 -44 -92 -64 q-66 -21 -182.5 -25.5 q-116.5 -4.5 -293.5 -4.5 q-9 37 -29.5 87.5 q-20.5 50.5 -43.5 84.5 q95 -3 183 -4.5 q88 -1.5 153.5 -1 q65.5 0.5 93.5 1.5 q37 1 52 14.5 q15 13.5 15 48.5 l0 1278 l-866 0 l0 156 l1786 0 Z" /><glyph glyph-name="" unicode="&#x4e0a;" d="M1036 92 l901 0 l0 -151 l-1824 0 l0 151 l764 0 l0 1589 l159 0 l0 -626 l762 0 l0 -152 l-762 0 l0 -811 Z" /><glyph glyph-name="" unicode="&#x4e0b;" d="M1929 1411 l-864 0 l0 -364 l27 30 q91 -44 192.5 -98 q101.5 -54 201 -111.5 q99.5 -57.5 186 -113 q86.5 -55.5 147.5 -101.5 l-107 -137 q-70 57 -177 128.5 q-107 71.5 -230 144 q-123 72.5 -240 135.5 l0 -1078 l-162 0 l0 1565 l-782 0 l0 152 l1808 0 l0 -152 Z" /><glyph glyph-name="" unicode="&#x4e13;" d="M1894 950 l-1095 0 q-20 -60 -39 -116.5 q-19 -56.5 -37 -108.5 l883 0 l26 8 l115 -69 q-111 -114 -256 -256.5 q-145 -142.5 -287 -276.5 q99 -41 184.5 -81 q85.5 -40 149.5 -79 l-92 -131 q-75 46 -182.5 98 q-107.5 52 -232.5 104 q-125 52 -254 98.5 q-129 46.5 -247 80.5 l86 111 q102 -28 213.5 -65 q111.5 -37 223.5 -79 q103 97 210 201 q107 104 193 193 l-950 0 q31 76 64.5 170.5 q33.5 94.5 70.5 197.5 l-518 0 l0 148 l565 0 q20 60 39.5 120.5 q19.5 60.5 36.5 120.5 l-477 0 l0 146 l520 0 q17 58 33 114.5 q16 56.5 28 108.5 l162 0 q-15 -52 -32 -108.5 q-17 -56.5 -35 -114.5 l784 0 l0 -146 l-825 0 q-20 -60 -39 -120.5 q-19 -60.5 -37 -120.5 l1048 0 l0 -148 Z" /><glyph glyph-name="" unicode="&#x4e16;" d="M1479 1057 l-392 0 l0 -506 l392 0 l0 506 ZM1634 410 l-696 0 l0 647 l-373 0 l0 -932 l1317 0 l0 -150 l-1474 0 l0 1082 l-297 0 l0 147 l297 0 l0 453 l157 0 l0 -453 l373 0 l0 500 l149 0 l0 -500 l392 0 l0 475 l155 0 l0 -475 l305 0 l0 -147 l-305 0 l0 -647 Z" /><glyph glyph-name="" unicode="&#x4e19;" d="M1096 1425 l0 -297 l0 -6 l735 0 l0 -1077 q0 -71 -19 -110 q-19 -39 -73 -58 q-52 -18 -145 -22.5 q-93 -4.5 -228 -4.5 q-6 33 -22 77 q-16 44 -33 75 q107 -5 199 -4.5 q92 0.5 122 2.5 q29 2 39 11 q10 9 10 34 l0 932 l-591 0 q-10 -82 -31 -164 q97 -72 202 -155.5 q105 -83.5 197 -164.5 q92 -81 152 -147 l-109 -115 q-52 61 -132 136.5 q-80 75.5 -173 155 q-93 79.5 -184 151.5 q-57 -131 -172.5 -255 q-115.5 -124 -313.5 -229 q-17 27 -51 61.5 q-34 34.5 -61 55.5 q196 94 303 207.5 q107 113.5 152.5 232.5 q45.5 119 58.5 230 l-555 0 l0 -1133 l-152 0 l0 1278 l713 0 l0 8 l0 295 l-789 0 l0 150 l1758 0 l0 -150 l-807 0 Z" /><glyph glyph-name="" unicode="&#x4e1a;" d="M1743 1241 l137 -67 q-49 -117 -108.5 -244.5 q-59.5 -127.5 -122.5 -247 q-63 -119.5 -121 -213.5 l-125 68 q56 92 120 213.5 q64 121.5 122 249.5 q58 128 98 241 ZM604 543 l-151 -58 q-25 90 -70.5 214 q-45.5 124 -100.5 257 q-55 133 -108 248 l141 43 q55 -113 111 -243 q56 -130 103.5 -251 q47.5 -121 74.5 -210 ZM1350 100 l571 0 l0 -149 l-1790 0 l0 149 l569 0 l0 1588 l152 0 l0 -1588 l346 0 l0 1586 l152 0 l0 -1586 Z" /><glyph glyph-name="" unicode="&#x4e1d;" d="M1274 477 l594 29 q-6 -32 -9.5 -71.5 q-3.5 -39.5 -3.5 -65.5 q-240 -13 -385 -22 q-145 -9 -223 -16 q-78 -7 -113 -12.5 q-35 -5.5 -55 -11.5 q-6 22 -20.5 66 q-14.5 44 -26.5 73 q36 10 80 49.5 q44 39.5 102 100.5 q33 31 97.5 106 q64.5 75 142.5 177 q-152 -10 -231 -16.5 q-79 -6.5 -112.5 -12 q-33.5 -5.5 -49.5 -12.5 q-6 23 -20.5 67.5 q-14.5 44.5 -28.5 73.5 q29 6 59.5 40.5 q30.5 34.5 67.5 88.5 q19 26 56.5 86.5 q37.5 60.5 84 143.5 q46.5 83 93 178.5 q46.5 95.5 83.5 191.5 l141 -57 q-79 -174 -177 -343.5 q-98 -169.5 -199 -306.5 l333 13 q53 72 103 150 q50 78 96 155 l133 -72 q-135 -215 -293 -412.5 q-158 -197.5 -319 -357.5 ZM440 469 l531 29 q-5 -33 -8.5 -72 q-3.5 -39 -1.5 -64 q-221 -14 -354 -23.5 q-133 -9.5 -204 -16.5 q-71 -7 -102.5 -13 q-31.5 -6 -48.5 -14 q-6 21 -22 66.5 q-16 45.5 -31 74.5 q38 9 80.5 50 q42.5 41 99.5 106 q31 31 90 103.5 q59 72.5 131 170.5 q-144 -9 -219 -16 q-75 -7 -107 -13 q-32 -6 -49 -12 q-6 23 -20.5 67.5 q-14.5 44.5 -28.5 74.5 q29 6 59.5 41.5 q30.5 35.5 65.5 89.5 q19 26 56 87 q37 61 82.5 145 q45.5 84 90.5 180.5 q45 96.5 80 193.5 l144 -57 q-79 -176 -175 -348 q-96 -172 -196 -310 l311 12 q54 79 105 162.5 q51 83.5 96 167.5 l137 -69 q-130 -219 -283.5 -424 q-153.5 -205 -308.5 -369 ZM113 104 l1816 0 l0 -141 l-1816 0 l0 141 Z" /><glyph glyph-name="" unicode="&#x4e4b;" d="M1206 1391 l-139 -80 q-20 44 -55.5 104 q-35.5 60 -77 123.5 q-41.5 63.5 -80.5 116.5 l131 67 q41 -52 84.5 -113 q43.5 -61 80 -118.5 q36.5 -57.5 56.5 -99.5 ZM1659 1319 l115 -78 q-95 -140 -223 -286 q-128 -146 -277.5 -286 q-149.5 -140 -308.5 -264 q-159 -124 -316 -221 q13 -9 25.5 -18 q12.5 -9 27.5 -19 q97 -61 225 -78.5 q128 -17.5 300 -17.5 q119 0 252 5 q133 5 260 13.5 q127 8.5 225 18.5 q-14 -29 -28.5 -79.5 q-14.5 -50.5 -16.5 -84.5 q-57 -4 -144.5 -8 q-87.5 -4 -187.5 -7 q-100 -3 -196.5 -5 q-96.5 -2 -169.5 -2 q-185 0 -316.5 23 q-131.5 23 -232.5 87 q-63 40 -111 79.5 q-48 39.5 -82 39.5 q-49 0 -117.5 -76.5 q-68.5 -76.5 -140.5 -177.5 l-112 139 q101 111 197.5 184.5 q96.5 73.5 174.5 73.5 q8 0 14.5 -1 q6.5 -1 12.5 -3 q140 81 282 186 q142 105 275.5 224 q133.5 119 248 242 q114.5 123 199.5 239 l-1300 0 l0 148 l1413 0 l33 10 Z" /><glyph glyph-name="" unicode="&#x4e50;" d="M487 571 l148 -49 q-57 -97 -129 -197 q-72 -100 -148 -191.5 q-76 -91.5 -147 -162.5 q-20 20 -59 51 q-39 31 -64 48 q71 63 144.5 145.5 q73.5 82.5 139.5 174 q66 91.5 115 181.5 ZM1888 748 l-745 0 l0 -707 q0 -71 -20.5 -109 q-20.5 -38 -67.5 -55 q-49 -20 -131.5 -25 q-82.5 -5 -214.5 -4 q-7 31 -22 75.5 q-15 44.5 -32 76.5 q97 -3 178 -3.5 q81 -0.5 107 1.5 q26 1 37.5 10 q11.5 9 11.5 35 l0 705 l-479 0 q-101 0 -162.5 -6.5 q-61.5 -6.5 -77.5 -20.5 q-6 24 -22.5 69 q-16.5 45 -28.5 72 q20 8 35 43 q15 35 29 88 q9 33 26 122 q17 89 31.5 206.5 q14.5 117.5 15.5 234.5 q173 5 360 15 q187 10 368 26 q181 16 339.5 39 q158.5 23 274.5 54 l88 -134 q-121 -29 -274 -52.5 q-153 -23.5 -322.5 -40 q-169.5 -16.5 -344 -26.5 q-174.5 -10 -339.5 -14 q-14 -135 -38 -272 q-24 -137 -54 -252 l575 0 l0 408 l154 0 l0 -408 l745 0 l0 -151 ZM1415 508 l131 61 q74 -80 154 -174 q80 -94 149 -184.5 q69 -90.5 111 -159.5 l-141 -74 q-40 70 -107 163 q-67 93 -145 190 q-78 97 -152 178 Z" /><glyph glyph-name="" unicode="&#x2f04;&#x4e59;" d="M612 80 l951 0 q72 0 112.5 33 q40.5 33 58.5 124 q18 91 25 265 q32 -19 77 -34.5 q45 -15.5 79 -23.5 q-14 -211 -51.5 -322.5 q-37.5 -111.5 -112.5 -153.5 q-75 -42 -203 -42 l-919 0 q-223 0 -331 75.5 q-108 75.5 -108 207.5 q0 38 10 80 q10 42 43.5 99.5 q33.5 57.5 104.5 140 q71 82.5 192.5 200.5 q121.5 118 307 280.5 q185.5 162.5 448.5 381.5 l-1093 0 l0 153 l1308 0 l37 10 l107 -75 q-11 -14 -31 -23 q-300 -244 -512.5 -423.5 q-212.5 -179.5 -352 -307 q-139.5 -127.5 -222 -212.5 q-82.5 -85 -122 -140 q-39.5 -55 -51.5 -90 q-12 -35 -12 -62 q0 -74 71 -107.5 q71 -33.5 189 -33.5 Z" /><glyph glyph-name="" unicode="&#x4e92;" d="M608 539 l746 0 q17 119 29.5 231.5 q12.5 112.5 23.5 206.5 l-709 0 q-23 -117 -45.5 -229.5 q-22.5 -112.5 -44.5 -208.5 ZM1444 66 l498 0 l0 -150 l-1827 0 l0 150 l1171 0 q12 76 24.5 159.5 q12.5 83.5 24.5 169.5 l-929 0 q26 101 55.5 229.5 q29.5 128.5 58.5 271 q29 142.5 55.5 284 q26.5 141.5 47.5 268.5 l-441 0 l0 147 l1698 0 l0 -147 l-1096 0 q-12 -78 -27 -160 q-15 -82 -32 -168 l713 0 l28 8 l113 -14 q-10 -104 -25.5 -232.5 q-15.5 -128.5 -34 -269 q-18.5 -140.5 -38 -281 q-19.5 -140.5 -37.5 -265.5 Z" /><glyph glyph-name="" unicode="&#x4ea7;" d="M1841 1466 l0 -145 l-1610 0 l0 145 l766 0 q-21 50 -55 106.5 q-34 56.5 -70 100.5 l150 43 q46 -57 90 -126 q44 -69 64 -120 l-11 -4 l676 0 ZM854 1016 l-139 -62 q-23 60 -72.5 143 q-49.5 83 -99.5 152 l131 54 q52 -65 103 -146 q51 -81 77 -141 ZM1894 948 l0 -147 l-1476 0 l0 -135 q0 -121 -16.5 -270 q-16.5 -149 -62 -298 q-45.5 -149 -132.5 -270 q-20 21 -61 57 q-41 36 -64 49 q80 110 118.5 240 q38.5 130 50 259 q11.5 129 11.5 237 l0 278 l979 0 q43 71 90.5 169 q47.5 98 75.5 175 l164 -53 q-42 -74 -87.5 -150 q-45.5 -76 -88.5 -141 l499 0 Z" /><glyph glyph-name="" unicode="&#x2f08;&#x4eba;" d="M938 1706 l168 0 q-2 -55 -4.5 -130.5 q-2.5 -75.5 -9.5 -166.5 q7 -61 25.5 -166.5 q18.5 -105.5 55 -238.5 q36.5 -133 98 -276.5 q61.5 -143.5 155.5 -283 q94 -139.5 227.5 -258 q133.5 -118.5 314.5 -198.5 q-32 -26 -63 -61.5 q-31 -35.5 -47 -67.5 q-192 90 -332.5 222.5 q-140.5 132.5 -238 287.5 q-97.5 155 -160 314 q-62.5 159 -99.5 302 q-35 -154 -96.5 -312 q-61.5 -158 -157 -309 q-95.5 -151 -233 -282.5 q-137.5 -131.5 -324.5 -231.5 q-20 31 -53.5 63.5 q-33.5 32.5 -69.5 55.5 q213 108 358.5 255.5 q145.5 147.5 237.5 316.5 q92 169 142.5 341.5 q50.5 172.5 72.5 331 q22 158.5 26.5 286.5 q4.5 128 6.5 206 Z" /><glyph glyph-name="" unicode="&#x4ece;" d="M1047 444 l-115 -108 q-48 98 -131.5 231 q-83.5 133 -175.5 256 q-50 -302 -141 -546.5 q-91 -244.5 -246 -430.5 q-20 20 -68.5 53 q-48.5 33 -79.5 52 q168 178 260 434.5 q92 256.5 133 579.5 q41 323 58 700 l164 -6 q-10 -171 -22.5 -330.5 q-12.5 -159.5 -29.5 -306.5 q76 -90 152 -194 q76 -104 139.5 -204.5 q63.5 -100.5 102.5 -179.5 ZM1321 1669 l164 -8 q-12 -183 -28.5 -349.5 q-16.5 -166.5 -41.5 -320.5 q28 -128 72 -268 q44 -140 109 -274.5 q65 -134.5 153.5 -250 q88.5 -115.5 204.5 -194.5 q-23 -21 -57.5 -62.5 q-34.5 -41.5 -53.5 -72.5 q-124 96 -217 230 q-93 134 -159.5 285.5 q-66.5 151.5 -110.5 299.5 q-65 -260 -172.5 -467.5 q-107.5 -207.5 -276.5 -363.5 q-20 20 -68 54 q-48 34 -79 52 q204 170 317.5 420.5 q113.5 250.5 167 574.5 q53.5 324 76.5 715 Z" /><glyph glyph-name="" unicode="&#x4ee5;" d="M1212 1047 l-137 -80 q-28 65 -78 150.5 q-50 85.5 -110 173.5 q-60 88 -119 163 l129 68 q60 -73 121 -158 q61 -85 112.5 -168 q51.5 -83 81.5 -149 ZM496 340 l475 221 q4 -34 16.5 -75.5 q12.5 -41.5 22.5 -67.5 q-222 -106 -355 -171.5 q-133 -65.5 -204.5 -103 q-71.5 -37.5 -104 -58.5 q-32.5 -21 -51.5 -38 q-9 26 -36.5 65 q-27.5 39 -47.5 60 q21 12 50 37.5 q29 25.5 51 62.5 q22 37 22 84 l0 1198 l162 0 l0 -1214 ZM1970 -53 l-131 -99 q-41 66 -107 148.5 q-66 82.5 -145.5 170.5 q-79.5 88 -161.5 169 q-99 -163 -245.5 -287 q-146.5 -124 -354.5 -219 q-15 25 -50.5 66.5 q-35.5 41.5 -61.5 64.5 q245 98 402.5 244 q157.5 146 247.5 349.5 q90 203.5 133 471 q43 267.5 60 606.5 l160 -8 q-21 -364 -69.5 -649.5 q-48.5 -285.5 -149.5 -503.5 q88 -84 178.5 -178 q90.5 -94 168 -184.5 q77.5 -90.5 126.5 -161.5 Z" /><glyph glyph-name="" unicode="&#x4f5c;" d="M588 1706 l145 -47 q-41 -111 -95 -221.5 q-54 -110.5 -114 -216.5 l0 -1375 l-151 0 l0 1139 q-48 -67 -99.5 -128.5 q-51.5 -61.5 -103.5 -115.5 q-7 18 -22.5 47.5 q-15.5 29.5 -33.5 59 q-18 29.5 -32 45.5 q101 98 195.5 228.5 q94.5 130.5 173.5 279.5 q79 149 137 305 ZM1962 1227 l-631 0 l0 -293 l584 0 l0 -141 l-584 0 l0 -310 l613 0 l0 -143 l-613 0 l0 -496 l-153 0 l0 1383 l-142 0 q-135 -252 -291 -426 q-18 20 -55 52 q-37 32 -63 50 q92 95 176 221 q84 126 154 270 q70 144 120 294 l146 -39 q-25 -71 -53.5 -140 q-28.5 -69 -59.5 -137 l852 0 l0 -145 Z" /><glyph glyph-name="" unicode="&#x4f7f;" d="M571 1718 l144 -45 q-43 -107 -97 -215 q-54 -108 -114 -211 l0 -1413 l-146 0 l0 1194 q-53 -75 -110.5 -142 q-57.5 -67 -114.5 -124 q-11 26 -37.5 74.5 q-26.5 48.5 -48.5 72.5 q104 98 201.5 227.5 q97.5 129.5 180.5 278.5 q83 149 142 303 ZM860 715 l363 0 q1 23 1.5 46 q0.5 23 0.5 46 l0 211 l-365 0 l0 -303 ZM1751 1018 l-377 0 l0 -211 q0 -23 0 -46 q0 -23 -2 -46 l379 0 l0 303 ZM1896 586 l-532 0 q-12 -106 -43 -205 q-31 -99 -92 -188 q153 -85 344 -138 q191 -53 409 -80 q-24 -24 -49 -63.5 q-25 -39.5 -41 -73.5 q-216 32 -406.5 93 q-190.5 61 -346.5 155 q-77 -75 -190 -138.5 q-113 -63.5 -273 -111.5 q-12 25 -40 64.5 q-28 39.5 -52 62.5 q150 39 255 90.5 q105 51.5 177 116.5 q-185 138 -297 332 l127 41 q46 -80 111 -148 q65 -68 147 -125 q49 71 74.5 151 q25.5 80 35.5 165 l-495 0 l0 561 l506 0 l0 201 l-566 0 l0 139 l566 0 l0 217 l149 0 l0 -217 l590 0 l0 -139 l-590 0 l0 -201 l522 0 l0 -561 Z" /><glyph glyph-name="" unicode="&#x4fe1;" d="M1389 1448 l-138 -59 q-20 53 -61.5 131 q-41.5 78 -79.5 141 l129 53 q45 -64 86.5 -138 q41.5 -74 63.5 -128 ZM530 1706 l136 -41 q-36 -103 -79.5 -205 q-43.5 -102 -92.5 -198 l0 -1426 l-142 0 l0 1180 q-46 -74 -95.5 -140 q-49.5 -66 -98.5 -124 q-11 24 -37.5 69.5 q-26.5 45.5 -46.5 71.5 q92 99 176.5 229.5 q84.5 130.5 156 279.5 q71.5 149 123.5 304 ZM1659 373 l-768 0 l0 -324 l768 0 l0 324 ZM758 -158 l0 658 l1036 0 l0 -652 l-135 0 l0 74 l-768 0 l0 -80 l-133 0 ZM786 672 l0 125 l988 0 l0 -125 l-988 0 ZM1774 1083 l0 -125 l-988 0 l0 125 l988 0 ZM639 1376 l1296 0 l0 -129 l-1296 0 l0 129 Z" /><glyph glyph-name="" unicode="&#x5076;" d="M547 1706 l141 -43 q-43 -117 -96 -233 q-53 -116 -113 -224 l0 -1366 l-145 0 l0 1133 q-86 -125 -180 -230 q-13 28 -40.5 76 q-27.5 48 -45.5 74 q95 99 183.5 229.5 q88.5 130.5 164.5 279.5 q76 149 131 304 ZM903 981 l316 0 l0 201 l-316 0 l0 -201 ZM903 1495 l0 -199 l316 0 l0 199 l-316 0 ZM1683 1296 l0 199 l-329 0 l0 -199 l329 0 ZM1683 981 l0 201 l-329 0 l0 -201 l329 0 ZM1915 700 l0 -698 q0 -60 -15.5 -91 q-15.5 -31 -60.5 -48 q-46 -17 -123.5 -20.5 q-77.5 -3.5 -193.5 -2.5 q-5 29 -17.5 65.5 q-12.5 36.5 -25.5 63.5 q89 -4 160.5 -3.5 q71.5 0.5 93.5 1.5 q23 2 32 9 q9 7 9 28 l0 565 l-420 0 l0 -258 l192 17 q-18 38 -36.5 72.5 q-18.5 34.5 -36.5 68.5 l92 35 q58 -94 110 -203.5 q52 -109.5 72 -187.5 l-98 -39 q-8 30 -21.5 66 q-13.5 36 -30.5 77 q-185 -21 -366.5 -42 q-181.5 -21 -327.5 -38 l-29 133 q73 6 160.5 13.5 q87.5 7.5 184.5 15.5 l0 270 l-410 0 l0 -727 l-145 0 l0 858 l555 0 l0 160 l-459 0 l0 756 l1071 0 l0 -756 l-477 0 l0 -160 l561 0 Z" /><glyph glyph-name="" unicode="&#x50cf;" d="M543 1706 l143 -45 q-43 -117 -96 -233 q-53 -116 -113 -224 l0 -1356 l-145 0 l0 1121 q-42 -62 -87 -119 q-45 -57 -89 -107 q-13 28 -40.5 76 q-27.5 48 -45.5 74 q94 99 181.5 229.5 q87.5 130.5 162 279.5 q74.5 149 129.5 304 ZM872 1165 l0 -204 l281 0 q37 55 55.5 108 q18.5 53 24.5 96 l-361 0 ZM1364 1448 l-369 0 q-30 -42 -63 -84 q-33 -42 -72 -82 l381 0 q32 34 63.5 78.5 q31.5 44.5 59.5 87.5 ZM1692 961 l0 204 l-334 0 q-3 -44 -16.5 -96.5 q-13.5 -52.5 -41.5 -107.5 l392 0 ZM1753 756 l102 -94 q-52 -34 -109.5 -66.5 q-57.5 -32.5 -117.5 -65.5 q51 -147 142 -270 q91 -123 210 -186 q-26 -20 -54.5 -53.5 q-28.5 -33.5 -45.5 -61.5 q-123 77 -216 214.5 q-93 137.5 -146 303.5 q-52 -25 -101 -47 q35 -107 38.5 -210 q3.5 -103 -19 -183.5 q-22.5 -80.5 -66.5 -122.5 q-38 -41 -79.5 -55.5 q-41.5 -14.5 -98.5 -14.5 q-26 0 -58.5 0.5 q-32.5 0.5 -66.5 3.5 q-2 28 -11 66 q-9 38 -26 66 q40 -5 74 -7 q34 -2 61 -2 q29 0 54 6.5 q25 6.5 47 32.5 q32 32 46.5 109 q14.5 77 0.5 174 q-88 -80 -198 -152 q-110 -72 -227 -129.5 q-117 -57.5 -226 -95.5 q-16 25 -41 56.5 q-25 31.5 -48 50.5 q126 37 259.5 98.5 q133.5 61.5 252.5 138 q119 76.5 201 158.5 q-9 29 -21.5 58.5 q-12.5 29.5 -27.5 55.5 q-75 -62 -171.5 -123 q-96.5 -61 -197.5 -112 q-101 -51 -190 -84 q-15 23 -40.5 52 q-25.5 29 -43.5 46 q99 30 209 79 q110 49 210 109 q100 60 169 122 q-36 50 -86 94 q-76 -56 -178.5 -108.5 q-102.5 -52.5 -239.5 -96.5 q-12 20 -37.5 48 q-25.5 28 -46.5 46 q161 52 273.5 113.5 q112.5 61.5 183.5 126.5 l-316 0 l0 315 q-49 -47 -108 -90 q-16 25 -45 53 q-29 28 -54 43 q169 119 288 268.5 q119 149.5 183 278.5 l144 -26 q-16 -30 -33.5 -59.5 q-17.5 -29.5 -34.5 -59.5 l371 0 l27 8 l90 -66 q-34 -56 -77 -115.5 q-43 -59.5 -87 -111.5 l434 0 l0 -438 l-606 0 q-11 -14 -23 -26.5 q-12 -12.5 -22 -24.5 q66 -56 115.5 -122 q49.5 -66 82.5 -139 q96 50 198.5 111.5 q102.5 61.5 174.5 112.5 Z" /><glyph glyph-name="" unicode="&#x2f0a;&#x5165;" d="M608 1538 l92 131 q163 -116 274 -253.5 q111 -137.5 193 -286.5 q82 -149 155.5 -300 q73.5 -151 158 -295 q84.5 -144 200.5 -272 q116 -128 285 -229 q-21 -29 -44.5 -81.5 q-23.5 -52.5 -31.5 -86.5 q-175 97 -296.5 229.5 q-121.5 132.5 -210.5 285 q-89 152.5 -165.5 312.5 q-76.5 160 -160.5 314 q-117 -400 -318 -684 q-201 -284 -510 -465 q-20 24 -63 62.5 q-43 38.5 -74 60.5 q343 176 543.5 484.5 q200.5 308.5 298.5 741.5 q-66 94 -146 178.5 q-80 84.5 -180 153.5 Z" /><glyph glyph-name="" unicode="&#x5185;" d="M1843 1364 l0 -1319 q0 -74 -20 -114 q-20 -40 -72 -58 q-54 -20 -149 -23.5 q-95 -3.5 -232 -3.5 q-4 31 -19 77 q-15 46 -32 77 q107 -5 200 -5.5 q93 -0.5 126 1.5 q27 1 38 12 q11 11 11 39 l0 1167 l-594 0 q-3 -63 -11.5 -130 q-8.5 -67 -25.5 -136 q101 -89 211 -192.5 q110 -103.5 207 -202 q97 -98.5 159 -174.5 l-124 -98 q-53 68 -133.5 156 q-80.5 88 -175.5 183 q-95 95 -189 183 q-57 -148 -174.5 -288 q-117.5 -140 -323.5 -261 q-17 25 -49.5 60 q-32.5 35 -58.5 55 q169 89 273 194.5 q104 105.5 159.5 217.5 q55.5 112 77.5 222.5 q22 110.5 26 210.5 l-590 0 l0 -1374 l-149 0 l0 1524 l741 0 l0 350 l152 0 l0 -350 l741 0 Z" /><glyph glyph-name="" unicode="&#x518c;" d="M1262 907 l325 0 l0 531 l-325 0 l0 -488 l0 -43 ZM467 907 l287 0 l0 531 l-287 0 l0 -486 l0 -45 ZM1956 907 l0 -147 l-219 0 l0 -731 q0 -66 -17.5 -102 q-17.5 -36 -58.5 -56 q-42 -18 -113.5 -23.5 q-71.5 -5.5 -183.5 -5.5 q-6 31 -20.5 74 q-14.5 43 -28.5 72 q80 -3 145.5 -3.5 q65.5 -0.5 85.5 1.5 q41 2 41 43 l0 731 l-330 0 q-6 -152 -29 -316.5 q-23 -164.5 -72 -321 q-49 -156.5 -134 -284.5 q-17 23 -54.5 57 q-37.5 34 -60.5 48 q76 117 118.5 255.5 q42.5 138.5 61 282.5 q18.5 144 23.5 279 l-209 0 l0 -723 q0 -63 -17 -98 q-17 -35 -57 -54 q-43 -18 -111.5 -22 q-68.5 -4 -174.5 -4 q-5 29 -20.5 69 q-15.5 40 -28.5 68 q75 -2 138 -2 q63 0 85 2 q39 0 39 41 l0 723 l-291 0 q-7 -153 -33 -318.5 q-26 -165.5 -80.5 -323.5 q-54.5 -158 -148.5 -288 q-17 25 -52.5 59.5 q-35.5 34.5 -58.5 47.5 q85 118 132 257.5 q47 139.5 68 284.5 q21 145 27 281 l-225 0 l0 147 l230 0 l0 45 l0 627 l579 0 l0 -672 l213 0 l0 43 l0 629 l623 0 l0 -672 l219 0 Z" /><glyph glyph-name="" unicode="&#x51b5;" d="M608 1257 l-112 -112 q-33 51 -89.5 113.5 q-56.5 62.5 -123 125.5 q-66.5 63 -129.5 115 l104 98 q64 -49 131.5 -109 q67.5 -60 125.5 -120 q58 -60 93 -111 ZM494 850 l102 -102 q-56 -109 -122 -227.5 q-66 -118.5 -134.5 -233 q-68.5 -114.5 -130.5 -209.5 l-119 108 q56 80 127 191 q71 111 143 234 q72 123 134 239 ZM899 1470 l0 -550 l776 0 l0 550 l-776 0 ZM1593 10 l176 0 q28 0 42.5 23 q14.5 23 20.5 91.5 q6 68.5 9 203.5 q25 -20 65 -37 q40 -17 70 -25 q-8 -154 -26.5 -239 q-18.5 -85 -58 -118.5 q-39.5 -33.5 -109.5 -33.5 l-207 0 q-117 0 -156 43.5 q-39 43.5 -39 161.5 l0 694 l-239 0 q-10 -173 -36.5 -317 q-26.5 -144 -84.5 -259.5 q-58 -115.5 -160.5 -203.5 q-102.5 -88 -265.5 -150 q-12 26 -39 62.5 q-27 36.5 -53 56.5 q149 53 241 129 q92 76 142.5 176 q50.5 100 72 226.5 q21.5 126.5 29.5 279.5 l-233 0 l0 842 l1077 0 l0 -842 l-303 0 l0 -692 q0 -45 12.5 -58.5 q12.5 -13.5 52.5 -13.5 Z" /><glyph glyph-name="" unicode="&#x52a8;" d="M977 1546 l0 -137 l-787 0 l0 137 l787 0 ZM1049 180 l-136 -43 q-7 28 -16.5 62.5 q-9.5 34.5 -19.5 72.5 q-212 -47 -340.5 -77 q-128.5 -30 -197.5 -48.5 q-69 -18.5 -100 -30 q-31 -11.5 -49 -22.5 l0 8 q-2 -2 -2 -6 q-4 23 -19 67.5 q-15 44.5 -28 74.5 q25 6 46.5 44 q21.5 38 45.5 95 q15 34 44.5 117.5 q29.5 83.5 63 196 q33.5 112.5 58.5 231.5 l-282 0 l0 139 l895 0 l0 -139 l-455 0 q-40 -162 -94.5 -324.5 q-54.5 -162.5 -114.5 -300.5 l486 102 q-28 79 -58.5 159 q-30.5 80 -60.5 153 l127 34 q39 -91 79 -194.5 q40 -103.5 74 -201 q34 -97.5 54 -169.5 ZM1479 1243 l450 0 q0 0 -1 -30 q-1 -30 -1 -46 q-10 -314 -20.5 -531.5 q-10.5 -217.5 -24 -357 q-13.5 -139.5 -32 -216.5 q-18.5 -77 -44.5 -111 q-32 -40 -65 -56 q-33 -16 -82 -22 q-48 -5 -124.5 -4 q-76.5 1 -158.5 6 q-3 34 -15 75.5 q-12 41.5 -32 74.5 q86 -8 159.5 -9.5 q73.5 -1.5 106.5 -1.5 q27 -1 45 5 q18 6 33 26 q27 30 46 139.5 q19 109.5 33 330 q14 220.5 26 583.5 l-305 0 q-15 -252 -55 -484.5 q-40 -232.5 -125 -429 q-85 -196.5 -234 -340.5 q-20 28 -55 61 q-35 33 -64 50 q138 127 217 305 q79 178 116.5 391.5 q37.5 213.5 49.5 446.5 l-285 0 l0 145 l291 0 q5 108 5.5 217.5 q0.5 109.5 0.5 218.5 l150 0 q0 -221 -6 -436 Z" /><glyph glyph-name="" unicode="&#x2f17;&#x5341;" d="M1944 952 l0 -155 l-836 0 l0 -953 l-162 0 l0 953 l-825 0 l0 155 l825 0 l0 758 l162 0 l0 -758 l836 0 Z" /><glyph glyph-name="" unicode="&#x5360;" d="M1571 119 l0 520 l-1098 0 l0 -520 l1098 0 ZM1886 1188 l-819 0 l0 -406 l657 0 l0 -927 l-153 0 l0 118 l-1098 0 l0 -129 l-149 0 l0 938 l589 0 l0 930 l154 0 l0 -381 l819 0 l0 -143 Z" /><glyph glyph-name="" unicode="&#x53d1;" d="M1757 1395 l-123 -84 q-27 39 -71 91 q-44 52 -93.5 107.5 q-49.5 55.5 -93.5 102.5 l117 74 q44 -46 94.5 -99.5 q50.5 -53.5 96 -104 q45.5 -50.5 73.5 -87.5 ZM1518 739 l-641 0 q118 -246 327 -422 q99 86 178.5 192 q79.5 106 135.5 230 ZM1620 895 l102 -51 q-63 -194 -164 -347 q-101 -153 -233 -272 q271 -184 643 -254 q-24 -23 -51.5 -63 q-27.5 -40 -42.5 -72 q-391 86 -666 293 q-141 -101 -300.5 -173 q-159.5 -72 -329.5 -118 q-13 29 -36.5 68 q-23.5 39 -43.5 63 q158 37 308.5 101.5 q150.5 64.5 280.5 156.5 q-183 171 -305 400 q-106 -189 -253 -345.5 q-147 -156.5 -345 -279.5 q-17 26 -51 61.5 q-34 35.5 -61 55.5 q279 170 455 418.5 q176 248.5 278 566.5 l-285 0 q-188 0 -217 -35 q-8 25 -23.5 71 q-15.5 46 -27.5 72 q38 11 74 82 q12 21 37.5 77.5 q25.5 56.5 53 132 q27.5 75.5 46.5 153.5 l160 -31 q-27 -98 -67.5 -196.5 q-40.5 -98.5 -80.5 -178.5 l369 0 q58 222 86 469 l170 -24 q-17 -119 -37.5 -229.5 q-20.5 -110.5 -44.5 -215.5 l883 0 l-3 -147 l-921 0 q-17 -55 -35 -110 q-18 -55 -37 -107 l686 0 l29 8 Z" /><glyph glyph-name="" unicode="&#x2f1d;&#x53e3;" d="M422 221 l1204 0 l0 1129 l-1204 0 l0 -1129 ZM268 1501 l1520 0 l0 -1597 l-162 0 l0 164 l-1204 0 l0 -174 l-154 0 l0 1607 Z" /><glyph glyph-name="" unicode="&#x53f7;" d="M1505 1219 l0 274 l-970 0 l0 -274 l970 0 ZM1663 1630 l0 -547 l-1278 0 l0 547 l1278 0 ZM1905 760 l-1182 0 q-17 -57 -36 -114.5 q-19 -57.5 -38 -110.5 l1014 0 q0 0 -2 -27.5 q-2 -27.5 -6 -44.5 q-36 -255 -76.5 -382.5 q-40.5 -127.5 -95.5 -174.5 q-36 -32 -77 -44.5 q-41 -12.5 -99 -15.5 q-51 -1 -145.5 0.5 q-94.5 1.5 -198.5 8.5 q-4 33 -18 73.5 q-14 40.5 -36 71.5 q109 -11 207.5 -13.5 q98.5 -2.5 143.5 -2.5 q35 0 57 3 q22 3 39 17 q38 29 69.5 120 q31.5 91 59.5 269 l-971 0 l0 2 l-92 0 q32 74 67.5 172.5 q35.5 98.5 67.5 192.5 l-422 0 l0 139 l1770 0 l0 -139 Z" /><glyph glyph-name="" unicode="&#x5404;" d="M1466 430 l-895 0 l0 -364 l895 0 l0 364 ZM420 -166 l0 737 l1204 0 l0 -731 l-158 0 l0 88 l-895 0 l0 -94 l-151 0 ZM676 1364 l-17 -18 q74 -86 169.5 -165.5 q95.5 -79.5 205.5 -148.5 q117 72 219 156 q102 84 179 176 l-756 0 ZM1571 1507 l104 -71 q-89 -142 -217 -263.5 q-128 -121.5 -280 -224.5 q178 -97 382 -170 q204 -73 416 -114 q-26 -27 -53.5 -68 q-27.5 -41 -44.5 -72 q-454 104 -842 338 q-212 -120 -443 -207 q-231 -87 -452 -139 q-9 31 -31 72 q-22 41 -42 65 q202 43 417.5 119 q215.5 76 413.5 180 q-95 68 -180 142 q-85 74 -156 155 q-160 -151 -325 -252 q-19 22 -55 57.5 q-36 35.5 -62 55.5 q128 70 249 166.5 q121 96.5 223.5 212.5 q102.5 116 174.5 242 l145 -52 q-27 -46 -58 -91.5 q-31 -45.5 -64 -88.5 l753 0 l27 8 Z" /><glyph glyph-name="" unicode="&#x5408;" d="M1509 526 l-950 0 l0 -424 l950 0 l0 424 ZM406 -154 l0 816 l1261 0 l0 -807 l-158 0 l0 106 l-950 0 l0 -115 l-153 0 ZM567 1049 l967 0 q-135 83 -259 181.5 q-124 98.5 -239 221.5 q-100 -115 -219 -216 q-119 -101 -250 -187 ZM1057 1718 l133 -65 q-15 -25 -32 -47 q-17 -22 -34 -45 q180 -191 393 -324 q213 -133 457 -236 q-29 -24 -58 -62.5 q-29 -38.5 -46 -74.5 q-88 43 -171 87.5 q-83 44.5 -161 95.5 l0 -140 l-1026 0 l0 105 q-77 -46 -155 -88.5 q-78 -42.5 -158 -77.5 q-20 31 -49.5 69 q-29.5 38 -61.5 64 q194 77 377 189.5 q183 112.5 335.5 252.5 q152.5 140 256.5 297 Z" /><glyph glyph-name="" unicode="&#x5468;" d="M543 936 l413 0 l0 197 l-362 0 l0 122 l362 0 l0 177 l146 0 l0 -177 l385 0 l0 -122 l-385 0 l0 -197 l436 0 l0 -127 l-995 0 l0 127 ZM1290 516 l-508 0 l0 -291 l508 0 l0 291 ZM1434 104 l-652 0 l0 -114 l-139 0 l0 647 l791 0 l0 -533 ZM1796 1616 l0 -1579 q0 -74 -21 -110 q-21 -36 -69 -56 q-48 -18 -133 -22.5 q-85 -4.5 -221 -4.5 q-5 31 -20.5 73 q-15.5 42 -31.5 71 q99 -3 183 -2.5 q84 0.5 110 2.5 q30 0 41 10.5 q11 10.5 11 38.5 l0 1436 l-1186 0 l0 -515 q0 -126 -9.5 -273 q-9.5 -147 -36.5 -298.5 q-27 -151.5 -79.5 -294.5 q-52.5 -143 -138.5 -262 q-19 23 -57 54.5 q-38 31.5 -64 43.5 q80 112 127.5 242 q47.5 130 70.5 266.5 q23 136.5 30 270 q7 133.5 7 251.5 l0 658 l1487 0 Z" /><glyph glyph-name="" unicode="&#x5531;" d="M1657 1317 l0 190 l-641 0 l0 -190 l641 0 ZM1657 1006 l0 194 l-641 0 l0 -194 l641 0 ZM1808 1630 l0 -747 l-940 0 l0 747 l940 0 ZM549 1378 l-240 0 l0 -854 l240 0 l0 854 ZM690 1520 l0 -1137 l-381 0 l0 -195 l-141 0 l0 1332 l522 0 ZM954 57 l772 0 l0 217 l-772 0 l0 -217 ZM1726 608 l-772 0 l0 -205 l772 0 l0 205 ZM805 739 l1075 0 l0 -884 l-154 0 l0 69 l-772 0 l0 -80 l-149 0 l0 895 Z" /><glyph glyph-name="" unicode="&#x5546;" d="M813 903 l111 -51 q-80 -92 -190.5 -187 q-110.5 -95 -207.5 -161 q-9 20 -30.5 59.5 q-21.5 39.5 -38.5 59.5 q90 58 187.5 132 q97.5 74 168.5 148 ZM1266 455 l-488 0 l0 -238 l488 0 l0 238 ZM1393 104 l-615 0 l0 -94 l-133 0 l0 559 l748 0 l0 -465 ZM1634 618 l-90 -106 q-44 43 -112 98 q-68 55 -144 112 q-76 57 -143 105 l86 91 q66 -46 142.5 -100 q76.5 -54 145.5 -107 q69 -53 115 -93 ZM1806 1067 l0 -1055 q0 -60 -17.5 -90 q-17.5 -30 -62.5 -47 q-46 -14 -126.5 -17 q-80.5 -3 -210.5 -3 q-7 27 -19.5 59.5 q-12.5 32.5 -28.5 56.5 q96 -3 175 -2 q79 1 104 2 q25 2 35 10.5 q10 8.5 10 32.5 l0 926 l-1270 0 l0 -1094 l-145 0 l0 1221 l944 0 q41 63 83 140 q42 77 69 139 l161 -35 q-38 -63 -77.5 -126.5 q-39.5 -63.5 -79.5 -117.5 l456 0 ZM565 1313 l137 45 q33 -52 71.5 -117.5 q38.5 -65.5 57.5 -110.5 l-139 -55 q-20 45 -56.5 113 q-36.5 68 -70.5 125 ZM1149 1493 l770 0 l0 -131 l-1786 0 l0 131 l850 0 q-17 46 -37.5 96.5 q-20.5 50.5 -42.5 91.5 l148 39 q26 -53 53.5 -114.5 q27.5 -61.5 44.5 -112.5 Z" /><glyph glyph-name="" unicode="&#x573a;" d="M1100 1055 l819 0 q0 0 -1.5 -29 q-1.5 -29 -4.5 -43 q-16 -269 -32 -455.5 q-16 -186.5 -34.5 -307 q-18.5 -120.5 -40.5 -189 q-22 -68.5 -49 -101.5 q-29 -35 -60.5 -49.5 q-31.5 -14.5 -76.5 -17.5 q-37 -5 -95 -5 q-58 0 -124 3 q-2 32 -12 73 q-10 41 -27 72 q63 -6 115 -8 q52 -2 79 -2 q25 0 40.5 5.5 q15.5 5.5 29.5 25.5 q28 27 51.5 122 q23.5 95 44 279.5 q20.5 184.5 39.5 482.5 l-139 0 q-209 -719 -729 -1067 q-19 19 -55 47 q-36 28 -62 41 q260 154 434.5 403 q174.5 249 270.5 576 l-172 0 q-69 -196 -188.5 -354 q-119.5 -158 -266.5 -264 q-14 17 -48 42 q-34 25 -58 42 l4 -17 q-162 -64 -325.5 -129.5 q-163.5 -65.5 -297.5 -115.5 l-49 153 q57 19 128 43 q71 24 150 54 l0 708 l-247 0 l0 144 l247 0 l0 473 l144 0 l0 -473 l223 0 l0 -144 l-223 0 l0 -657 l219 82 l27 -117 q138 91 245 227 q107 136 170 303 l-143 0 q-71 0 -118.5 -6 q-47.5 -6 -59.5 -18 q-8 24 -28 69.5 q-20 45.5 -36 73.5 q39 6 92 34 q53 28 113 66 q34 22 105 72 q71 50 160 120 q89 70 177 151 l-657 0 l0 145 l821 0 l29 12 l115 -86 q-163 -147 -323 -270 q-160 -123 -310 -219 Z" /><glyph glyph-name="" unicode="&#x585e;" d="M307 1419 l0 -211 l-149 0 l0 344 l821 0 q-18 37 -38.5 73 q-20.5 36 -39.5 69 l158 30 q26 -36 54 -84 q28 -48 48 -88 l731 0 l0 -344 l-151 0 l0 211 l-1434 0 ZM1098 219 l0 -199 l733 0 l0 -126 l-1600 0 l0 126 l721 0 l0 199 l-399 0 l0 123 l399 0 l0 170 l146 0 l0 -170 l407 0 l0 -123 l-407 0 ZM807 856 l0 -149 l442 0 l0 149 l-442 0 ZM807 1110 l0 -141 l442 0 l0 141 l-442 0 ZM1927 578 l-489 0 q96 -99 238.5 -177.5 q142.5 -78.5 289.5 -119.5 q-24 -22 -54 -58 q-30 -36 -48 -65 q-113 39 -224.5 103 q-111.5 64 -209 145 q-97.5 81 -166.5 172 l-478 0 q-68 -93 -165 -176.5 q-97 -83.5 -208 -150.5 q-111 -67 -223 -108 q-16 28 -45.5 63 q-29.5 35 -52.5 56 q143 45 285.5 129 q142.5 84 238.5 187 l-487 0 l0 129 l533 0 l0 149 l-302 0 l0 113 l302 0 l0 141 l-332 0 l0 117 l332 0 l0 123 l145 0 l0 -123 l442 0 l0 123 l148 0 l0 -123 l315 0 l0 -117 l-315 0 l0 -141 l286 0 l0 -113 l-286 0 l0 -149 l530 0 l0 -129 Z" /><glyph glyph-name="" unicode="&#x58ec;" d="M1939 713 l-841 0 l0 -652 l723 0 l0 -149 l-1571 0 l0 149 l690 0 l0 652 l-829 0 l0 149 l829 0 l0 516 q-170 -26 -345 -47 q-175 -21 -341 -37 q-5 31 -19 71.5 q-14 40.5 -26 68.5 q190 18 389.5 43.5 q199.5 25.5 390 57.5 q190.5 32 355 69.5 q164.5 37.5 284.5 81.5 l131 -127 q-138 -47 -306.5 -85.5 q-168.5 -38.5 -354.5 -70.5 l0 -541 l841 0 l0 -149 Z" /><glyph glyph-name="" unicode="&#x2f24;&#x5927;" d="M1923 973 l-772 0 q72 -225 184.5 -418.5 q112.5 -193.5 267.5 -338.5 q155 -145 353 -226 q-28 -26 -61.5 -68 q-33.5 -42 -53.5 -76 q-295 140 -494.5 402.5 q-199.5 262.5 -320.5 611.5 q-49 -196 -145.5 -386 q-96.5 -190 -259.5 -352 q-163 -162 -412 -276 q-17 31 -50 66.5 q-33 35.5 -65 58.5 q254 111 414.5 271.5 q160.5 160.5 250.5 348.5 q90 188 132 382 l-756 0 l0 155 l780 0 q23 162 26.5 311.5 q3.5 149.5 4.5 270.5 l164 0 q-2 -123 -6.5 -271.5 q-4.5 -148.5 -26.5 -310.5 l846 0 l0 -155 Z" /><glyph glyph-name="" unicode="&#x5bb9;" d="M324 1386 l0 -229 l-148 0 l0 369 l795 0 q-17 40 -39 84.5 q-22 44.5 -43 81.5 l155 37 q28 -47 57 -102 q29 -55 48 -101 l723 0 l0 -369 l-154 0 l0 229 l-1394 0 ZM1200 1204 l100 86 q94 -55 196.5 -125 q102.5 -70 193 -141 q90.5 -71 147.5 -129 l-108 -100 q-56 58 -144 131 q-88 73 -189.5 146.5 q-101.5 73.5 -195.5 131.5 ZM682 1292 l141 -49 q-101 -132 -244.5 -252.5 q-143.5 -120.5 -283.5 -199.5 q-17 21 -49.5 58.5 q-32.5 37.5 -57.5 55.5 q137 71 271 172.5 q134 101.5 223 214.5 ZM612 526 l858 0 q-121 76 -231 166.5 q-110 90.5 -211 202.5 q-87 -103 -193 -196 q-106 -93 -223 -173 ZM602 47 l840 0 l0 342 l-840 0 l0 -342 ZM1014 1112 l133 -57 q-9 -14 -18.5 -28 q-9.5 -14 -20.5 -28 q174 -196 388 -325 q214 -129 460 -225 q-26 -25 -54 -60.5 q-28 -35.5 -44 -69.5 q-68 33 -134 65 q-66 32 -129 69 l0 -605 l-153 0 l0 62 l-840 0 l0 -70 l-147 0 l0 588 q-136 -79 -275 -133 q-17 28 -43.5 62.5 q-26.5 34.5 -52.5 60.5 q187 69 363.5 174.5 q176.5 105.5 322.5 237.5 q146 132 244 282 Z" /><glyph glyph-name="" unicode="&#x5bc6;" d="M313 1401 l0 -260 l-149 0 l0 397 l794 0 q-9 42 -22 88 q-13 46 -29 84 l144 25 q18 -46 36 -99 q18 -53 29 -98 l772 0 l0 -397 l-153 0 l0 260 l-1422 0 ZM1155 1157 l-80 -98 q-37 36 -95.5 77 q-58.5 41 -126 79.5 q-67.5 38.5 -130.5 68.5 l80 88 q61 -27 128.5 -64 q67.5 -37 126.5 -76.5 q59 -39.5 97 -74.5 ZM377 1130 l125 -55 q-49 -97 -117.5 -203 q-68.5 -106 -157.5 -180 l-123 74 q90 69 160.5 170.5 q70.5 101.5 112.5 193.5 ZM1327 580 l-432 0 q-94 0 -150 11 q-56 11 -83 42 q-120 -51 -242.5 -94 q-122.5 -43 -245.5 -78 q-14 24 -41.5 64 q-27.5 40 -48.5 63 q138 35 274.5 78.5 q136.5 43.5 264.5 97.5 l0 6 l0 393 l137 0 l0 -338 q196 96 363 214.5 q167 118.5 284 263.5 l129 -64 q-134 -163 -318 -295 q-184 -132 -395 -235 q16 -3 36 -3.5 q20 -0.5 44 -0.5 l414 0 q49 0 74 15 q25 15 35.5 64 q10.5 49 15.5 148 q24 -19 61 -33 q37 -14 66 -20 q-10 -120 -32.5 -185 q-22.5 -65 -71.5 -89.5 q-49 -24.5 -138 -24.5 ZM1577 80 l0 342 l149 0 l0 -576 l-149 0 l0 88 l-1241 0 l0 472 l149 0 l0 -326 l459 0 l0 434 l152 0 l0 -434 l481 0 ZM1493 1044 l109 76 q63 -55 130.5 -121.5 q67.5 -66.5 125 -132.5 q57.5 -66 92.5 -121 l-117 -83 q-32 54 -88 121.5 q-56 67.5 -122.5 136 q-66.5 68.5 -129.5 124.5 Z" /><glyph glyph-name="" unicode="&#x5c5e;" d="M1659 1503 l-1217 0 l0 -182 l1217 0 l0 182 ZM1808 1198 l-1366 0 l0 -170 q0 -129 -8 -280.5 q-8 -151.5 -32 -309.5 q-24 -158 -71.5 -307.5 q-47.5 -149.5 -125.5 -273.5 q-20 17 -61 40.5 q-41 23.5 -70 32.5 q75 121 119 261.5 q44 140.5 65.5 287 q21.5 146.5 28 287.5 q6.5 141 6.5 262 l0 596 l1515 0 l0 -426 ZM739 633 l359 0 l0 147 l-359 0 l0 -147 ZM1608 780 l-369 0 l0 -147 l369 0 l0 147 ZM1841 420 l0 -440 q0 -50 -12.5 -75.5 q-12.5 -25.5 -52.5 -39.5 q-36 -16 -99 -18.5 q-63 -2.5 -159 -2.5 q-5 26 -17 55 q-12 29 -24 54 q67 -3 120 -3.5 q53 -0.5 70 1.5 q20 1 26.5 7 q6.5 6 6.5 22 l0 331 l-461 0 l0 -157 l186 6 q-15 24 -30 47 q-15 23 -29 43 l90 29 q51 -67 103 -147 q52 -80 79 -134 l-94 -37 q-11 20 -24.5 44.5 q-13.5 24.5 -30.5 51.5 q-203 -9 -396.5 -18.5 q-193.5 -9.5 -342.5 -15.5 l-9 114 q74 2 165.5 4.5 q91.5 2.5 191.5 5.5 l0 164 l-439 0 l0 -471 l-141 0 l0 580 l580 0 l0 117 l-498 0 l0 340 l498 0 l0 110 q-128 -8 -257.5 -12 q-129.5 -4 -250.5 -4 q-3 21 -12.5 50 q-9.5 29 -18.5 50 q139 2 288.5 8.5 q149.5 6.5 294 16 q144.5 9.5 270 23 q125.5 13.5 216.5 30.5 l92 -92 q-100 -19 -223 -34 q-123 -15 -258 -26 l0 -120 l512 0 l0 -340 l-512 0 l0 -117 l602 0 Z" /><glyph glyph-name="" unicode="&#x2f30;&#x5df1;" d="M741 37 l783 0 q81 0 131 14.5 q50 14.5 77.5 54 q27.5 39.5 41.5 113 q14 73.5 24 191.5 q32 -20 75.5 -38 q43.5 -18 76.5 -24 q-13 -136 -35.5 -225.5 q-22.5 -89.5 -68 -141 q-45.5 -51.5 -123.5 -73 q-78 -21.5 -201 -21.5 l-772 0 q-163 0 -257 22.5 q-94 22.5 -134 83.5 q-40 61 -40 177 l0 760 l1217 0 l0 510 l-1243 0 l0 153 l1399 0 l0 -942 l-156 0 l0 129 l-1063 0 l0 -610 q0 -54 21 -83 q21 -29 79 -39.5 q58 -10.5 168 -10.5 Z" /><glyph glyph-name="" unicode="&#x5e02;" d="M1939 1266 l-845 0 l0 -277 l663 0 l0 -717 q0 -66 -18.5 -102.5 q-18.5 -36.5 -67.5 -56.5 q-52 -19 -140 -23 q-88 -4 -218 -4 q-5 35 -21.5 77 q-16.5 42 -31.5 75 q104 -4 187 -4.5 q83 -0.5 109 -0.5 q28 4 38 12 q10 8 10 29 l0 566 l-510 0 l0 -994 l-154 0 l0 994 l-479 0 l0 -760 l-152 0 l0 909 l631 0 l0 277 l-829 0 l0 149 l872 0 q-25 60 -62.5 133.5 q-37.5 73.5 -72.5 134.5 l145 46 q46 -71 92.5 -157.5 q46.5 -86.5 67.5 -146.5 l-27 -10 l813 0 l0 -149 Z" /><glyph glyph-name="" unicode="&#x5e03;" d="M1921 1253 l-1108 0 q-94 -199 -215 -372 l446 0 l0 274 l152 0 l0 -274 l612 0 l0 -656 q0 -61 -17 -95.5 q-17 -34.5 -65 -51.5 q-46 -19 -130 -22.5 q-84 -3.5 -216 -2.5 q-4 31 -18.5 69 q-14.5 38 -30.5 68 q99 -3 178.5 -2.5 q79.5 0.5 102.5 0.5 q26 2 35.5 10 q9.5 8 9.5 29 l0 510 l-461 0 l0 -897 l-152 0 l0 897 l-434 0 l0 -706 l-151 0 l0 671 q-66 -75 -140 -142 q-74 -67 -157 -124 q-16 28 -41.5 65.5 q-25.5 37.5 -48.5 61.5 q186 126 328 307 q142 181 245 383 l-514 0 l0 148 l580 0 q33 78 60 156.5 q27 78.5 48 156.5 l158 -37 q-22 -69 -47 -138 q-25 -69 -51 -138 l1042 0 l0 -148 Z" /><glyph glyph-name="" unicode="&#x5e9a;" d="M414 1372 l0 -418 q0 -122 -7 -266 q-7 -144 -27.5 -295.5 q-20.5 -151.5 -60.5 -295.5 q-40 -144 -106 -265 q-22 18 -64 38.5 q-42 20.5 -71 31.5 q64 116 101 251 q37 135 55.5 275.5 q18.5 140.5 24 275 q5.5 134.5 5.5 248.5 l0 557 l774 0 q-35 87 -82 170 l156 45 q26 -47 57 -106 q31 -59 54 -109 l714 0 l0 -137 l-1523 0 ZM1206 541 l434 0 l0 204 l-428 0 l0 -61 q0 -73 -6 -143 ZM1212 1063 l0 -186 l428 0 l0 186 l-428 0 ZM1788 745 l0 -329 l-528 0 q82 -188 253 -296.5 q171 -108.5 437 -150.5 q-23 -23 -51 -61.5 q-28 -38.5 -41 -69.5 q-262 51 -434 169 q-172 118 -269 315 q-39 -98 -117 -186.5 q-78 -88.5 -209.5 -163 q-131.5 -74.5 -330.5 -130.5 q-14 23 -39.5 59.5 q-25.5 36.5 -48.5 59.5 q201 52 327 123 q126 71 194.5 155.5 q68.5 84.5 98.5 176.5 l-491 0 l0 125 l518 0 q4 37 6 72.5 q2 35.5 2 72.5 l0 59 l-596 0 l0 132 l596 0 l0 186 l-510 0 l0 125 l510 0 l0 139 l147 0 l0 -139 l576 0 l0 -311 l166 0 l0 -132 l-166 0 Z" /><glyph glyph-name="" unicode="&#x5f02;" d="M1544 1487 l-1100 0 l0 -232 l1100 0 l0 232 ZM1538 752 l-813 0 q-167 0 -260.5 19 q-93.5 19 -131.5 71 q-38 52 -38 151 l0 625 l1399 0 l0 -494 l-1250 0 l0 -129 q0 -44 20 -67.5 q20 -23.5 78 -32 q58 -8.5 173 -8.5 l819 0 q84 0 127 14.5 q43 14.5 60.5 57 q17.5 42.5 25.5 126.5 q29 -18 70.5 -32 q41.5 -14 76.5 -19 q-15 -113 -47.5 -174.5 q-32.5 -61.5 -104 -84.5 q-71.5 -23 -204.5 -23 ZM1942 461 l0 -139 l-459 0 l0 -474 l-150 0 l0 474 l-663 0 q-19 -88 -67 -174 q-48 -86 -140 -165.5 q-92 -79.5 -244 -146.5 q-15 26 -45.5 60.5 q-30.5 34.5 -54.5 56.5 q187 78 274.5 174 q87.5 96 118.5 195 l-397 0 l0 139 l422 0 q1 17 1.5 32 q0.5 15 0.5 29 l0 162 l149 0 l0 -166 q0 -15 0 -29 q0 -14 -2 -28 l647 0 l0 221 l150 0 l0 -221 l459 0 Z" /><glyph glyph-name="" unicode="&#x5f55;" d="M1655 758 l129 -94 q-91 -79 -200 -159.5 q-109 -80.5 -206 -139.5 q116 -106 259 -185.5 q143 -79.5 309 -124.5 q-27 -23 -55.5 -62 q-28.5 -39 -45.5 -71 q-238 77 -426.5 222.5 q-188.5 145.5 -320.5 344.5 l0 -481 q0 -66 -18.5 -98 q-18.5 -32 -65.5 -49 q-48 -17 -127 -20 q-79 -3 -197 -3 q-6 31 -22 68.5 q-16 37.5 -31 66.5 q91 -4 166 -4.5 q75 -0.5 98 0.5 q26 2 35.5 11 q9.5 9 9.5 30 l0 283 q-189 -85 -378.5 -166.5 q-189.5 -81.5 -340.5 -144.5 l-80 135 q99 37 229 88.5 q130 51.5 276.5 111 q146.5 59.5 293.5 119.5 l0 373 l-803 0 l0 135 l1342 0 q3 45 6 92 q3 47 6 94 l-1155 0 l0 140 l1163 0 q2 49 4.5 98 q2.5 49 3.5 90 l-1230 0 l0 141 l1249 0 l29 7 l118 -9 q-3 -144 -14 -320 q-11 -176 -25 -333 l279 0 l0 -135 l-821 0 l0 -59 q74 -159 188 -291 q95 66 197.5 148 q102.5 82 171.5 151 ZM283 653 l100 90 q64 -34 136 -79 q72 -45 136 -91.5 q64 -46.5 105 -85.5 l-107 -104 q-39 39 -101.5 87 q-62.5 48 -133.5 96 q-71 48 -135 87 Z" /><glyph glyph-name="" unicode="&#x5f69;" d="M1726 1677 l150 -61 q-71 -91 -162.5 -177 q-91.5 -86 -192 -160.5 q-100.5 -74.5 -196.5 -129.5 q-21 26 -51.5 58 q-30.5 32 -63.5 55 q93 47 190 114.5 q97 67.5 182.5 145 q85.5 77.5 143.5 155.5 ZM1786 1120 l143 -63 q-75 -94 -173.5 -184 q-98.5 -90 -207 -167.5 q-108.5 -77.5 -213.5 -136.5 q-20 26 -50.5 58.5 q-30.5 32.5 -59.5 54.5 q97 50 202.5 120.5 q105.5 70.5 199.5 152 q94 81.5 159 165.5 ZM1075 1690 l94 -127 q-133 -38 -306 -67 q-173 -29 -358.5 -49.5 q-185.5 -20.5 -354.5 -31.5 q-2 28 -15 64.5 q-13 36.5 -26 62.5 q167 13 347.5 34.5 q180.5 21.5 343 50 q162.5 28.5 275.5 63.5 ZM950 954 l-114 41 q29 55 63.5 125 q34.5 70 66 142 q31.5 72 52.5 133 l147 -41 q-50 -103 -108 -213.5 q-58 -110.5 -107 -186.5 ZM791 1069 l-127 -43 q-16 66 -53.5 158 q-37.5 92 -80.5 168 l119 34 q46 -73 85.5 -162.5 q39.5 -89.5 56.5 -154.5 ZM467 1010 l-121 -60 q-20 69 -70.5 162 q-50.5 93 -107.5 168 l115 51 q58 -74 110 -164 q52 -90 74 -157 ZM1167 641 l-389 0 q72 -56 142 -120.5 q70 -64.5 128.5 -127 q58.5 -62.5 94.5 -112.5 l-105 -101 q-44 66 -123.5 153.5 q-79.5 87.5 -169.5 164.5 l0 -652 l-147 0 l0 615 q-94 -137 -210.5 -262.5 q-116.5 -125.5 -231.5 -208.5 q-14 29 -41 68.5 q-27 39.5 -52 62.5 q89 54 179 137.5 q90 83.5 170.5 182.5 q80.5 99 138.5 200 l-428 0 l0 139 l475 0 l0 213 l147 0 l0 -213 l422 0 l0 -139 ZM1831 545 l149 -60 q-126 -205 -328 -371 q-202 -166 -433 -272 q-17 31 -47.5 67 q-30.5 36 -61.5 62 q147 59 285 146 q138 87 250.5 196 q112.5 109 185.5 232 Z" /><glyph glyph-name="" unicode="&#x60c5;" d="M182 760 l-116 39 q22 68 40 159.5 q18 91.5 31.5 186.5 q13.5 95 20.5 176 l112 -14 q-4 -80 -15.5 -178.5 q-11.5 -98.5 -30 -195.5 q-18.5 -97 -42.5 -173 ZM315 -156 l0 1870 l142 0 l0 -1870 l-142 0 ZM473 1374 l100 41 q34 -69 66.5 -151 q32.5 -82 46.5 -138 l-106 -53 q-13 59 -44 144 q-31 85 -63 157 ZM913 276 l738 0 l0 156 l-738 0 l0 -156 ZM1651 700 l-738 0 l0 -153 l738 0 l0 153 ZM1796 819 l0 -805 q0 -58 -15.5 -90 q-15.5 -32 -58.5 -49 q-43 -17 -113 -20.5 q-70 -3.5 -179 -1.5 q-7 27 -18.5 64 q-11.5 37 -25.5 67 q77 -3 142 -3.5 q65 -0.5 84 1.5 q39 0 39 34 l0 148 l-738 0 l0 -320 l-143 0 l0 975 l1026 0 ZM1358 1053 l596 0 l0 -117 l-1329 0 l0 117 l583 0 l0 143 l-473 0 l0 111 l473 0 l0 131 l-522 0 l0 116 l522 0 l0 160 l150 0 l0 -160 l538 0 l0 -116 l-538 0 l0 -131 l487 0 l0 -111 l-487 0 l0 -143 Z" /><glyph glyph-name="" unicode="&#x620a;" d="M1817 1462 l-97 -100 q-39 36 -98 80.5 q-59 44.5 -127 88 q-68 43.5 -131 77.5 l92 90 q63 -32 131 -73.5 q68 -41.5 129 -84 q61 -42.5 101 -78.5 ZM1663 1010 l143 -47 q-159 -363 -413 -629 q63 -148 148.5 -237 q85.5 -89 199.5 -103 q43 -5 69 87.5 q26 92.5 41 262.5 q23 -20 59.5 -42.5 q36.5 -22.5 63.5 -35.5 q-23 -246 -86 -346.5 q-63 -100.5 -186 -71.5 q-143 22 -246.5 118.5 q-103.5 96.5 -177.5 254.5 q-124 -113 -266.5 -206 q-142.5 -93 -300.5 -167 q-17 23 -50.5 61 q-33.5 38 -58.5 56 q177 74 332 174.5 q155 100.5 289 225.5 q-59 162 -95 365 q-36 203 -59 435 l-627 0 l0 -350 q0 -110 -9 -237.5 q-9 -127.5 -35 -259 q-26 -131.5 -75.5 -255 q-49.5 -123.5 -129.5 -225.5 q-19 22 -57 53.5 q-38 31.5 -64 47.5 q100 127 147 280 q47 153 60.5 308 q13.5 155 13.5 288 l0 496 l764 0 q-16 191 -25 395 l150 0 q3 -103 9 -201.5 q6 -98.5 13 -193.5 l715 0 l0 -146 l-702 0 q19 -193 49 -365.5 q30 -172.5 73 -314.5 q200 228 324 525 Z" /><glyph glyph-name="" unicode="&#x62a5;" d="M772 827 l21 -145 l-246 -74 l0 -575 q0 -71 -19.5 -107.5 q-19.5 -36.5 -62.5 -54.5 q-45 -20 -120.5 -24.5 q-75.5 -4.5 -197.5 -4.5 q-3 31 -17.5 73 q-14.5 42 -31.5 73 q86 -3 156.5 -2.5 q70.5 0.5 91.5 2.5 q26 0 37.5 9.5 q11.5 9.5 11.5 35.5 l0 530 q-75 -21 -145 -42 q-70 -21 -133 -38 l-41 154 q66 15 147.5 36.5 q81.5 21.5 171.5 47.5 l0 432 l-291 0 l0 150 l291 0 l0 409 l152 0 l0 -409 l229 0 l0 -150 l-229 0 l0 -389 l225 63 ZM1712 809 l-489 0 q50 -124 118 -241 q68 -117 152 -220 q75 105 130 221.5 q55 116.5 89 239.5 ZM1794 952 l98 -32 q-40 -189 -115 -363 q-75 -174 -184 -321 q83 -83 176.5 -149.5 q93.5 -66.5 196.5 -109.5 q-28 -23 -59 -60.5 q-31 -37.5 -47 -68.5 q-102 50 -193 119 q-91 69 -172 154 q-154 -169 -362 -283 q-17 28 -46 59.5 q-29 31.5 -57 53.5 q106 54 198 125 q92 71 171 155 q-102 126 -181.5 271.5 q-79.5 145.5 -138.5 306.5 l-61 0 l0 -963 l-150 0 l0 1799 l961 0 q0 0 -0.5 -24.5 q-0.5 -24.5 -1.5 -41.5 q-9 -215 -25.5 -315 q-16.5 -100 -48.5 -134 q-29 -27 -64 -38.5 q-35 -11.5 -85 -14.5 q-50 -3 -139.5 -1.5 q-89.5 1.5 -190.5 5.5 q-4 70 -43 129 q101 -9 189.5 -10.5 q88.5 -1.5 119.5 -1.5 q32 0 51.5 3 q19.5 3 30.5 13 q20 19 30.5 85 q10.5 66 16.5 204 l-651 0 l0 -557 l749 0 l27 6 Z" /><glyph glyph-name="" unicode="&#x62c9;" d="M1444 1411 l-148 -45 q-12 65 -40.5 157 q-28.5 92 -57.5 169 l143 37 q30 -77 59.5 -166 q29.5 -89 43.5 -152 ZM1917 1343 l0 -143 l-1096 0 l0 143 l1096 0 ZM1247 211 l-147 -43 q-9 106 -30 256 q-21 150 -49.5 312 q-28.5 162 -59.5 304 l133 29 q34 -142 65 -301.5 q31 -159.5 54 -306.5 q23 -147 34 -250 ZM737 813 l19 -139 q-60 -19 -118.5 -37 q-58.5 -18 -117.5 -35 l0 -584 q0 -61 -15.5 -94 q-15.5 -33 -53.5 -51 q-37 -18 -97 -23 q-60 -5 -153 -4 q-5 28 -18.5 68 q-13.5 40 -26.5 70 q61 -2 113 -2 q52 0 67 2 q37 0 37 36 l0 539 l-236 -70 l-43 148 q59 14 129.5 33 q70.5 19 149.5 41 l0 448 l-252 0 l0 144 l252 0 l0 409 l147 0 l0 -409 l213 0 l0 -144 l-213 0 l0 -409 l217 63 ZM1559 74 l411 0 l0 -146 l-1245 0 l0 146 l692 0 q29 102 57 229 q28 127 54 264.5 q26 137.5 47 271 q21 133.5 35 248.5 l162 -28 q-28 -158 -63 -335 q-35 -177 -74 -346 q-39 -169 -76 -304 Z" /><glyph glyph-name="" unicode="&#x636e;" d="M723 684 l-234 -76 l0 -575 q0 -63 -15.5 -96 q-15.5 -33 -53.5 -52 q-35 -18 -96 -24 q-61 -6 -158 -4 q-5 27 -17.5 68 q-12.5 41 -27.5 73 q66 -2 120.5 -2 q54.5 0 71.5 0 q19 0 27 8 q8 8 8 31 l0 526 q-64 -21 -125 -40 q-61 -19 -117 -36 l-36 146 q56 17 127 38 q71 21 151 44 l0 448 l-254 0 l0 142 l254 0 l0 409 l141 0 l0 -409 l232 0 l0 -142 l-232 0 l0 -405 l213 67 l21 -139 ZM956 872 l398 0 l0 226 l-396 0 l0 -88 q0 -34 0 -67.5 q0 -33.5 -2 -70.5 ZM1739 1491 l-781 0 l0 -260 l781 0 l0 260 ZM1753 51 l0 309 l-629 0 l0 -309 l629 0 ZM1954 741 l-455 0 l0 -252 l393 0 l0 -641 l-139 0 l0 76 l-629 0 l0 -84 l-133 0 l0 649 l363 0 l0 252 l-404 0 q-9 -151 -34 -310.5 q-25 -159.5 -75 -311 q-50 -151.5 -136 -277.5 q-19 22 -58 49 q-39 27 -65 37 q79 118 125 255.5 q46 137.5 68.5 282 q22.5 144.5 29 283.5 q6.5 139 6.5 261 l0 614 l1073 0 l0 -526 l-385 0 l0 -226 l455 0 l0 -131 Z" /><glyph glyph-name="" unicode="&#x6559;" d="M1317 1192 q29 -177 74 -341 q45 -164 106 -308 q65 135 107 296.5 q42 161.5 71 352.5 l-358 0 ZM1960 1192 l-129 0 q-37 -247 -97.5 -450 q-60.5 -203 -152.5 -367 q75 -132 173.5 -235.5 q98.5 -103.5 221.5 -168.5 q-27 -23 -58 -60.5 q-31 -37.5 -48 -70.5 q-117 69 -212.5 169 q-95.5 100 -170.5 224 q-91 -121 -208 -220 q-117 -99 -267 -177 q-13 28 -41 70.5 q-28 42.5 -51 66.5 q159 76 279 178 q120 102 208 234 q-60 124 -105.5 266.5 q-45.5 142.5 -80.5 300.5 q-30 -67 -65.5 -127 q-35.5 -60 -72.5 -112 q-17 17 -49 45.5 q-32 28.5 -61 48.5 q-63 -72 -145.5 -142.5 q-82.5 -70.5 -163.5 -125.5 l0 -99 q104 11 212 21 q108 10 216 22 l0 -131 l-428 -47 l0 -301 q0 -58 -14.5 -89 q-14.5 -31 -57.5 -48 q-42 -17 -109 -20 q-67 -3 -166 -3 q-4 31 -17.5 67 q-13.5 36 -29.5 66 q76 -3 135.5 -2.5 q59.5 0.5 79.5 0.5 q22 2 28.5 8 q6.5 6 6.5 23 l0 283 q-115 -13 -220.5 -24.5 q-105.5 -11.5 -195.5 -20.5 l-18 139 q89 8 200 18.5 q111 10.5 234 24.5 l0 147 l-2 2 q59 36 121 85 q62 49 113 98 l-215 0 q-82 -76 -170.5 -140.5 q-88.5 -64.5 -182.5 -119.5 q-17 21 -51 56.5 q-34 35.5 -55 55.5 q61 33 118.5 70.5 q57.5 37.5 112.5 77.5 l-51 0 l0 123 l201 0 q40 35 76 73 q36 38 71 76 l-516 0 l0 135 l354 0 l0 203 l-268 0 l0 131 l268 0 l0 215 l142 0 l0 -215 l254 0 l0 -131 l-254 0 l0 -203 l129 0 q81 114 149 238.5 q68 124.5 119 261.5 l143 -39 q-50 -126 -110 -240.5 q-60 -114.5 -129 -220.5 l188 0 l0 -135 l-284 0 q-33 -38 -64.5 -76 q-31.5 -38 -64.5 -73 l210 0 l29 8 l72 -53 q117 159 196 391 q79 232 123 487 l152 -24 q-17 -93 -37.5 -181.5 q-20.5 -88.5 -44.5 -173.5 l598 0 l0 -143 Z" /><glyph glyph-name="" unicode="&#x6570;" d="M909 1675 l127 -57 q-44 -69 -91.5 -140.5 q-47.5 -71.5 -90.5 -121.5 l-98 47 q38 55 82.5 133 q44.5 78 70.5 139 ZM430 1399 l-117 -49 q-13 53 -49 129 q-36 76 -78 139 l111 45 q43 -60 80.5 -133.5 q37.5 -73.5 52.5 -130.5 ZM530 825 l0 248 q-76 -90 -171 -170 q-95 -80 -189 -129 q-12 26 -36 59.5 q-24 33.5 -46 55.5 q108 46 214 132.5 q106 86.5 181 186.5 l-374 0 l0 127 l421 0 l0 379 l142 0 l0 -379 l418 0 l0 -127 l-385 0 q51 -29 118 -71.5 q67 -42.5 125.5 -81 q58.5 -38.5 81.5 -56.5 l-84 -110 q-24 23 -70.5 61 q-46.5 38 -100.5 79.5 q-54 41.5 -103 76.5 l0 -281 l-142 0 ZM842 532 l-332 0 q-23 -43 -46 -84.5 q-23 -41.5 -44 -76.5 q57 -25 116.5 -53 q59.5 -28 114.5 -56 q60 55 108.5 123 q48.5 68 82.5 147 ZM942 92 l-94 -100 q-35 26 -80.5 55.5 q-45.5 29.5 -97.5 58.5 q-109 -87 -237.5 -147.5 q-128.5 -60.5 -268.5 -97.5 q-11 24 -31.5 59.5 q-20.5 35.5 -40.5 56.5 q125 28 240 77 q115 49 215 120 q-77 40 -157.5 77 q-80.5 37 -156.5 64 q33 46 66 102 q33 56 66 115 l-213 0 l0 130 l276 0 q15 33 29 65.5 q14 32.5 24 65.5 l135 -25 q-10 -26 -20 -52.5 q-10 -26.5 -23 -53.5 l334 0 l23 6 l86 -35 q-40 -132 -102.5 -240 q-62.5 -108 -143.5 -194 q49 -28 93.5 -55 q44.5 -27 78.5 -52 ZM1653 1178 l-328 0 q29 -166 72.5 -321 q43.5 -155 101.5 -292 q55 129 93 282.5 q38 153.5 61 330.5 ZM1933 1178 l-135 0 q-35 -231 -88.5 -421.5 q-53.5 -190.5 -134.5 -348.5 q78 -142 180 -251.5 q102 -109.5 227 -176.5 q-26 -22 -54.5 -56 q-28.5 -34 -45.5 -63 q-118 72 -215 175 q-97 103 -172 232 q-91 -133 -210 -240 q-119 -107 -275 -192 q-11 25 -37.5 63.5 q-26.5 38.5 -46.5 59.5 q166 81 287.5 194 q121.5 113 207.5 259 q-58 119 -102 256.5 q-44 137.5 -78 289.5 q-61 -149 -139 -268 q-19 19 -54.5 48 q-35.5 29 -60.5 44 q78 108 135.5 253 q57.5 145 98 313.5 q40.5 168.5 65.5 345.5 l139 -21 q-12 -90 -30 -179 q-18 -89 -39 -175 l577 0 l0 -141 Z" /><glyph glyph-name="" unicode="&#x65b0;" d="M1030 1499 l0 -127 l-897 0 l0 127 l402 0 q-20 46 -44 95.5 q-24 49.5 -47 91.5 l138 34 q29 -52 58.5 -111 q29.5 -59 49.5 -110 l340 0 ZM283 485 l125 -32 q-36 -106 -93.5 -209.5 q-57.5 -103.5 -117.5 -175.5 q-19 15 -50.5 39.5 q-31.5 24.5 -54.5 37.5 q62 66 111 155.5 q49 89.5 80 184.5 ZM266 1329 l123 29 q31 -66 55.5 -147.5 q24.5 -81.5 30.5 -139.5 l-129 -35 q-6 59 -28.5 141.5 q-22.5 82.5 -51.5 151.5 ZM1038 561 l-381 0 l0 -520 q0 -54 -12 -83 q-12 -29 -47 -46 q-35 -17 -88 -21 q-53 -4 -127 -4 q-11 64 -45 129 q52 -1 95.5 -1 q43.5 0 60.5 1 q24 0 24 27 l0 518 l-407 0 l0 131 l407 0 l0 215 l-416 0 l0 129 l564 0 q29 71 60.5 163 q31.5 92 49.5 163 l139 -31 q-26 -74 -55.5 -152 q-29.5 -78 -56.5 -143 l260 0 l0 -129 l-406 0 l0 -215 l381 0 l0 -131 ZM739 440 l105 54 q49 -76 98 -166 q49 -90 72 -156 l-107 -61 q-24 66 -72 159.5 q-48 93.5 -96 169.5 ZM1954 1028 l0 -143 l-223 0 l0 -1032 l-148 0 l0 1032 l-309 0 l0 -66 q0 -110 -7.5 -235 q-7.5 -125 -29.5 -253.5 q-22 -128.5 -64 -248.5 q-42 -120 -112 -219 q-20 21 -56 49.5 q-36 28.5 -61 42.5 q85 123 125 272 q40 149 52 302.5 q12 153.5 12 289.5 l0 699 q113 18 232 43.5 q119 25.5 224.5 55.5 q105.5 30 177.5 60 l123 -112 q-126 -48 -291 -85.5 q-165 -37.5 -325 -62.5 l0 -389 l680 0 Z" /><glyph glyph-name="" unicode="&#x2f45;&#x65b9;" d="M1909 1212 l-1043 0 q-4 -81 -11 -162.5 q-7 -81.5 -17 -162.5 l872 0 q0 0 -1.5 -28.5 q-1.5 -28.5 -4.5 -45.5 q-20 -288 -41.5 -466.5 q-21.5 -178.5 -50 -274.5 q-28.5 -96 -68.5 -135 q-37 -39 -76.5 -53.5 q-39.5 -14.5 -99.5 -18.5 q-54 -3 -147.5 -1.5 q-93.5 1.5 -194.5 7.5 q-3 35 -17.5 77 q-14.5 42 -37.5 72 q110 -9 206 -11.5 q96 -2.5 138 -2.5 q35 0 56.5 4.5 q21.5 4.5 39.5 18.5 q31 26 55 105.5 q24 79.5 43.5 227 q19.5 147.5 36.5 377.5 l-731 0 q-33 -180 -100.5 -347.5 q-67.5 -167.5 -188 -309 q-120.5 -141.5 -313.5 -244.5 q-18 29 -49.5 64.5 q-31.5 35.5 -61.5 56.5 q197 98 313 239.5 q116 141.5 174.5 310 q58.5 168.5 80.5 348.5 q22 180 30 355 l-553 0 l0 148 l893 0 q-18 61 -58 148.5 q-40 87.5 -79 158.5 l144 57 q43 -72 84.5 -156 q41.5 -84 64.5 -147 l-143 -61 l856 0 l0 -148 Z" /><glyph glyph-name="" unicode="&#x65d7;" d="M590 1434 l-133 -54 q-22 60 -64 142 q-42 82 -84 149 l129 43 q43 -66 86.5 -145 q43.5 -79 65.5 -135 ZM1925 1368 l-901 0 q-41 -83 -90 -155.5 q-49 -72.5 -105 -129.5 q-18 17 -52 46.5 q-34 29.5 -58 46.5 q32 26 61 65 l-348 0 q-1 -71 -3 -141.5 q-2 -70.5 -5 -141.5 l350 0 q0 0 0 -27 q0 -27 -2 -42 q-7 -248 -14 -419 q-7 -171 -16.5 -279.5 q-9.5 -108.5 -22 -169 q-12.5 -60.5 -31.5 -87.5 q-23 -30 -49 -43 q-26 -13 -61 -18 q-33 -5 -79.5 -5 q-46.5 0 -99.5 3 q-1 31 -11 69 q-10 38 -26 66 q50 -3 90.5 -4.5 q40.5 -1.5 61.5 -1.5 q37 0 55 29 q17 22 28.5 103 q11.5 81 20.5 246.5 q9 165.5 17 440.5 l-217 0 q-17 -292 -66.5 -547 q-49.5 -255 -165.5 -432 q-18 25 -49.5 52.5 q-31.5 27.5 -58.5 44.5 q71 107 113.5 253 q42.5 146 64 317.5 q21.5 171.5 30 358 q8.5 186.5 11.5 375.5 l-205 0 l0 135 l694 0 l0 -127 q160 195 230 471 l135 -30 q-14 -50 -30 -98.5 q-16 -48.5 -36 -94.5 l840 0 l0 -129 ZM1161 221 l135 -41 q-61 -97 -153.5 -190 q-92.5 -93 -181.5 -156 q-19 19 -53 47 q-34 28 -60 45 q90 57 174.5 134 q84.5 77 138.5 161 ZM1473 154 l102 71 q58 -44 121.5 -98.5 q63.5 -54.5 119 -108.5 q55.5 -54 89.5 -96 l-109 -86 q-34 43 -88 99 q-54 56 -116 113 q-62 57 -119 106 ZM1192 530 l0 -147 l407 0 l0 147 l-407 0 ZM1599 1018 l-407 0 l0 -133 l407 0 l0 133 ZM1192 780 l0 -143 l407 0 l0 143 l-407 0 ZM1737 383 l209 0 l0 -127 l-1110 0 l0 127 l221 0 l0 635 l-127 0 l0 129 l127 0 l0 133 l135 0 l0 -133 l407 0 l0 133 l138 0 l0 -133 l153 0 l0 -129 l-153 0 l0 -635 Z" /><glyph glyph-name="" unicode="&#x6700;" d="M1540 1399 l0 139 l-1030 0 l0 -139 l1030 0 ZM1540 1151 l0 145 l-1030 0 l0 -145 l1030 0 ZM1690 1647 l0 -605 l-1325 0 l0 605 l1325 0 ZM442 295 l0 -170 q88 9 181 20 q93 11 190 23 l0 127 l-371 0 ZM813 803 l-371 0 l0 -137 l371 0 l0 137 ZM442 551 l0 -143 l371 0 l0 143 l-371 0 ZM1069 74 l-111 -15 l0 -217 l-145 0 l0 199 q-190 -23 -370.5 -45 q-180.5 -22 -323.5 -39 l-17 135 q45 5 96 9.5 q51 4.5 105 11.5 l0 690 l-194 0 l0 127 l1826 0 l0 -127 l-977 0 l0 -619 l111 13 l0 -123 ZM1702 551 l-449 0 q82 -182 222 -315 q69 67 127 145.5 q58 78.5 100 169.5 ZM1792 680 l86 -37 q-48 -150 -124.5 -272.5 q-76.5 -122.5 -176.5 -220.5 q169 -123 389 -181 q-23 -21 -49 -56 q-26 -35 -41 -65 q-232 72 -406 211 q-89 -69 -187 -121.5 q-98 -52.5 -200 -89.5 q-10 27 -33.5 60 q-23.5 33 -43.5 53 q95 31 188.5 78.5 q93.5 47.5 177.5 110.5 q-80 81 -143 179.5 q-63 98.5 -109 209.5 l41 12 l-123 0 l0 125 l725 0 l29 4 Z" /><glyph glyph-name="" unicode="&#x6709;" d="M1530 725 l0 207 l-854 0 l0 -207 l854 0 ZM676 379 l854 0 l0 215 l-854 0 l0 -215 ZM1919 1307 l-1102 0 q-29 -60 -60 -120.5 q-31 -60.5 -65 -117.5 l987 0 l0 -1034 q0 -69 -18.5 -106.5 q-18.5 -37.5 -67.5 -55.5 q-50 -18 -137.5 -22.5 q-87.5 -4.5 -218.5 -4.5 q-5 34 -19.5 76 q-14.5 42 -29.5 74 q101 -5 184 -4.5 q83 0.5 111 0.5 q47 3 47 43 l0 213 l-854 0 l0 -404 l-150 0 l0 985 q-73 -90 -158 -172 q-85 -82 -182 -149 q-15 24 -45 59.5 q-30 35.5 -53 57.5 q184 124 324.5 301.5 q140.5 177.5 238.5 380.5 l-514 0 l0 143 l578 0 q26 66 48.5 132 q22.5 66 41.5 132 l151 -37 q-18 -57 -37 -114.5 q-19 -57.5 -42 -112.5 l1042 0 l0 -143 Z" /><glyph glyph-name="" unicode="&#x6839;" d="M561 1714 l0 -393 l240 0 l0 -143 l-240 0 l0 -97 q20 -27 54 -78 q34 -51 71.5 -109.5 q37.5 -58.5 68.5 -107.5 q31 -49 44 -71 l-92 -109 q-20 49 -62 131.5 q-42 82.5 -84 157.5 l0 -1051 l-139 0 l0 1002 q-52 -172 -120 -329.5 q-68 -157.5 -140 -258.5 q-12 32 -37 75.5 q-25 43.5 -45 69.5 q66 86 129 214.5 q63 128.5 114 274.5 q51 146 83 286 l-297 0 l0 143 l313 0 l0 393 l139 0 ZM1030 1116 l0 -254 l612 0 l0 254 l-612 0 ZM1642 1489 l-612 0 l0 -246 l612 0 l0 246 ZM1808 664 l103 -107 q-79 -63 -174 -127.5 q-95 -64.5 -181 -114.5 q80 -109 183.5 -193 q103.5 -84 230.5 -134 q-26 -22 -56 -61 q-30 -39 -48 -68 q-248 112 -400.5 337.5 q-152.5 225.5 -232.5 532.5 l-203 0 l0 -682 l373 90 q-2 -32 0.5 -70 q2.5 -38 5.5 -63 q-158 -43 -255 -70 q-97 -27 -150 -43.5 q-53 -16.5 -78 -27.5 q-25 -11 -39 -21 q-8 26 -28 66 q-20 40 -36 63 q20 11 39 37 q19 26 19 84 l0 1532 l909 0 l0 -895 l-426 0 q23 -83 54.5 -159.5 q31.5 -76.5 70.5 -145.5 q80 51 169 117 q89 66 150 123 Z" /><glyph glyph-name="" unicode="&#x6b4c;" d="M1792 1249 l-459 0 q-37 -115 -81.5 -216 q-44.5 -101 -98.5 -181 q-21 15 -61 38.5 q-40 23.5 -66 37.5 q98 141 163.5 350 q65.5 209 100.5 436 l146 -24 q-14 -79 -29.5 -155 q-15.5 -76 -34.5 -149 l459 0 l24 7 l101 -31 q-17 -91 -37.5 -188 q-20.5 -97 -44 -185 q-23.5 -88 -47.5 -153 l-121 34 q23 73 45.5 174.5 q22.5 101.5 40.5 204.5 ZM578 432 l-252 0 l0 -211 l252 0 l0 211 ZM700 109 l-374 0 l0 -89 l-129 0 l0 525 l503 0 l0 -436 ZM1167 674 l-184 0 l0 -678 q0 -55 -14.5 -81 q-14.5 -26 -53.5 -40 q-38 -15 -102.5 -18.5 q-64.5 -3.5 -161.5 -3.5 q-6 26 -17.5 58 q-11.5 32 -25.5 56 q69 -1 127 -1 q58 0 78 1 q20 0 26.5 7 q6.5 7 6.5 24 l0 676 l-756 0 l0 135 l744 0 l0 672 l-721 0 l0 131 l1009 0 l0 -131 l-151 0 l0 -672 l196 0 l0 -135 ZM571 1049 l0 202 l-239 0 l0 -202 l239 0 ZM217 1360 l477 0 l0 -420 l-477 0 l0 420 ZM1565 1126 l0 -139 q0 -40 -1.5 -81.5 q-1.5 -41.5 -2.5 -84.5 q36 -205 92 -360.5 q56 -155.5 141 -278 q85 -122.5 211 -227.5 q-29 -22 -58 -53 q-29 -31 -42 -62 q-148 134 -242 286.5 q-94 152.5 -156 350.5 q-43 -166 -136.5 -331.5 q-93.5 -165.5 -262.5 -311.5 q-17 25 -48 57 q-31 32 -54 52 q145 122 229.5 259 q84.5 137 125 276.5 q40.5 139.5 52.5 270 q12 130.5 12 238.5 l0 139 l140 0 Z" /><glyph glyph-name="" unicode="&#x6ce8;" d="M1436 1391 l-146 -58 q-21 66 -69 163 q-48 97 -99 177 l138 49 q52 -78 103 -171.5 q51 -93.5 73 -159.5 ZM672 1477 l-88 -125 q-42 32 -107 73 q-65 41 -138 81.5 q-73 40.5 -138 72.5 l84 111 q63 -29 136 -66.5 q73 -37.5 140 -76.5 q67 -39 111 -70 ZM555 924 l-86 -129 q-41 32 -105 72 q-64 40 -135.5 79.5 q-71.5 39.5 -136.5 71.5 l84 112 q63 -28 134.5 -65 q71.5 -37 136.5 -74.5 q65 -37.5 108 -66.5 ZM541 625 l110 -101 q-54 -107 -117.5 -223.5 q-63.5 -116.5 -128.5 -228.5 q-65 -112 -124 -207 l-127 104 q55 77 122.5 186.5 q67.5 109.5 136 231.5 q68.5 122 128.5 238 ZM1378 51 l582 0 l0 -145 l-1337 0 l0 145 l598 0 l0 527 l-455 0 l0 145 l455 0 l0 457 l-537 0 l0 145 l1229 0 l0 -145 l-535 0 l0 -457 l461 0 l0 -145 l-461 0 l0 -527 Z" /><glyph glyph-name="" unicode="&#x6cf0;" d="M1419 565 l123 -76 q-47 -53 -100.5 -109 q-53.5 -56 -104.5 -106 q122 -59 236.5 -120 q114.5 -61 193.5 -109 l-90 -117 q-66 44 -160.5 98 q-94.5 54 -201.5 108.5 q-107 54.5 -211 103.5 l0 -230 q0 -58 -15.5 -87 q-15.5 -29 -60.5 -46 q-41 -15 -110 -17.5 q-69 -2.5 -177 -2.5 q-4 29 -18.5 63 q-14.5 34 -28.5 62 q79 -4 142 -4 q63 0 82 1 q36 0 36 35 l0 185 q-170 -68 -340.5 -134 q-170.5 -66 -308.5 -116 l-72 127 q91 29 208.5 69.5 q117.5 40.5 249 87.5 q131.5 47 263.5 95 l0 417 l150 0 l0 -360 q28 -12 54.5 -25 q26.5 -13 55.5 -24 q54 54 110.5 117.5 q56.5 63.5 94.5 113.5 ZM811 340 l-106 -86 q-33 48 -95.5 109.5 q-62.5 61.5 -124.5 107.5 l103 80 q61 -45 126 -104 q65 -59 97 -107 ZM1933 813 l-483 0 q98 -112 238.5 -200.5 q140.5 -88.5 289.5 -137.5 q-24 -21 -53.5 -58.5 q-29.5 -37.5 -46.5 -66.5 q-174 69 -333.5 191 q-159.5 122 -268.5 272 l-533 0 q-104 -140 -239 -264 q-135 -124 -305 -219 q-17 24 -51 56.5 q-34 32.5 -62 47.5 q144 77 261.5 172.5 q117.5 95.5 211.5 206.5 l-450 0 l0 129 l546 0 q30 42 55 84.5 q25 42.5 48 85.5 l-434 0 l0 123 l489 0 q34 77 59 160 l-651 0 l0 125 l684 0 q13 47 21 96 q8 49 14 96 l160 -14 q-8 -43 -16.5 -88.5 q-8.5 -45.5 -20.5 -89.5 l778 0 l0 -125 l-811 0 q-11 -40 -25.5 -81 q-14.5 -41 -29.5 -79 l780 0 l0 -123 l-835 0 q-19 -43 -42.5 -85.5 q-23.5 -42.5 -50.5 -84.5 l1106 0 l0 -129 Z" /><glyph glyph-name="" unicode="&#x6d89;" d="M530 940 l-88 -125 q-36 36 -96 76 q-60 40 -129 78 q-69 38 -133 65 l84 113 q63 -26 132.5 -61 q69.5 -35 130.5 -73 q61 -38 99 -73 ZM268 -127 l-135 90 q47 78 104.5 187 q57.5 109 116 230.5 q58.5 121.5 107.5 235.5 l119 -90 q-45 -106 -98 -221.5 q-53 -115.5 -108 -226.5 q-55 -111 -106 -205 ZM190 1579 l84 109 q63 -29 130.5 -67 q67.5 -38 127 -78.5 q59.5 -40.5 97.5 -76.5 l-90 -123 q-36 37 -94 80 q-58 43 -125 83.5 q-67 40.5 -130 72.5 ZM1716 813 l148 -43 q-76 -263 -218 -447 q-142 -184 -365 -302 q-223 -118 -542 -183 q-24 77 -80 139 q303 54 512.5 158.5 q209.5 104.5 342 271 q132.5 166.5 202.5 406.5 ZM928 846 l141 -35 q-40 -135 -105.5 -265 q-65.5 -130 -138.5 -220 q-20 18 -58 42.5 q-38 24.5 -65 37.5 q73 82 131.5 199.5 q58.5 117.5 94.5 240.5 ZM1401 1090 l555 0 l0 -136 l-570 0 l0 -598 l-157 0 l0 598 l-565 0 l0 136 l200 0 l0 428 l150 0 l0 -428 l233 0 l0 620 l154 0 l0 -252 l457 0 l0 -129 l-457 0 l0 -239 Z" /><glyph glyph-name="" unicode="&#x2f5a;&#x7247;" d="M530 1032 l0 -49 q0 -69 -1.5 -138 q-1.5 -69 -6.5 -138 l1006 0 l0 -863 l-162 0 l0 707 l-860 0 q-25 -192 -92.5 -374 q-67.5 -182 -208.5 -337 q-19 28 -55 63.5 q-36 35.5 -62 55.5 q129 144 190 313.5 q61 169.5 79 350 q18 180.5 18 358.5 l0 678 l155 0 l0 -473 l580 0 l0 524 l160 0 l0 -524 l573 0 l0 -154 l-1313 0 Z" /><glyph glyph-name="" unicode="&#x730e;" d="M594 1673 l115 -76 q-36 -64 -83.5 -133 q-47.5 -69 -101.5 -137 q92 -169 118 -347 q26 -178 26 -366 q0 -145 -9 -276 q-9 -131 -32 -232.5 q-23 -101.5 -64 -158.5 q-44 -54 -117 -66 q-52 -9 -113.5 -10 q-61.5 -1 -125.5 2 q-2 35 -14.5 75 q-12.5 40 -30.5 70 q150 -9 223 0 q42 3 66 35 q26 34 42 117.5 q16 83.5 22.5 199.5 q6.5 116 6.5 248 q0 25 0 49.5 q0 24.5 -2 49.5 q-70 -114 -157 -215 q-87 -101 -175 -170 q-13 29 -39 67.5 q-26 38.5 -51 61.5 q75 50 150 129 q75 79 140.5 172.5 q65.5 93.5 111.5 187.5 q-13 66 -30 130.5 q-17 64.5 -46 127.5 q-63 -69 -128 -130 q-65 -61 -126 -107 q-15 27 -42.5 68.5 q-27.5 41.5 -51.5 66.5 q67 43 138 105 q71 62 138 132 q-40 62 -92.5 121 q-52.5 59 -118.5 119 l107 80 q60 -51 108.5 -104 q48.5 -53 89.5 -107 q43 55 81 110.5 q38 55.5 67 110.5 ZM1667 610 l-610 0 l0 -209 l610 0 l0 209 ZM1057 61 l610 0 l0 215 l-610 0 l0 -215 ZM909 -156 l0 897 l910 0 l0 -893 l-152 0 l0 86 l-610 0 l0 -90 l-148 0 ZM1190 1311 l0 -269 l319 0 l0 269 l-319 0 ZM1657 1042 l295 0 l0 -139 l-1182 0 l0 139 l272 0 l0 269 l-219 0 l0 135 l219 0 l0 266 l148 0 l0 -266 l319 0 l0 266 l148 0 l0 -266 l241 0 l0 -135 l-241 0 l0 -269 Z" /><glyph glyph-name="" unicode="&#x2f64;&#x7528;" d="M1110 612 l551 0 l0 340 l-551 0 l0 -340 ZM461 612 l497 0 l0 340 l-489 0 l0 -121 q0 -50 -2 -106 q-2 -56 -6 -113 ZM958 1423 l-489 0 l0 -327 l489 0 l0 327 ZM1661 1096 l0 327 l-551 0 l0 -327 l551 0 ZM1810 1569 l0 -1520 q0 -74 -21.5 -112 q-21.5 -38 -70.5 -58 q-52 -18 -144 -22 q-92 -4 -237 -2 q-4 30 -19.5 73 q-15.5 43 -31.5 74 q108 -5 200 -4.5 q92 0.5 120 0.5 q30 1 42.5 12.5 q12.5 11.5 12.5 40.5 l0 416 l-551 0 l0 -604 l-152 0 l0 604 l-512 0 q-23 -171 -81 -337.5 q-58 -166.5 -175 -297.5 q-16 23 -54 55 q-38 32 -62 45 q112 127 164 282 q52 155 66.5 315 q14.5 160 14.5 302 l0 738 l1491 0 Z" /><glyph glyph-name="" unicode="&#x7532;" d="M1106 625 l522 0 l0 331 l-522 0 l0 -331 ZM420 625 l528 0 l0 331 l-528 0 l0 -331 ZM948 1438 l-528 0 l0 -338 l528 0 l0 338 ZM1628 1100 l0 338 l-522 0 l0 -338 l522 0 ZM266 1583 l1522 0 l0 -1208 l-160 0 l0 104 l-522 0 l0 -637 l-158 0 l0 637 l-528 0 l0 -110 l-154 0 l0 1214 Z" /><glyph glyph-name="" unicode="&#x754c;" d="M641 436 l0 119 l154 0 l0 -125 q0 -73 -14.5 -153 q-14.5 -80 -59 -160 q-44.5 -80 -133 -153.5 q-88.5 -73.5 -236.5 -133.5 q-17 29 -48.5 64.5 q-31.5 35.5 -55.5 58.5 q133 49 212 109 q79 60 118 124.5 q39 64.5 51 128.5 q12 64 12 121 ZM477 1180 l0 -222 l469 0 l0 222 l-469 0 ZM477 1518 l0 -218 l469 0 l0 218 l-469 0 ZM1569 1300 l0 218 l-473 0 l0 -218 l473 0 ZM1569 958 l0 222 l-473 0 l0 -222 l473 0 ZM1724 829 l-401 0 q115 -118 285.5 -211 q170.5 -93 353.5 -141 q-26 -23 -55.5 -61.5 q-29.5 -38.5 -44.5 -67.5 q-109 34 -215 86.5 q-106 52.5 -203 118.5 l0 -707 l-156 0 l0 709 l152 0 q-85 60 -161 129 q-76 69 -134 145 l-225 0 q-84 -107 -201 -201 q-117 -94 -250.5 -167.5 q-133.5 -73.5 -267.5 -120.5 q-19 29 -48 65.5 q-29 36.5 -55 59.5 q118 34 235 89 q117 55 220.5 125.5 q103.5 70.5 181.5 149.5 l-407 0 l0 818 l1396 0 l0 -818 Z" /><glyph glyph-name="" unicode="&#x7678;" d="M1104 866 l0 -202 q0 -19 -0.5 -36.5 q-0.5 -17.5 -1.5 -35.5 l723 0 l0 -146 l-750 0 l0 -6 q106 -51 223 -111.5 q117 -60.5 231.5 -122.5 q114.5 -62 214 -120.5 q99.5 -58.5 171.5 -105.5 l-86 -138 q-67 48 -161.5 106.5 q-94.5 58.5 -204 122 q-109.5 63.5 -223.5 125.5 q-114 62 -220 115 q-51 -87 -147 -170.5 q-96 -83.5 -252.5 -160 q-156.5 -76.5 -389.5 -142.5 q-13 26 -41.5 63.5 q-28.5 37.5 -54.5 61.5 q258 68 416 147.5 q158 79.5 241.5 165 q83.5 85.5 116.5 170.5 l-678 0 l0 146 l713 0 q2 18 2 35.5 q0 17.5 0 36.5 l0 202 l-430 0 l0 78 q-169 -141 -358 -225 q-14 26 -40 61.5 q-26 35.5 -46 55.5 q106 43 209.5 108.5 q103.5 65.5 195.5 151.5 q-54 49 -134.5 109 q-80.5 60 -156.5 106 l93 88 q75 -43 157 -99 q82 -56 137 -104 q115 130 189 287 l-512 0 l0 129 l579 0 l27 6 l96 -43 q-55 -171 -148 -312 q-93 -141 -210 -251 l887 0 q-143 132 -257.5 301 q-114.5 169 -191.5 362 l135 41 q26 -67 59.5 -133 q33.5 -66 71.5 -129 q70 55 140 119 q70 64 116 117 l121 -86 q-70 -65 -151.5 -131.5 q-81.5 -66.5 -155.5 -118.5 q71 -92 148 -172 q78 55 161.5 122 q83.5 67 139.5 126 l116 -87 q-72 -64 -159.5 -128.5 q-87.5 -64.5 -167.5 -114.5 q84 -71 177 -129 q93 -58 193 -97 q-26 -23 -56.5 -60.5 q-30.5 -37.5 -45.5 -68.5 q-92 43 -179 98.5 q-87 55.5 -165 123.5 l0 -101 l-426 0 Z" /><glyph glyph-name="" unicode="&#x767b;" d="M1333 326 l144 -39 q-33 -66 -69 -135 q-36 -69 -69 -127 l582 0 l0 -134 l-1792 0 l0 134 l561 0 q-14 52 -46 123.5 q-32 71.5 -69 130.5 l138 43 q38 -59 73.5 -130 q35.5 -71 51.5 -124 l-127 -43 l473 0 q40 64 82.5 148.5 q42.5 84.5 66.5 152.5 ZM1432 465 l0 256 l-850 0 l0 -256 l850 0 ZM1591 848 l0 -510 l-1159 0 l0 510 l1159 0 ZM1794 1454 l115 -78 q-69 -64 -152.5 -129.5 q-83.5 -65.5 -159.5 -118.5 q88 -75 185.5 -135 q97.5 -60 199.5 -100 q-26 -22 -55 -60 q-29 -38 -49 -67 q-134 60 -256 150 q-122 90 -229 202 l0 -104 l-734 0 l0 96 q-113 -117 -243 -209 q-130 -92 -260 -153 q-16 26 -44 59.5 q-28 33.5 -51 54.5 q217 89 414 271 q-47 52 -119 107.5 q-72 55.5 -141 98.5 l82 86 q71 -41 145 -96.5 q74 -55.5 123 -107.5 q60 67 113.5 139 q53.5 72 91.5 147 l-557 0 l0 129 l629 0 l28 6 l101 -51 q-48 -126 -119.5 -237.5 q-71.5 -111.5 -159.5 -208.5 l676 0 q-213 232 -340 522 l133 41 q28 -64 64 -128 q36 -64 78 -126 q69 55 142 121.5 q73 66.5 122 120.5 l116 -82 q-70 -66 -153 -133 q-83 -67 -158 -119 q62 -80 137 -156 q76 57 154.5 125 q78.5 68 130.5 123 Z" /><glyph glyph-name="" unicode="&#x7684;" d="M754 821 l0 428 l-430 0 l0 -428 l430 0 ZM324 195 l430 0 l0 491 l-430 0 l0 -491 ZM496 1718 l163 -30 q-26 -76 -53 -155.5 q-27 -79.5 -53 -146.5 l340 0 l0 -1329 l-569 0 l0 -161 l-140 0 l0 1490 l230 0 q23 74 47 167 q24 93 35 165 ZM1894 1393 l0 -78 q-12 -350 -24 -592 q-12 -242 -27.5 -396 q-15.5 -154 -37 -239 q-21.5 -85 -52.5 -123 q-34 -43 -71.5 -60 q-37.5 -17 -90.5 -22 q-53 -6 -135 -4 q-82 2 -168 6 q-3 34 -16.5 76 q-13.5 42 -34.5 74 q100 -9 184 -10.5 q84 -1.5 119 -1.5 q31 0 50 5 q19 5 34 25 q25 27 44 103.5 q19 76.5 33.5 217 q14.5 140.5 26 356.5 q11.5 216 21.5 521 l-520 0 q-43 -103 -91 -194.5 q-48 -91.5 -102 -163.5 q-20 18 -60 44.5 q-40 26.5 -65 41.5 q103 135 184 334 q81 199 130 409 l145 -34 q-18 -76 -40 -149.5 q-22 -73.5 -48 -145.5 l612 0 ZM1571 471 l-129 -80 q-31 62 -83 144 q-52 82 -112 169 q-60 87 -117 160 l119 70 q58 -73 120 -157.5 q62 -84.5 115.5 -165 q53.5 -80.5 86.5 -140.5 Z" /><glyph glyph-name="" unicode="&#x77ed;" d="M1935 1624 l0 -141 l-1024 0 l0 141 l1024 0 ZM1708 758 l0 370 l-590 0 l0 -370 l590 0 ZM1855 1264 l0 -641 l-878 0 l0 641 l878 0 ZM1309 119 l-135 -37 q-10 56 -31.5 129.5 q-21.5 73.5 -50 150.5 q-28.5 77 -58.5 144 l127 33 q48 -99 89.5 -216.5 q41.5 -117.5 58.5 -203.5 ZM858 211 l-100 -123 q-23 41 -62.5 103 q-39.5 62 -85 129 q-45.5 67 -86.5 124 q-41 -153 -121.5 -300 q-80.5 -147 -214.5 -267 q-15 22 -48.5 55.5 q-33.5 33.5 -53.5 47.5 q125 112 198 244.5 q73 132.5 108.5 271 q35.5 138.5 47.5 270.5 l-344 0 l0 137 l350 0 q2 22 2.5 42 q0.5 20 0.5 40 l0 315 l-113 0 q-28 -90 -59.5 -171 q-31.5 -81 -69.5 -146 q-17 17 -54.5 42.5 q-37.5 25.5 -62.5 37.5 q72 121 118 293.5 q46 172.5 71 355.5 l139 -24 q-9 -65 -20 -127.5 q-11 -62.5 -25 -122.5 l469 0 l0 -138 l-252 0 l0 -317 q0 -20 -0.5 -39 q-0.5 -19 -1.5 -41 l280 0 l0 -137 l-288 0 q-3 -38 -8 -78 q-5 -40 -13 -80 q28 -34 71.5 -90.5 q43.5 -56.5 90 -118.5 q46.5 -62 84 -113.5 q37.5 -51.5 53.5 -74.5 ZM1610 47 l348 0 l0 -143 l-1129 0 l0 143 l635 0 q34 72 69 161 q35 89 65.5 179 q30.5 90 50.5 166 l153 -35 q-43 -114 -93 -241 q-50 -127 -99 -230 Z" /><glyph glyph-name="" unicode="&#x7801;" d="M616 238 l0 604 l-239 0 l0 -604 l239 0 ZM111 1464 l0 142 l698 0 l0 -142 l-305 0 q-47 -259 -127 -487 l375 0 l0 -877 l-375 0 l0 -166 l-133 0 l0 740 q-25 -45 -51.5 -86 q-26.5 -41 -55.5 -78 q-7 28 -29 80.5 q-22 52.5 -40 81.5 q107 144 179 351.5 q72 207.5 113 440.5 l-249 0 ZM1620 422 l0 -137 l-778 0 l0 137 l778 0 ZM1665 821 l252 0 q0 0 -1.5 -26 q-1.5 -26 -2.5 -41 q-23 -275 -47 -445.5 q-24 -170.5 -52.5 -262 q-28.5 -91.5 -64.5 -128.5 q-56 -59 -139 -61 q-40 -5 -105 -4 q-65 1 -139 4 q-3 32 -14 72 q-11 40 -29 69 q75 -9 137.5 -10.5 q62.5 -1.5 89.5 -1.5 q26 0 44.5 4.5 q18.5 4.5 33.5 19.5 q27 26 50.5 100.5 q23.5 74.5 44.5 215 q21 140.5 40 364.5 l-825 0 q13 83 26 193.5 q13 110.5 23.5 226.5 q10.5 116 18.5 215 l141 -8 q-8 -117 -21.5 -249.5 q-13.5 -132.5 -27.5 -246.5 l426 0 q12 103 24.5 215 q12.5 112 23.5 219.5 q11 107.5 19 196.5 l-682 0 l0 139 l709 0 l22 8 l107 -12 q-8 -105 -20.5 -235.5 q-12.5 -130.5 -28.5 -267.5 q-16 -137 -33 -263 Z" /><glyph glyph-name="" unicode="&#x7b7e;" d="M500 1407 l-92 0 q-94 -175 -199 -299 q-20 18 -58.5 42 q-38.5 24 -66.5 38 q95 100 174.5 242 q79.5 142 128.5 292 l141 -36 q-13 -37 -28.5 -75.5 q-15.5 -38.5 -32.5 -76.5 l510 0 l0 -127 l-326 0 q34 -58 61.5 -119 q27.5 -61 41.5 -108 l-136 -39 q-15 52 -48 126 q-33 74 -70 140 ZM1550 610 l140 -41 q-62 -133 -137.5 -275.5 q-75.5 -142.5 -149.5 -260.5 l506 0 l0 -135 l-1772 0 l0 135 l1092 0 q87 118 172.5 274 q85.5 156 148.5 303 ZM1434 825 l0 -129 l-826 0 l0 129 l826 0 ZM1178 213 l-127 -53 q-14 54 -42.5 126 q-28.5 72 -65 147.5 q-36.5 75.5 -73.5 139.5 l121 48 q38 -66 75 -140.5 q37 -74.5 66.5 -145 q29.5 -70.5 45.5 -122.5 ZM367 518 l122 53 q45 -60 89.5 -130.5 q44.5 -70.5 81.5 -137.5 q37 -67 59 -119 l-129 -61 q-20 52 -55.5 120.5 q-35.5 68.5 -79.5 140.5 q-44 72 -88 134 ZM1077 1284 l76 -39 q-11 -12 -21.5 -24.5 q-10.5 -12.5 -21.5 -24.5 q97 -85 240.5 -166 q143.5 -81 305 -146.5 q161.5 -65.5 312.5 -103.5 q-26 -21 -53.5 -58 q-27.5 -37 -44.5 -67 q-144 44 -298.5 115 q-154.5 71 -296.5 160 q-142 89 -249 186 q-172 -157 -398 -279.5 q-226 -122.5 -456 -199.5 q-17 26 -40.5 62 q-23.5 36 -49.5 59 q171 51 344 129 q173 78 324 177.5 q151 99.5 256 215.5 q-22 15 -45 30.5 q-23 15.5 -39 24.5 q81 72 148 175 q67 103 106 212 l143 -34 q-15 -39 -33.5 -77.5 q-18.5 -38.5 -38.5 -76.5 l670 0 l0 -127 l-395 0 q44 -58 83 -120.5 q39 -62.5 60 -112.5 l-143 -35 q-20 53 -65.5 127.5 q-45.5 74.5 -94.5 140.5 l-191 0 q-23 -34 -46 -64.5 q-23 -30.5 -48 -58.5 Z" /></font>
</defs>
</svg>
