<?xml version="1.0" standalone="no"?><!DOCTYPE svg PUBLIC "-//W3C//DTD SVG 1.1//EN" "http://www.w3.org/Graphics/SVG/1.1/DTD/svg11.dtd" ><svg xmlns="http://www.w3.org/2000/svg"><metadata></metadata><defs><font id="DeepakSinghDogra: Geometos: 2015" horiz-adv-x="1374"><font-face font-family="Geometos" font-weight="400" font-stretch="normal" units-per-em="1000" panose-1="0 0 0 0 0 0 0 0 0 0" ascent="750" descent="-250" x-height="0" bbox="-25 -210 1342 922" underline-thickness="50" underline-position="-75" unicode-range="U+0000-2265" /><missing-glyph horiz-adv-x="500"  /><glyph glyph-name="NULL" unicode="" d="" /><glyph glyph-name="nonmarkingreturn" unicode="" d="" /><glyph glyph-name="space" unicode=" " d="" /><glyph glyph-name="E" unicode="e" d="M219 608 l0 -183 l354 0 l0 -127 l-354 0 l0 -172 l399 0 l0 -126 l-538 0 l0 732 l538 0 l0 -124 l-399 0 Z" /><glyph glyph-name="F" unicode="f" d="M220 607 l0 -180 l353 0 l0 -129 l-353 0 l0 -298 l-140 0 l0 732 l538 0 l0 -125 l-398 0 Z" /><glyph glyph-name="G" unicode="g" d="M790 400 q-1 -21 -1 -39 q-1 -16 -1 -31.5 q0 -15.5 -1 -23.5 q-6 -69 -37.5 -128 q-31.5 -59 -81 -101.5 q-49.5 -42.5 -114 -66.5 q-64.5 -24 -135.5 -24 q-78 0 -147 30 q-69 30 -120.5 81.5 q-51.5 51.5 -81.5 120.5 q-30 69 -30 147 q0 78 30 147.5 q30 69.5 81.5 121 q51.5 51.5 120.5 81.5 q69 30 147 30 q99 0 181.5 -46 q82.5 -46 133.5 -123 l-120 -73 q-32 47 -83.5 79 q-51.5 32 -111.5 32 q-50 0 -93.5 -20.5 q-43.5 -20.5 -76 -54.5 q-32.5 -34 -51.5 -79.5 q-19 -45.5 -19 -94.5 q0 -50 19 -95 q19 -45 51.5 -79 q32.5 -34 76 -54.5 q43.5 -20.5 93.5 -20.5 q38 0 73 11.5 q35 11.5 64 32.5 q29 21 50.5 50 q21.5 29 31.5 64 l-270 0 l0 126 l422 0 Z" /><glyph glyph-name="H" unicode="h" d="M720 732 l0 -732 l-139 0 l0 291 l-362 0 l0 -291 l-139 0 l0 732 l139 0 l0 -316 l362 0 l0 316 l139 0 Z" /><glyph glyph-name="I" unicode="i" d="M240 0 l-140 0 l0 731 l140 0 l0 -731 Z" /><glyph glyph-name="J" unicode="j" d="M532 731 l0 -459 q0 -64 -19.5 -117 q-19.5 -53 -55 -90.5 q-35.5 -37.5 -85.5 -58 q-50 -20.5 -111 -20.5 q-86 0 -148.5 40 q-62.5 40 -94.5 111 l127 57 q6 -14 16 -28.5 q10 -14.5 24 -26 q14 -11.5 32.5 -19 q18.5 -7.5 43.5 -7.5 q43 0 68.5 17 q25.5 17 39.5 42 q14 25 18.5 52 q4.5 27 4.5 48 l0 459 l140 0 Z" /><glyph glyph-name="K" unicode="k" d="M527 0 l-307 333 l0 -333 l-140 0 l0 732 l140 0 l0 -372 l291 371 l172 0 l-301 -378 l330 -353 l-185 0 Z" /><glyph glyph-name="L" unicode="l" d="M607 124 l0 -124 l-527 0 l0 732 l140 0 l0 -608 l387 0 Z" /><glyph glyph-name="M" unicode="m" d="M817 731 l0 -731 l-140 0 l0 370 l-229 -275 l-228 275 l0 -370 l-140 0 l0 731 l9 0 l359 -422 l360 422 l9 0 Z" /><glyph glyph-name="N" unicode="n" d="M701 0 l-482 435 l0 -435 l-139 0 l0 731 l15 0 l481 -442 l0 442 l140 0 l0 -731 l-15 0 Z" /><glyph glyph-name="O" unicode="o" d="M422 -14 q-78 0 -147 30 q-69 30 -120.5 81.5 q-51.5 51.5 -81.5 120.5 q-30 69 -30 148 q0 78 30 147.5 q30 69.5 81.5 121 q51.5 51.5 120.5 81.5 q69 30 147 30 q79 0 148 -30 q69 -30 120.5 -81.5 q51.5 -51.5 81.5 -121 q30 -69.5 30 -147.5 q0 -79 -30 -148 q-30 -69 -81.5 -120.5 q-51.5 -51.5 -120.5 -81.5 q-69 -30 -148 -30 ZM422 615 q-50 0 -93.5 -20.5 q-43.5 -20.5 -76 -54.5 q-32.5 -34 -51.5 -79.5 q-19 -45.5 -19 -94.5 q0 -50 19 -95 q19 -45 51.5 -79.5 q32.5 -34.5 76 -55 q43.5 -20.5 93.5 -20.5 q50 0 93.5 20.5 q43.5 20.5 76 55 q32.5 34.5 51.5 79.5 q19 45 19 95 q0 49 -19 94.5 q-19 45.5 -51.5 79.5 q-32.5 34 -76 54.5 q-43.5 20.5 -93.5 20.5 Z" /><glyph glyph-name="P" unicode="p" d="M406 732 q54 0 101.5 -20.5 q47.5 -20.5 82.5 -55.5 q35 -35 55.5 -82.5 q20.5 -47.5 20.5 -101.5 q0 -54 -18 -100 q-18 -46 -53 -80.5 q-35 -34.5 -88.5 -54 q-53.5 -19.5 -123.5 -19.5 l-163 0 l0 -218 l-140 0 l0 732 l326 0 ZM406 344 q31 0 54 10.5 q23 10.5 37.5 28.5 q14.5 18 21.5 41 q7 23 7 48 q0 25 -9 49.5 q-9 24.5 -26 43.5 q-17 19 -42 31 q-25 12 -58 12 l-171 0 l0 -264 l186 0 Z" /><glyph glyph-name="Q" unicode="q" d="M803 128 l0 -129 l-364 0 q-102 0 -176.5 29.5 q-74.5 29.5 -123.5 80 q-49 50.5 -72.5 118.5 q-23.5 68 -23.5 145 q0 77 29.5 145 q29.5 68 80 118.5 q50.5 50.5 118 80 q67.5 29.5 144.5 29.5 q77 0 145 -29.5 q68 -29.5 118.5 -80 q50.5 -50.5 80 -118.5 q29.5 -68 29.5 -145 q0 -33 -7.5 -68 q-7.5 -35 -24.5 -68 q-17 -33 -43.5 -61 q-26.5 -28 -65.5 -47 l156 0 ZM182 372 q0 -48 18.5 -91 q18.5 -43 50 -75.5 q31.5 -32.5 74 -51.5 q42.5 -19 90.5 -19 q48 0 90.5 19 q42.5 19 74 51.5 q31.5 32.5 50 75.5 q18.5 43 18.5 91 q0 48 -18.5 91.5 q-18.5 43.5 -50 75.5 q-31.5 32 -74 51 q-42.5 19 -90.5 19 q-48 0 -90.5 -19 q-42.5 -19 -74 -51 q-31.5 -32 -50 -75.5 q-18.5 -43.5 -18.5 -91.5 Z" /><glyph glyph-name="R" unicode="r" d="M219 0 l-139 0 l0 732 l332 0 q56 0 102.5 -18.5 q46.5 -18.5 79.5 -52 q33 -33.5 51.5 -80 q18.5 -46.5 18.5 -101.5 q0 -83 -41.5 -145 q-41.5 -62 -110.5 -89 q93 -122 183 -246 l-167 0 q-44 57 -86 115 q-42 58 -84 118 l-139 0 l0 -233 ZM219 357 l193 0 q19 0 39.5 7.5 q20.5 7.5 36.5 23 q16 15.5 26.5 38.5 q10.5 23 10.5 54 q0 16 -4 38 q-4 22 -16 42 q-12 20 -34 34 q-22 14 -59 14 l-193 0 l0 -251 Z" /><glyph glyph-name="S" unicode="s" d="M51 96 l76 112 q55 -38 113.5 -65.5 q58.5 -27.5 122.5 -27.5 q34 0 60 8.5 q26 8.5 44 22 q18 13.5 27 31 q9 17.5 9 34.5 q0 22 -13.5 37.5 q-13.5 15.5 -36 25.5 q-22.5 10 -53 17 q-30.5 7 -63.5 13 q-22 4 -51 9.5 q-29 5.5 -60 15 q-31 9.5 -61 25 q-30 15.5 -54 39 q-24 23.5 -38.5 56 q-14.5 32.5 -14.5 76.5 q0 64 26 106.5 q26 42.5 66.5 67 q40.5 24.5 90 34.5 q49.5 10 95.5 10 q46 0 82 -6 q36 -6 67 -17.5 q31 -11.5 60.5 -29 q29.5 -17.5 63.5 -41.5 l-78 -110 q-52 36 -100 55 q-48 19 -101 19 q-18 0 -41 -4.5 q-23 -4.5 -43.5 -14.5 q-20.5 -10 -34 -25.5 q-13.5 -15.5 -13.5 -37.5 q0 -22 16 -37 q16 -15 41 -25 q25 -10 55 -17 q30 -7 58 -14 q21 -5 49.5 -10 q28.5 -5 59 -14 q30.5 -9 60.5 -24 q30 -15 53.5 -38.5 q23.5 -23.5 38 -58 q14.5 -34.5 14.5 -83.5 q0 -57 -20 -99 q-20 -42 -57 -69.5 q-37 -27.5 -88 -41.5 q-51 -14 -113 -14 q-57 0 -100.5 8.5 q-43.5 8.5 -79.5 23 q-36 14.5 -68 34.5 q-32 20 -66 44 Z" /><glyph glyph-name="T" unicode="t" d="M606 608 l-209 0 l0 -608 l-140 0 l0 608 l-210 0 l0 124 l559 0 l0 -124 Z" /><glyph glyph-name="U" unicode="u" d="M394 -13 q-71 0 -129 22 q-58 22 -99 62 q-41 40 -63.5 97 q-22.5 57 -22.5 127 l0 436 l140 0 l0 -436 q0 -55 18 -91 q18 -36 44.5 -57 q26.5 -21 57 -29 q30.5 -8 54.5 -8 q24 0 54.5 8 q30.5 8 57 29 q26.5 21 44.5 57 q18 36 18 91 l0 436 l140 0 l0 -436 q0 -70 -22 -127 q-22 -57 -63 -97 q-41 -40 -99 -62 q-58 -22 -130 -22 Z" /><glyph glyph-name="V" unicode="v" d="M716 731 l-348 -731 l-8 0 l-347 731 l154 0 l197 -424 l197 424 l155 0 Z" /><glyph glyph-name="W" unicode="w" d="M981 731 l-273 -731 l-14 0 l-198 426 l-200 -427 l-13 0 l-270 732 l149 0 l143 -401 l186 401 l9 0 l186 -402 l146 402 l149 0 Z" /><glyph glyph-name="X" unicode="x" d="M296 362 l-278 369 l175 0 l190 -263 l190 263 l174 0 l-277 -369 l272 -362 l-175 0 l-184 255 l-184 -255 l-175 0 l272 362 Z" /><glyph glyph-name="Y" unicode="y" d="M704 731 q-28 -46 -64.5 -105 q-36.5 -59 -74.5 -120.5 q-38 -61.5 -75 -121 q-37 -59.5 -65 -107.5 l0 -277 l-140 0 l0 277 q-65 114 -138 227 q-73 113 -139 227 l163 0 q45 -75 92 -155 q47 -80 92 -155 q22 35 46 75 q24 40 48 80.5 q24 40.5 47.5 80 q23.5 39.5 44.5 74.5 l163 0 Z" /><glyph glyph-name="Z" unicode="z" d="M675 714 l-408 -584 l394 0 l0 -130 l-640 0 l0 16 l409 586 l-378 0 l0 129 l623 0 l0 -17 Z" /><glyph glyph-name="A" unicode="a" d="M6 0 l374 731 l14 0 l374 -731 l-152 0 l-57 115 l-345 0 l-56 -115 l-152 0 ZM282 237 l209 0 l-104 221 l-105 -221 Z" /><glyph glyph-name="D" unicode="d" d="M369 0 l-289 0 l0 732 l289 0 q157 0 258 -92 q54 -49 81.5 -118.5 q27.5 -69.5 27.5 -155.5 q0 -87 -27.5 -156.5 q-27.5 -69.5 -81.5 -118.5 q-49 -45 -114.5 -68 q-65.5 -23 -143.5 -23 ZM220 124 l149 0 q39 0 79 9 q40 9 72.5 35.5 q32.5 26.5 53.5 73.5 q21 47 21 123 q0 76 -21 123.5 q-21 47.5 -54 73.5 q-33 26 -73 35 q-40 9 -78 9 l-149 0 l0 -482 Z" /><glyph glyph-name="period" unicode="." d="M172 66 q0 -31 -21.5 -52.5 q-21.5 -21.5 -52.5 -21.5 q-30 0 -51.5 21.5 q-21.5 21.5 -21.5 52.5 q0 30 21.5 51.5 q21.5 21.5 51.5 21.5 q31 0 52.5 -21.5 q21.5 -21.5 21.5 -51.5 Z" /><glyph glyph-name="comma" unicode="," d="M172 78 q7 -29 2.5 -60.5 q-4.5 -31.5 -20.5 -59 q-16 -27.5 -42 -48.5 q-26 -21 -62 -29 l-17 37 q32 10 48.5 29.5 q16.5 19.5 20.5 44.5 q-30 -1 -52 19.5 q-22 20.5 -24 50.5 q-2 31 19 53 q21 22 51 24 q28 1 48.5 -15.5 q20.5 -16.5 27.5 -45.5 Z" /><glyph glyph-name="question" unicode="?" d="M472 677 q26 -28 40.5 -63 q14.5 -35 14.5 -73 q0 -49 -14.5 -83.5 q-14.5 -34.5 -36.5 -58 q-22 -23.5 -47 -39 q-25 -15.5 -47 -27.5 q-17 -9 -31 -17.5 q-14 -8.5 -21 -17.5 q-17 -24 -21 -48 q-4 -24 -2 -38 l-140 0 q-2 32 7.5 77 q9.5 45 42.5 91 q21 29 47.5 45.5 q26.5 16.5 52.5 30.5 q19 10 32.5 18.5 q13.5 8.5 22 17.5 q8.5 9 12 20.5 q3.5 11.5 3.5 28.5 q0 6 -3 18 q-3 12 -14.5 23.5 q-11.5 11.5 -34 20 q-22.5 8.5 -62.5 8.5 q-33 0 -57 -9.5 q-24 -9.5 -40.5 -25 q-16.5 -15.5 -26.5 -34 q-10 -18.5 -16 -36.5 l-133 43 q6 18 22 51.5 q16 33.5 47.5 67 q31.5 33.5 81 58.5 q49.5 25 122.5 25 q40 0 72 -7 q32 -7 56.5 -17.5 q24.5 -10.5 41.5 -23.5 q17 -13 29 -26 ZM309 0 l-140 0 l0 149 l140 0 l0 -149 Z" /><glyph glyph-name="exclam" unicode="!" d="M196 213 l-100 0 l-25 518 l150 0 l-25 -518 ZM216 0 l-140 0 l0 149 l140 0 l0 -149 Z" /><glyph glyph-name="parenleft" unicode="(" d="M305 699 q-60 -63 -90 -147 q-30 -84 -30 -186 q0 -102 30 -186 q30 -84 90 -147 q13 -13 26.5 -24.5 q13.5 -11.5 28.5 -22.5 l-79 -106 q-21 15 -40.5 31.5 q-19.5 16.5 -36.5 35.5 q-78 82 -118.5 186 q-40.5 104 -40.5 233 q0 130 40.5 233.5 q40.5 103.5 118.5 185.5 q17 19 36.5 35.5 q19.5 16.5 40.5 31.5 l79 -105 q-29 -20 -55 -48 Z" /><glyph glyph-name="parenright" unicode=")" d="M65 699 q-26 28 -55 48 l79 105 q21 -15 40.5 -31.5 q19.5 -16.5 36.5 -35.5 q78 -82 118.5 -185.5 q40.5 -103.5 40.5 -233.5 q0 -129 -40.5 -233 q-40.5 -104 -118.5 -186 q-17 -19 -36.5 -35.5 q-19.5 -16.5 -40.5 -31.5 l-79 106 q15 11 28.5 22.5 q13.5 11.5 26.5 24.5 q60 63 90 147 q30 84 30 186 q0 102 -30 186 q-30 84 -90 147 Z" /><glyph glyph-name="bracketleft" unicode="[" d="M363 -158 l-271 0 l0 1057 l271 0 l0 -125 l-131 0 l0 -807 l131 0 l0 -125 Z" /><glyph glyph-name="bracketright" unicode="]" d="M0 -158 l0 125 l131 0 l0 807 l-131 0 l0 125 l271 0 l0 -1057 l-271 0 Z" /><glyph glyph-name="plus" unicode="+" d="M532 313 l-184 0 l0 -187 l-129 0 l0 187 l-184 0 l0 123 l184 0 l0 187 l129 0 l0 -187 l184 0 l0 -123 Z" /><glyph glyph-name="hyphen" unicode="-" d="M365 315 l-327 0 l0 123 l327 0 l0 -123 Z" /><glyph glyph-name="divide" unicode="÷" d="M562 310 l-514 0 l0 123 l514 0 l0 -123 ZM375 604 q0 -29 -20.5 -49.5 q-20.5 -20.5 -49.5 -20.5 q-29 0 -49.5 20.5 q-20.5 20.5 -20.5 49.5 q0 29 20.5 49.5 q20.5 20.5 49.5 20.5 q29 0 49.5 -20.5 q20.5 -20.5 20.5 -49.5 ZM375 141 q0 -29 -20.5 -49.5 q-20.5 -20.5 -49.5 -20.5 q-29 0 -49.5 20.5 q-20.5 20.5 -20.5 49.5 q0 29 20.5 49 q20.5 20 49.5 20 q29 0 49.5 -20 q20.5 -20 20.5 -49 Z" /><glyph glyph-name="equal" unicode="=" d="M506 423 l-455 0 l0 123 l455 0 l0 -123 ZM506 181 l-455 0 l0 123 l455 0 l0 -123 Z" /><glyph glyph-name="asterisk" unicode="*" d="M216 473 l-66 -93 l-79 53 l73 93 l-113 39 l29 85 l110 -39 l0 119 l93 0 l0 -119 l109 39 l29 -85 l-112 -39 l73 -93 l-80 -53 l-66 93 Z" /><glyph glyph-name="copyright" unicode="©" d="M413 -12 q-78 0 -146.5 29.5 q-68.5 29.5 -119.5 80.5 q-51 51 -80.5 119.5 q-29.5 68.5 -29.5 146.5 q0 78 29.5 146.5 q29.5 68.5 80.5 119.5 q51 51 119.5 80.5 q68.5 29.5 146.5 29.5 q78 0 146.5 -29.5 q68.5 -29.5 119.5 -80.5 q51 -51 80.5 -119.5 q29.5 -68.5 29.5 -146.5 q0 -78 -29.5 -146.5 q-29.5 -68.5 -80.5 -119.5 q-51 -51 -119.5 -80.5 q-68.5 -29.5 -146.5 -29.5 ZM413 645 q-58 0 -109.5 -22 q-51.5 -22 -89.5 -60.5 q-38 -38.5 -60.5 -89.5 q-22.5 -51 -22.5 -109 q0 -58 22.5 -109.5 q22.5 -51.5 60.5 -89.5 q38 -38 89.5 -60.5 q51.5 -22.5 109.5 -22.5 q58 0 109 22.5 q51 22.5 89.5 60.5 q38.5 38 60.5 89.5 q22 51.5 22 109.5 q0 58 -22 109 q-22 51 -60.5 89.5 q-38.5 38.5 -89.5 60.5 q-51 22 -109 22 ZM516 296 q-17 -25 -44 -40 q-27 -15 -59 -15 q-26 0 -48.5 9.5 q-22.5 9.5 -39 26.5 q-16.5 17 -26.5 39 q-10 22 -10 48 q0 25 10 47.5 q10 22.5 26.5 39.5 q16.5 17 39 26.5 q22.5 9.5 48.5 9.5 q34 0 61.5 -16.5 q27.5 -16.5 44.5 -43.5 l73 29 q-26 49 -73 79 q-47 30 -106 30 q-42 0 -78.5 -16 q-36.5 -16 -64 -43 q-27.5 -27 -43.5 -63.5 q-16 -36.5 -16 -78.5 q0 -42 16 -78.5 q16 -36.5 43.5 -64 q27.5 -27.5 64 -43.5 q36.5 -16 78.5 -16 q57 0 103.5 29 q46.5 29 72.5 76 l-73 29 Z" /><glyph glyph-name="at" unicode="@" d="M700 661 q106 -89 106 -256 q0 -169 -79 -229 q-25 -19 -55.5 -24.5 q-30.5 -5.5 -62.5 3.5 q-23 6 -40.5 19 q-17.5 13 -30.5 30 q-23 -23 -56 -37 q-33 -14 -75 -14 q-90 0 -141 55.5 q-51 55.5 -51 152.5 q0 46 14 84 q14 38 39.5 65 q25.5 27 61 42 q35.5 15 78.5 15 q32 0 54.5 -7.5 q22.5 -7.5 39.5 -19.5 l0 23 l101 0 l0 -249 q0 -10 1 -21 q1 -11 5 -21 q4 -10 10 -17.5 q6 -7.5 17 -10.5 q35 -8 52.5 35 q17.5 43 17.5 126 q0 60 -18 107 q-18 47 -53 76 q-36 30 -89.5 46.5 q-53.5 16.5 -125.5 16.5 q-72 0 -124 -25 q-52 -25 -85.5 -65 q-33.5 -40 -50 -90.5 q-16.5 -50.5 -16.5 -101.5 q0 -48 10 -100.5 q10 -52.5 38.5 -96 q28.5 -43.5 78.5 -71.5 q50 -28 130 -28 q55 0 89.5 7 q34.5 7 53.5 15.5 q19 8.5 26 16 q7 7.5 8 8.5 l76 -66 q-11 -12 -30.5 -24 q-19.5 -12 -49.5 -21.5 q-30 -9.5 -72.5 -16 q-42.5 -6.5 -100.5 -6.5 q-84 0 -150.5 26 q-66.5 26 -112.5 75.5 q-46 49.5 -70.5 120.5 q-24.5 71 -24.5 161 q0 76 25 143 q25 67 72 118 q52 57 123 86 q71 29 157 29 q181 0 280 -84 ZM502 388 q0 14 -3.5 30 q-3.5 16 -13 29.5 q-9.5 13.5 -28 22.5 q-18.5 9 -49.5 9 q-27 0 -44 -12 q-17 -12 -26.5 -30 q-9.5 -18 -13 -38.5 q-3.5 -20.5 -3.5 -37.5 q0 -35 8 -57 q8 -22 21 -35.5 q13 -13.5 28 -18.5 q15 -5 29 -5 q18 0 35 4.5 q17 4.5 30 16 q13 11.5 21.5 30 q8.5 18.5 8.5 45.5 l0 47 Z" /><glyph glyph-name="ampersand" unicode="&amp;" d="M552 -14 l-94 96 q-34 -29 -65 -47 q-31 -18 -57.5 -28.5 q-26.5 -10.5 -47.5 -14 q-21 -3.5 -34 -4.5 q-43 -2 -81 10 q-38 12 -68 36 q-30 24 -49.5 57.5 q-19.5 33.5 -24.5 74.5 q-7 60 16.5 105 q23.5 45 68.5 83 q11 9 28.5 21.5 q17.5 12.5 29.5 20.5 q-35 42 -50.5 88 q-15.5 46 -8.5 94 q5 42 26.5 76 q21.5 34 55.5 57 q35 23 77.5 30.5 q42.5 7.5 83.5 -3.5 q41 -11 74 -39 q33 -28 50 -66 q18 -38 17 -79.5 q-1 -41.5 -20 -80.5 q-16 -32 -45.5 -56.5 q-29.5 -24.5 -66.5 -46.5 l88 -91 q36 51 53.5 82 q17.5 31 17.5 32 l121 -59 q-1 -2 -21.5 -39 q-20.5 -37 -62.5 -96 q-4 -5 -7 -9 q-3 -4 -6 -9 l107 -114 l-105 -81 ZM245 303 q-27 -15 -47 -32 q-4 -3 -10.5 -10 q-6.5 -7 -12.5 -18 q-6 -11 -9.5 -26.5 q-3.5 -15.5 -0.5 -35.5 q3 -28 26.5 -48 q23.5 -20 56.5 -22 q24 -1 43.5 5 q19.5 6 35 15 q15.5 9 27.5 19 q12 10 21 19 l-130 134 ZM242 569 q-3 -29 10 -59.5 q13 -30.5 32 -50.5 q14 8 29.5 19 q15.5 11 26.5 22 q31 32 31 75 q0 26 -18 41.5 q-18 15.5 -41.5 16.5 q-23.5 1 -44.5 -14 q-21 -15 -25 -50 Z" /><glyph glyph-name="slash" unicode="/" d="M-25 -138 l445 972 l130 0 l-445 -972 l-130 0 Z" /><glyph glyph-name="section" unicode="§" d="M408 262 q16 -5 29.5 -17.5 q13.5 -12.5 22.5 -29.5 q9 -17 14 -35.5 q5 -18.5 5 -34.5 q0 -42 -18.5 -72 q-18.5 -30 -48 -49.5 q-29.5 -19.5 -66.5 -28.5 q-37 -9 -75 -9 q-41 0 -78 10 q-37 10 -66.5 23.5 q-29.5 13.5 -51 27.5 q-21.5 14 -31.5 21 l61 86 q8 -5 24 -16 q16 -11 37.5 -22 q21.5 -11 47.5 -19.5 q26 -8.5 55 -8.5 q14 0 31 3.5 q17 3.5 31.5 10.5 q14.5 7 24.5 17.5 q10 10.5 10 25.5 q0 15 -10 24.5 q-10 9.5 -26 15.5 q-16 6 -37 11 q-21 5 -43 11 q-22 4 -56.5 12 q-34.5 8 -67.5 25.5 q-33 17.5 -56.5 46 q-23.5 28.5 -23.5 75.5 q0 28 12 49.5 q12 21.5 27.5 36 q15.5 14.5 30.5 22.5 q15 8 20 10 q-42 11 -66 43.5 q-24 32.5 -24 68.5 q0 49 25 78.5 q25 29.5 58 45 q33 15.5 65.5 20 q32.5 4.5 48.5 4.5 q57 0 107.5 -17 q50.5 -17 102.5 -53 l-63 -85 q-38 31 -74 44 q-36 13 -75 13 q-44 0 -63 -13.5 q-19 -13.5 -19 -35.5 q0 -17 13.5 -28.5 q13.5 -11.5 33 -19 q19.5 -7.5 40.5 -12 q21 -4.5 35 -7.5 q22 -5 56 -14 q34 -9 65 -26.5 q31 -17.5 53.5 -46.5 q22.5 -29 22.5 -74 q0 -42 -20.5 -70.5 q-20.5 -28.5 -49.5 -36.5 ZM142 360 q5 -17 26 -29 q21 -12 47 -20 q26 -8 51 -12 q25 -4 39 -4 q13 0 27 4 q14 4 25 12.5 q11 8.5 18 20.5 q7 12 7 27 q0 16 -15 32 q-15 16 -38 28 q-23 12 -52 19.5 q-29 7.5 -56 7.5 q2 0 -10.5 -0.5 q-12.5 -0.5 -28.5 -6.5 q-16 -6 -29.5 -19.5 q-13.5 -13.5 -13.5 -38.5 q0 -9 3 -21 Z" /><glyph glyph-name="cent" unicode="¢" d="M337 189 q27 0 47 6.5 q20 6.5 35.5 17 q15.5 10.5 27.5 24.5 q12 14 23 29 l126 -51 q-31 -54 -80.5 -91.5 q-49.5 -37.5 -112.5 -51.5 l0 -84 l-140 0 l0 86 q-48 12 -89.5 39.5 q-41.5 27.5 -71.5 65.5 q-30 38 -47 85.5 q-17 47.5 -17 99.5 q0 52 17 99 q17 47 47 85.5 q30 38.5 71.5 66 q41.5 27.5 89.5 39.5 l0 91 l140 0 l0 -89 q63 -14 114 -53 q51 -39 82 -95 l-126 -51 q-11 16 -24 31 q-13 15 -29.5 26 q-16.5 11 -37 18 q-20.5 7 -45.5 7 q-34 0 -64 -12.5 q-30 -12.5 -52.5 -35.5 q-22.5 -23 -35.5 -55 q-13 -32 -13 -72 q0 -39 13 -71 q13 -32 35.5 -55 q22.5 -23 52.5 -36 q30 -13 64 -13 Z" /><glyph glyph-name="braceleft" unicode="{" d="M269 12 q16 -19 37 -29 q21 -10 40.5 -15 q19.5 -5 33.5 -6 q14 -1 14 -1 l0 -134 l-1 0 q-7 0 -32 2 q-25 2 -58.5 12 q-33.5 10 -69.5 29.5 q-36 19.5 -66 55.5 q-23 27 -34.5 58.5 q-11.5 31.5 -16.5 63 q-5 31.5 -5.5 61 q-0.5 29.5 -0.5 50.5 q0 35 0.5 59.5 q0.5 24.5 -4 41.5 q-4.5 17 -17.5 26.5 q-13 9.5 -40 14.5 l0 138 q25 3 38 15 q13 12 18 30.5 q5 18.5 5 43.5 q0 25 0 53 q0 21 0.5 50 q0.5 29 5.5 61 q5 32 16.5 63.5 q11.5 31.5 34.5 58.5 q30 36 67.5 56 q37.5 20 71 29 q33.5 9 58 11 q24.5 2 30.5 2 l0 -134 q0 0 -14 -1 q-14 -1 -33.5 -5.5 q-19.5 -4.5 -40.5 -15 q-21 -10.5 -37 -28.5 q-10 -12 -15 -31 q-5 -19 -7.5 -39.5 q-2.5 -20.5 -2.5 -40.5 q0 -20 0 -33 q1 -17 1.5 -47 q0.5 -30 -4 -62.5 q-4.5 -32.5 -15.5 -61.5 q-11 -29 -33 -43 q22 -24 32.5 -50 q10.5 -26 14 -53 q3.5 -27 3 -55 q-0.5 -28 1.5 -56 q0 -14 0 -33.5 q0 -19.5 2.5 -40 q2.5 -20.5 7.5 -39.5 q5 -19 15 -31 Z" /><glyph glyph-name="braceright" unicode="}" d="M142 12 q10 12 15 31 q5 19 7.5 39.5 q2.5 20.5 2.5 40 q0 19.5 0 33.5 q2 28 1.5 56 q-0.5 28 3 55 q3.5 27 13.5 53 q10 26 33 50 q-22 14 -33 43 q-11 29 -15.5 61.5 q-4.5 32.5 -4.5 62.5 q0 30 2 47 q0 13 0 33 q0 20 -2.5 40.5 q-2.5 20.5 -7.5 39.5 q-5 19 -15 31 q-16 18 -37 28.5 q-21 10.5 -40.5 15 q-19.5 4.5 -33.5 5.5 q-14 1 -14 1 l0 134 q6 0 30.5 -2 q24.5 -2 58 -11 q33.5 -9 71 -29 q37.5 -20 67.5 -56 q22 -27 34 -58.5 q12 -31.5 17 -63.5 q5 -32 5.5 -61 q0.5 -29 0.5 -50 q0 -28 0 -53 q0 -25 5 -43.5 q5 -18.5 17.5 -30.5 q12.5 -12 38.5 -15 l0 -138 q-27 -5 -40 -14.5 q-13 -9.5 -17.5 -26.5 q-4.5 -17 -4 -41.5 q0.5 -24.5 0.5 -59.5 q0 -21 -0.5 -50.5 q-0.5 -29.5 -5.5 -61 q-5 -31.5 -17 -63 q-12 -31.5 -34 -58.5 q-30 -36 -66 -55.5 q-36 -19.5 -69.5 -29.5 q-33.5 -10 -58.5 -12 q-25 -2 -32 -2 l-1 0 l0 134 q0 0 14 1 q14 1 33.5 6 q19.5 5 40.5 15 q21 10 37 29 Z" /><glyph glyph-name="Euro" unicode="&#x20ac;" d="M668 148 q-1 -1 -7 -14 q-6 -13 -19.5 -31 q-13.5 -18 -33.5 -38.5 q-20 -20.5 -48.5 -38 q-28.5 -17.5 -66 -29 q-37.5 -11.5 -83.5 -11.5 q-49 0 -98 14 q-49 14 -91 44.5 q-42 30.5 -73.5 79.5 q-31.5 49 -45.5 119 l-80 0 l0 101 l71 0 l0 3 q0 13 0.5 25 q0.5 12 1.5 23 l-73 0 l0 101 l90 0 q22 81 73 141 q43 52 101 79.5 q58 27.5 124 27.5 q63 0 109.5 -22 q46.5 -22 77.5 -49 q31 -27 46.5 -50.5 q15.5 -23.5 16.5 -25.5 l-123 -67 q-2 4 -11 18 q-9 14 -24.5 29.5 q-15.5 15.5 -38.5 27.5 q-23 12 -53 12 q-51 0 -89.5 -33.5 q-38.5 -33.5 -61.5 -87.5 l202 0 l0 -101 l-226 0 q-2 -11 -2 -23 q0 -12 0 -25 l0 -3 l228 0 l0 -101 l-215 0 q7 -25 20 -48.5 q13 -23.5 32.5 -41.5 q19.5 -18 47 -29 q27.5 -11 64.5 -11 q36 0 61 14 q25 14 40 31 q15 17 22 31.5 q7 14.5 7 14.5 l128 -56 ZM538 529 q0 0 -1 1 l1 -1 Z" /><glyph glyph-name="dollar" unicode="$" d="M259 824 l139 0 l0 -80 q30 -4 56 -11.5 q26 -7.5 50.5 -18.5 q24.5 -11 48.5 -26 q24 -15 51 -34 l-78 -110 q-52 36 -100 55 q-48 19 -101 19 q-18 0 -41 -4.5 q-23 -4.5 -43.5 -14.5 q-20.5 -10 -34 -25.5 q-13.5 -15.5 -13.5 -37.5 q0 -22 16 -37 q16 -15 41 -25 q25 -10 55 -17 q30 -7 58 -14 q21 -5 49.5 -10 q28.5 -5 59 -14 q30.5 -9 60.5 -24 q30 -15 53.5 -38.5 q23.5 -23.5 38 -58 q14.5 -34.5 14.5 -83.5 q0 -52 -17.5 -92 q-17.5 -40 -49 -68 q-31.5 -28 -75.5 -43.5 q-44 -15.5 -98 -19.5 l0 -81 l-139 0 l0 89 q-33 6 -60.5 15.5 q-27.5 9.5 -53 23 q-25.5 13.5 -49.5 29 q-24 15.5 -50 33.5 l76 112 q55 -38 113.5 -65.5 q58.5 -27.5 122.5 -27.5 q34 0 60 8.5 q26 8.5 44 22 q18 13.5 27 31 q9 17.5 9 34.5 q0 22 -13.5 37.5 q-13.5 15.5 -36 25.5 q-22.5 10 -53 17 q-30.5 7 -63.5 13 q-22 4 -51 9.5 q-29 5.5 -60 15 q-31 9.5 -61 25 q-30 15.5 -54 39 q-24 23.5 -38.5 56 q-14.5 32.5 -14.5 76.5 q0 52 17.5 89.5 q17.5 37.5 46.5 62.5 q29 25 66 39.5 q37 14.5 76 20.5 l0 82 Z" /><glyph glyph-name="numbersign" unicode="#" d="M690 183 l-135 0 l-72 -183 l-138 0 l72 183 l-129 0 l-71 -183 l-138 0 l71 183 l-132 0 l50 129 l133 0 l45 115 l-132 0 l50 129 l132 0 l69 177 l138 0 l-69 -177 l128 0 l70 177 l138 0 l-70 -177 l136 0 l-50 -129 l-136 0 l-45 -115 l135 0 l-50 -129 ZM512 427 l-128 0 l-45 -115 l128 0 l45 115 Z" /><glyph glyph-name="one" unicode="1" d="M365 733 l0 -733 l-140 0 l0 492 l-107 -102 l-96 102 l254 241 l89 0 Z" /><glyph glyph-name="two" unicode="2" d="M578 124 l0 -124 l-506 0 l0 139 q19 16 51.5 43.5 q32.5 27.5 69.5 58.5 q37 31 74 62 q37 31 65 54 q33 27 52.5 48.5 q19.5 21.5 29.5 40.5 q10 19 12.5 36 q2.5 17 2.5 34 q0 30 -10 49.5 q-10 19.5 -26.5 31.5 q-16.5 12 -37 17 q-20.5 5 -40.5 5 q-34 0 -56.5 -16.5 q-22.5 -16.5 -36.5 -37.5 q-14 -21 -20.5 -40 q-6.5 -19 -7.5 -23 l0 1 l-135 35 q7 27 25.5 62.5 q18.5 35.5 49.5 67.5 q31 32 76 54 q45 22 105 22 q65 0 113 -20.5 q48 -20.5 79.5 -53 q31.5 -32.5 46.5 -73 q15 -40.5 15 -81.5 q0 -42 -10.5 -77 q-10.5 -35 -31 -66 q-20.5 -31 -49 -60 q-28.5 -29 -64.5 -58 q-14 -11 -32.5 -27 q-18.5 -16 -40 -33.5 q-21.5 -17.5 -44 -36 q-22.5 -18.5 -43.5 -34.5 l324 0 Z" /><glyph glyph-name="three" unicode="3" d="M431 368 q20 -7 41 -19 q21 -12 38.5 -31.5 q17.5 -19.5 28.5 -49 q11 -29.5 11 -70.5 q0 -10 -1.5 -24.5 q-1.5 -14.5 -6 -31.5 q-4.5 -17 -13 -35 q-8.5 -18 -22.5 -36 q-21 -26 -47.5 -42.5 q-26.5 -16.5 -55 -26 q-28.5 -9.5 -56.5 -13 q-28 -3.5 -53 -3.5 q-64 0 -109 21.5 q-45 21.5 -74.5 53 q-29.5 31.5 -46.5 66.5 q-17 35 -24 61 l134 39 q1 -4 5 -23 q4 -19 16.5 -40 q12.5 -21 35.5 -38 q23 -17 63 -17 q58 0 86.5 26.5 q28.5 26.5 28.5 62.5 q0 38 -12 61 q-12 23 -35 36 q-23 13 -57.5 17.5 q-34.5 4.5 -79.5 6.5 l0 108 q43 2 77.5 5.5 q34.5 3.5 58 14.5 q23.5 11 36 32 q12.5 21 12.5 57 q0 36 -28.5 62 q-28.5 26 -86.5 26 q-40 0 -63 -17 q-23 -17 -35.5 -38 q-12.5 -21 -16.5 -39.5 q-4 -18.5 -5 -22.5 l-134 39 q7 26 24 61 q17 35 46.5 66.5 q29.5 31.5 74.5 53 q45 21.5 109 21.5 q70 0 119 -19.5 q49 -19.5 79 -50 q30 -30.5 43.5 -68 q13.5 -37.5 13.5 -74.5 q0 -41 -10.5 -68.5 q-10.5 -27.5 -28 -47 q-17.5 -19.5 -38.5 -31.5 q-21 -12 -42 -21 Z" /><glyph glyph-name="four" unicode="4" d="M633 286 l0 -124 l-89 0 l0 -162 l-140 0 l0 162 l-351 0 l0 120 l385 451 l106 0 l0 -447 l89 0 ZM404 497 l-172 -211 l172 0 l0 211 Z" /><glyph glyph-name="five" unicode="5" d="M313 489 q119 0 185.5 -67.5 q66.5 -67.5 66.5 -188.5 q0 -54 -20.5 -100.5 q-20.5 -46.5 -60.5 -81.5 q-36 -32 -83.5 -48.5 q-47.5 -16.5 -100.5 -16.5 q-53 0 -92.5 10.5 q-39.5 10.5 -70.5 28 q-31 17.5 -55 39 q-24 21.5 -45 43.5 l72 100 q0 0 13 -15 q13 -15 38 -32.5 q25 -17.5 60 -32 q35 -14.5 80 -15.5 q23 0 45.5 8.5 q22.5 8.5 40.5 24 q18 15.5 29 38 q11 22.5 11 50.5 q0 63 -31 102.5 q-31 39.5 -83 41.5 q-31 1 -55 -4 q-24 -5 -42.5 -14.5 q-18.5 -9.5 -31.5 -21 q-13 -11.5 -23 -21.5 l-106 57 l67 360 l398 0 l0 -125 l-285 0 l-25 -154 q23 18 50.5 26.5 q27.5 8.5 53.5 8.5 Z" /><glyph glyph-name="six" unicode="6" d="M342 498 q57 3 103.5 -15 q46.5 -18 79.5 -52 q33 -34 51 -82 q18 -48 19 -106 q0 -35 -6 -63 q-6 -28 -15.5 -50 q-9.5 -22 -21.5 -38.5 q-12 -16.5 -24 -28.5 q-25 -25 -53.5 -40 q-28.5 -15 -57 -23.5 q-28.5 -8.5 -54 -11 q-25.5 -2.5 -44.5 -2.5 q-45 0 -86 12.5 q-41 12.5 -74.5 35 q-33.5 22.5 -58 54 q-24.5 31.5 -36.5 69.5 q-20 63 -17 120.5 q3 57.5 30 120.5 q9 19 33.5 58 q24.5 39 57 86.5 q32.5 47.5 68.5 98 q36 50.5 67 92.5 l173 0 q-20 -27 -43 -58.5 q-23 -31.5 -46 -64 q-23 -32.5 -46 -64.5 q-23 -32 -43 -60 q8 4 19 7.5 q11 3.5 25 4.5 ZM323 111 q28 0 52.5 10.5 q24.5 10.5 43 28 q18.5 17.5 29 41.5 q10.5 24 10.5 51 q0 27 -10.5 51 q-10.5 24 -29 42 q-18.5 18 -43 28.5 q-24.5 10.5 -52.5 10.5 q-28 0 -52.5 -10.5 q-24.5 -10.5 -42.5 -28.5 q-18 -18 -28.5 -42 q-10.5 -24 -10.5 -51 q0 -27 10.5 -51 q10.5 -24 28.5 -41.5 q18 -17.5 42.5 -28 q24.5 -10.5 52.5 -10.5 Z" /><glyph glyph-name="seven" unicode="7" d="M565 733 l0 -138 l-334 -595 l-160 0 l350 608 l-379 0 l0 125 l523 0 Z" /><glyph glyph-name="eight" unicode="8" d="M453 387 q24 -6 47 -21.5 q23 -15.5 40 -38.5 q17 -23 27.5 -51 q10.5 -28 10.5 -58 q0 -59 -21 -103 q-21 -44 -58 -72.5 q-37 -28.5 -86 -42.5 q-49 -14 -105 -14 q-56 0 -104.5 14 q-48.5 14 -85.5 42.5 q-37 28.5 -58 72.5 q-21 44 -21 103 q0 30 11 58 q11 28 28.5 50.5 q17.5 22.5 40 38.5 q22.5 16 45.5 22 q-16 7 -33 21.5 q-17 14.5 -31.5 35 q-14.5 20.5 -23.5 44.5 q-9 24 -9 49 q0 45 19 82.5 q19 37.5 51.5 65 q32.5 27.5 76.5 43 q44 15.5 94 15.5 q50 0 94 -15.5 q44 -15.5 77 -43 q33 -27.5 52 -65 q19 -37.5 19 -82.5 q0 -26 -7.5 -50.5 q-7.5 -24.5 -20.5 -44.5 q-13 -20 -30.5 -34.5 q-17.5 -14.5 -38.5 -20.5 ZM207 522 q0 -22 8 -38 q8 -16 22 -27 q14 -11 32.5 -16.5 q18.5 -5.5 38.5 -5.5 q42 0 71.5 22 q29.5 22 29.5 65 q0 27 -8 45 q-8 18 -22 29.5 q-14 11.5 -32 16.5 q-18 5 -39 5 q-20 0 -38.5 -5.5 q-18.5 -5.5 -32.5 -17 q-14 -11.5 -22 -29.5 q-8 -18 -8 -44 ZM308 111 q26 0 49.5 5 q23.5 5 41 17 q17.5 12 28 32.5 q10.5 20.5 10.5 52.5 q0 25 -10.5 45 q-10.5 20 -28 34.5 q-17.5 14.5 -41 22 q-23.5 7.5 -49.5 7.5 q-26 0 -49 -7 q-23 -7 -40.5 -21 q-17.5 -14 -28 -34.5 q-10.5 -20.5 -10.5 -46.5 q0 -32 10.5 -52.5 q10.5 -20.5 28 -32.5 q17.5 -12 40.5 -17 q23 -5 49 -5 Z" /><glyph glyph-name="nine" unicode="9" d="M311 235 q-57 -3 -103.5 17.5 q-46.5 20.5 -80 56.5 q-33.5 36 -51.5 83 q-18 47 -18 98 q0 35 6 63 q6 28 16 50 q10 22 21.5 38.5 q11.5 16.5 23.5 28.5 q25 25 53.5 40 q28.5 15 57 23.5 q28.5 8.5 54 11 q25.5 2.5 44.5 2.5 q45 0 86 -12.5 q41 -12.5 74.5 -35 q33.5 -22.5 58 -54 q24.5 -31.5 36.5 -69.5 q20 -63 17 -120.5 q-3 -57.5 -30 -120.5 q-9 -19 -33.5 -58 q-24.5 -39 -57 -86.5 q-32.5 -47.5 -68.5 -98 q-36 -50.5 -67 -92.5 l-173 0 q20 27 43 58.5 q23 31.5 46 64 q23 32.5 46 64.5 q23 32 43 60 q-7 -3 -18 -7 q-11 -4 -26 -5 ZM330 624 q-28 0 -52.5 -8 q-24.5 -8 -42.5 -24 q-18 -16 -28.5 -41.5 q-10.5 -25.5 -10.5 -59.5 q0 -27 10.5 -51 q10.5 -24 28.5 -42 q18 -18 42.5 -28.5 q24.5 -10.5 52.5 -10.5 q28 0 52.5 10.5 q24.5 10.5 43 28.5 q18.5 18 29 42 q10.5 24 10.5 51 q0 35 -10.5 60 q-10.5 25 -29 41.5 q-18.5 16.5 -43 24 q-24.5 7.5 -52.5 7.5 Z" /><glyph glyph-name="zero" unicode="0" d="M372 -15 q-73 0 -135 30 q-62 30 -107 86 q-42 52 -63.5 119.5 q-21.5 67.5 -21.5 144.5 q0 84 24 153.5 q24 69.5 67 119.5 q43 50 103.5 78 q60.5 28 132.5 28 q71 0 131 -28.5 q60 -28.5 103.5 -79 q43.5 -50.5 68 -120 q24.5 -69.5 24.5 -151.5 q0 -76 -22.5 -144 q-22.5 -68 -64.5 -120 q-45 -57 -107 -86.5 q-62 -29.5 -133 -29.5 ZM372 613 q-32 0 -65 -14.5 q-33 -14.5 -59.5 -44.5 q-26.5 -30 -43.5 -77 q-17 -47 -17 -112 q0 -44 11 -88.5 q11 -44.5 33.5 -80 q22.5 -35.5 57.5 -58 q35 -22.5 83 -22.5 q33 0 66 16 q33 16 59.5 47.5 q26.5 31.5 42.5 78 q16 46.5 16 107.5 q0 50 -13.5 101 q-13.5 51 -38.5 83 q-50 64 -132 64 Z" /><glyph glyph-name="sterling" unicode="£" d="M266 310 q4 -40 0.5 -72 q-3.5 -32 -11 -55.5 q-7.5 -23.5 -18.5 -39 q-11 -15.5 -21 -21.5 l354 0 l0 -122 l-518 0 l0 120 q9 4 20.5 10.5 q11.5 6.5 23 17.5 q11.5 11 21.5 28 q10 17 16 41 q6 23 3.5 47 q-2.5 24 -7.5 46 l-75 0 l0 110 l60 0 l-9 73 q-5 57 12 103 q17 46 50.5 79 q33.5 33 80.5 51 q47 18 103 18 q59 0 102 -20 q43 -20 72.5 -49.5 q29.5 -29.5 47 -63 q17.5 -33.5 25.5 -60.5 l-130 -41 q-5 22 -16.5 42 q-11.5 20 -27.5 35 q-16 15 -35 24 q-19 9 -38 9 q-60 0 -87 -30 q-27 -30 -23 -86 q2 -18 4 -41.5 q2 -23.5 5 -42.5 l212 0 l0 -110 l-196 0 l0 0 Z" /><glyph glyph-name="quotesingle" unicode="&#39;" d="M164 524 l-101 0 l-17 218 l134 0 l-16 -218 Z" /><glyph glyph-name="less" unicode="&lt;" d="M498 636 l0 -142 l-302 -131 l302 -130 l0 -143 l-445 209 l0 128 l445 209 Z" /><glyph glyph-name="greater" unicode="&gt;" d="M498 427 l0 -128 l-445 -209 l0 143 l302 130 l-302 131 l0 142 l445 -209 Z" /><glyph glyph-name="colon" unicode=":" d="M172 66 q0 -31 -21.5 -52.5 q-21.5 -21.5 -52.5 -21.5 q-31 0 -52 21.5 q-21 21.5 -21 52.5 q0 30 21 51.5 q21 21.5 52 21.5 q31 0 52.5 -21.5 q21.5 -21.5 21.5 -51.5 ZM172 348 q0 -30 -21.5 -51.5 q-21.5 -21.5 -52.5 -21.5 q-31 0 -52 21.5 q-21 21.5 -21 51.5 q0 31 21 52.5 q21 21.5 52 21.5 q31 0 52.5 -21.5 q21.5 -21.5 21.5 -52.5 Z" /><glyph glyph-name="semicolon" unicode=";" d="M172 78 q-7 29 -27.5 45.5 q-20.5 16.5 -48.5 15.5 q-31 -2 -51.5 -24 q-20.5 -22 -18.5 -53 q1 -30 23 -50.5 q22 -20.5 53 -19.5 q-4 -25 -20.5 -44.5 q-16.5 -19.5 -48.5 -29.5 l17 -37 q35 8 61.5 29 q26.5 21 42.5 48.5 q16 27.5 20.5 59 q4.5 31.5 -2.5 60.5 ZM173 348 q0 -30 -21.5 -51.5 q-21.5 -21.5 -52.5 -21.5 q-31 0 -52 21.5 q-21 21.5 -21 51.5 q0 31 21 52.5 q21 21.5 52 21.5 q31 0 52.5 -21.5 q21.5 -21.5 21.5 -52.5 Z" /><glyph glyph-name="quotedblright" unicode="&#x201d;" d="M167 684 q7 -29 2.5 -60.5 q-4.5 -31.5 -20.5 -59.5 q-16 -28 -42.5 -48.5 q-26.5 -20.5 -61.5 -28.5 l-17 36 q32 11 48.5 30.5 q16.5 19.5 20.5 44.5 q-31 -2 -53 19 q-22 21 -23 51 q-2 31 18.5 53 q20.5 22 51.5 24 q28 1 48.5 -15.5 q20.5 -16.5 27.5 -45.5 ZM367 684 q7 -29 2.5 -60.5 q-4.5 -31.5 -20.5 -59.5 q-16 -28 -42.5 -48.5 q-26.5 -20.5 -61.5 -28.5 l-17 36 q32 11 48.5 30.5 q16.5 19.5 20.5 44.5 q-31 -2 -53 19 q-22 21 -23 51 q-2 31 18.5 53 q20.5 22 51.5 24 q28 1 48.5 -15.5 q20.5 -16.5 27.5 -45.5 Z" /><glyph glyph-name="quotedblleft" unicode="&#x201c;" d="M248 548 q-8 29 -3 60.5 q5 31.5 21 59.5 q16 28 42.5 48.5 q26.5 20.5 61.5 28.5 l17 -36 q-31 -11 -48 -30.5 q-17 -19.5 -20 -44.5 q30 1 52 -19.5 q22 -20.5 23 -50.5 q2 -31 -18.5 -53 q-20.5 -22 -51.5 -24 q-28 -1 -48.5 15.5 q-20.5 16.5 -27.5 45.5 ZM48 548 q-8 29 -3 60.5 q5 31.5 21 59.5 q16 28 42.5 48.5 q26.5 20.5 61.5 28.5 l17 -36 q-31 -11 -48 -30.5 q-17 -19.5 -21 -44.5 q31 2 53 -19 q22 -21 23 -51 q2 -31 -18.5 -53 q-20.5 -22 -51.5 -24 q-28 -1 -48.5 15.5 q-20.5 16.5 -27.5 45.5 Z" /><glyph glyph-name="quoteleft" unicode="&#x2018;" d="M48 548 q-8 29 -3 60.5 q5 31.5 21 59.5 q16 28 42.5 48.5 q26.5 20.5 61.5 28.5 l17 -36 q-31 -11 -48 -30.5 q-17 -19.5 -21 -44.5 q31 2 53 -19 q22 -21 23 -51 q2 -31 -18.5 -53 q-20.5 -22 -51.5 -24 q-28 -1 -48.5 15.5 q-20.5 16.5 -27.5 45.5 Z" /><glyph glyph-name="quoteright" unicode="&#x2019;" d="M167 684 q7 -29 2.5 -60.5 q-4.5 -31.5 -20.5 -59.5 q-16 -28 -42.5 -48.5 q-26.5 -20.5 -61.5 -28.5 l-17 36 q32 11 48.5 30.5 q16.5 19.5 20.5 44.5 q-31 -2 -53 19 q-22 21 -23 51 q-2 31 18.5 53 q20.5 22 51.5 24 q28 1 48.5 -15.5 q20.5 -16.5 27.5 -45.5 Z" /><glyph glyph-name="endash" unicode="&#x2013;" d="M452 315 l-414 0 l0 123 l414 0 l0 -123 Z" /><glyph glyph-name="emdash" unicode="&#x2014;" d="M692 315 l-654 0 l0 123 l654 0 l0 -123 Z" /><glyph glyph-name="underscore" unicode="_" d="M607 -123 l-554 0 l0 123 l554 0 l0 -123 Z" /><glyph glyph-name="asciitilde" unicode="~" d="M369 326 l-2 0 q-38 1 -66 13.5 q-28 12.5 -51 26.5 q-18 11 -33.5 18.5 q-15.5 7.5 -32.5 7.5 q-14 0 -24 -7 q-10 -7 -17 -15.5 q-7 -8.5 -10 -16 q-3 -7.5 -4 -9.5 l-85 26 q4 16 15 35 q11 19 28 36 q17 17 41 28.5 q24 11.5 56 11.5 l1 0 q35 0 61.5 -12 q26.5 -12 49.5 -26 q19 -11 35.5 -19 q16.5 -8 36.5 -9 q5 0 19 3 q14 3 30 23 q10 13 14 23 q3 5 5 11 l85 -28 q-6 -17 -18 -38 q-12 -21 -30.5 -39.5 q-18.5 -18.5 -44.5 -31 q-26 -12.5 -59 -12.5 Z" /><glyph glyph-name="tilde" unicode="&#x2dc;" d="M305 763 l-4 0 q-37 2 -58.5 16.5 q-21.5 14.5 -36.5 28.5 q-11 11 -19.5 16 q-8.5 5 -24.5 5 q-11 0 -19 -8.5 q-8 -8.5 -13.5 -19 q-5.5 -10.5 -9 -19 q-3.5 -8.5 -3.5 -8.5 l-82 23 q4 16 13.5 37 q9.5 21 25 39.5 q15.5 18.5 37 31 q21.5 12.5 49.5 13.5 q41 1 64.5 -14.5 q23.5 -15.5 38.5 -29.5 q11 -11 19 -15.5 q8 -4.5 22 -5.5 q12 -1 21 6.5 q9 7.5 15 15.5 q7 10 13 23 l81 -29 q-4 -11 -12 -27 q-8 -16 -22 -32 q-20 -23 -44 -35 q-24 -12 -51 -12 Z" /><glyph glyph-name="backslash" unicode="\" d="M1 834 l133 0 l360 -972 l-133 0 l-360 972 Z" /><glyph glyph-name="registered" unicode="®" d="M411 -12 q-78 0 -146.5 29.5 q-68.5 29.5 -119.5 81 q-51 51.5 -80.5 120 q-29.5 68.5 -29.5 146.5 q0 78 29.5 146.5 q29.5 68.5 80.5 119.5 q51 51 119.5 80.5 q68.5 29.5 146.5 29.5 q78 0 146.5 -29.5 q68.5 -29.5 120 -80.5 q51.5 -51 81 -119.5 q29.5 -68.5 29.5 -146.5 q0 -78 -29.5 -146.5 q-29.5 -68.5 -81 -120 q-51.5 -51.5 -120 -81 q-68.5 -29.5 -146.5 -29.5 ZM411 647 q-58 0 -109.5 -22.5 q-51.5 -22.5 -89.5 -60.5 q-38 -38 -60.5 -89.5 q-22.5 -51.5 -22.5 -109.5 q0 -58 22.5 -109.5 q22.5 -51.5 60.5 -89.5 q38 -38 89.5 -60.5 q51.5 -22.5 109.5 -22.5 q58 0 109.5 22.5 q51.5 22.5 89.5 60.5 q38 38 60.5 89.5 q22.5 51.5 22.5 109.5 q0 58 -22.5 109.5 q-22.5 51.5 -60.5 89.5 q-38 38 -89.5 60.5 q-51.5 22.5 -109.5 22.5 ZM359 201 l0 89 l47 0 q17 -23 34 -44.5 q17 -21.5 33 -44.5 l97 0 q-18 26 -37 51 q-19 25 -39 51 q29 15 46 43 q17 28 17 65 q0 54 -33 87 q-33 33 -87 33 l-156 0 l0 -330 l78 0 ZM359 453 l78 0 q14 0 28 -8 q14 -8 14 -34 q0 -15 -5 -23 q-5 -8 -12 -12.5 q-7 -4.5 -14 -5.5 q-7 -1 -11 -1 l-78 0 l0 84 Z" /><glyph glyph-name="degree" unicode="°" d="M168 605 q-26 0 -49.5 10 q-23.5 10 -40.5 27 q-17 17 -27 40.5 q-10 23.5 -10 49.5 q0 26 10 49 q10 23 27 40.5 q17 17.5 40.5 27.5 q23.5 10 49.5 10 q26 0 49 -10 q23 -10 40 -27.5 q17 -17.5 27 -40.5 q10 -23 10 -49 q0 -26 -10 -49.5 q-10 -23.5 -27 -40.5 q-17 -17 -40 -27 q-23 -10 -49 -10 ZM168 780 q-20 0 -34.5 -14 q-14.5 -14 -14.5 -34 q0 -20 14.5 -34 q14.5 -14 34.5 -14 q20 0 34 14 q14 14 14 34 q0 20 -14 34 q-14 14 -34 14 Z" /><glyph glyph-name="bullet" unicode="&#x2022;" d="M68 405 q0 23 9 43.5 q9 20.5 24.5 36 q15.5 15.5 36 24.5 q20.5 9 43.5 9 q23 0 43.5 -9 q20.5 -9 36 -24.5 q15.5 -15.5 24.5 -36 q9 -20.5 9 -43.5 q0 -23 -9 -43.5 q-9 -20.5 -24.5 -36 q-15.5 -15.5 -36 -24.5 q-20.5 -9 -43.5 -9 q-23 0 -43.5 9 q-20.5 9 -36 24.5 q-15.5 15.5 -24.5 36 q-9 20.5 -9 43.5 Z" /><glyph glyph-name="dagger" unicode="&#x2020;" d="M461 396 l-163 0 l0 -456 l-113 0 l0 456 l-163 0 l0 113 l163 0 l0 191 l113 0 l0 -191 l163 0 l0 -113 Z" /><glyph glyph-name="trademark" unicode="&#x2122;" d="M775 733 l0 -369 l-90 0 l0 145 l-94 -114 l-94 114 l0 -145 l-90 0 l0 369 l22 0 l162 -198 l162 198 l22 0 ZM51 733 l310 0 l0 -87 l-110 0 l0 -282 l-90 0 l0 282 l-110 0 l0 87 Z" /><glyph glyph-name="quotedbl" unicode="&quot;" d="M164 524 l-101 0 l-17 218 l134 0 l-16 -218 ZM375 524 l-101 0 l-16 218 l134 0 l-17 -218 Z" /><glyph glyph-name="bar" unicode="|" d="M193 -106 l-101 0 l0 942 l101 0 l0 -942 Z" /><glyph glyph-name="AE" unicode="æ" d="M598 607 l0 -181 l354 0 l0 -128 l-354 0 l0 -171 l399 0 l0 -127 l-539 0 l0 123 l-231 0 l-81 -123 l-158 0 l483 733 l526 0 l0 -126 l-399 0 ZM458 484 l-150 -237 l150 0 l0 237 Z" /><glyph glyph-name="percent" unicode="%" d="M220 328 q-41 0 -75 15.5 q-34 15.5 -59 42.5 q-25 27 -39 64.5 q-14 37.5 -14 81.5 q0 45 14 82.5 q14 37.5 39 64.5 q25 27 59 42.5 q34 15.5 75 15.5 q40 0 74.5 -15.5 q34.5 -15.5 59.5 -42.5 q25 -27 39 -64.5 q14 -37.5 14 -82.5 q0 -44 -14.5 -81 q-14.5 -37 -39.5 -64.5 q-25 -27.5 -59 -43 q-34 -15.5 -74 -15.5 ZM735 -15 q-41 0 -75 15.5 q-34 15.5 -59 42.5 q-25 27 -39 64.5 q-14 37.5 -14 82.5 q0 44 14 81.5 q14 37.5 39 64.5 q25 27 59 42.5 q34 15.5 75 15.5 q40 0 74.5 -15.5 q34.5 -15.5 59 -42.5 q24.5 -27 38.5 -64.5 q14 -37.5 14 -81.5 q0 -44 -14 -81.5 q-14 -37.5 -39 -65 q-25 -27.5 -59 -43 q-34 -15.5 -74 -15.5 ZM322 0 l434 733 l-114 0 l-434 -733 l114 0 ZM735 288 q-22 0 -34.5 -12.5 q-12.5 -12.5 -19 -29 q-6.5 -16.5 -8 -33 q-1.5 -16.5 -1.5 -23.5 q0 -5 1.5 -21.5 q1.5 -16.5 7.5 -33.5 q6 -17 18.5 -30.5 q12.5 -13.5 35.5 -13.5 q16 0 28 9.5 q12 9.5 20 24.5 q8 15 11.5 32.5 q3.5 17.5 3.5 32.5 q0 14 -3 31 q-3 17 -10.5 32 q-7.5 15 -19.5 25 q-12 10 -30 10 ZM220 630 q-22 0 -34.5 -12.5 q-12.5 -12.5 -19 -29 q-6.5 -16.5 -8 -33 q-1.5 -16.5 -1.5 -23.5 q0 -5 1.5 -21 q1.5 -16 7.5 -33 q6 -17 18.5 -30.5 q12.5 -13.5 35.5 -13.5 q16 0 28 9.5 q12 9.5 20 24.5 q8 15 11.5 32 q3.5 17 3.5 32 q0 14 -3 31 q-3 17 -10.5 32 q-7.5 15 -19.5 25 q-12 10 -30 10 Z" /><glyph glyph-name="grave" unicode="`" d="M255 771 l-98 0 l-134 101 l115 50 l117 -151 Z" /><glyph glyph-name="perthousand" unicode="&#x2030;" d="M220 328 q-41 0 -75 15.5 q-34 15.5 -59 42.5 q-25 27 -39 64.5 q-14 37.5 -14 81.5 q0 45 14 82.5 q14 37.5 39 64.5 q25 27 59 42.5 q34 15.5 75 15.5 q40 0 74.5 -15.5 q34.5 -15.5 59.5 -42.5 q25 -27 39 -64.5 q14 -37.5 14 -82.5 q0 -44 -14.5 -81 q-14.5 -37 -39.5 -64.5 q-25 -27.5 -59 -43 q-34 -15.5 -74 -15.5 ZM1155 -15 q-41 0 -75 15.5 q-34 15.5 -58.5 42.5 q-24.5 27 -38.5 64.5 q-14 37.5 -14 82.5 q0 44 14 81.5 q14 37.5 38.5 64.5 q24.5 27 58.5 42.5 q34 15.5 75 15.5 q40 0 74.5 -15.5 q34.5 -15.5 59.5 -42.5 q25 -27 39 -64.5 q14 -37.5 14 -81.5 q0 -44 -14 -81.5 q-14 -37.5 -39 -65 q-25 -27.5 -59.5 -43 q-34.5 -15.5 -74.5 -15.5 ZM735 -15 q-41 0 -75 15.5 q-34 15.5 -59 42.5 q-25 27 -39 64.5 q-14 37.5 -14 82.5 q0 44 14 81.5 q14 37.5 39 64.5 q25 27 59 42.5 q34 15.5 75 15.5 q40 0 74.5 -15.5 q34.5 -15.5 59 -42.5 q24.5 -27 38.5 -64.5 q14 -37.5 14 -81.5 q0 -44 -14 -81.5 q-14 -37.5 -39 -65 q-25 -27.5 -59 -43 q-34 -15.5 -74 -15.5 ZM322 0 l434 733 l-114 0 l-434 -733 l114 0 ZM1155 288 q-22 0 -34.5 -12.5 q-12.5 -12.5 -19 -29 q-6.5 -16.5 -8 -33 q-1.5 -16.5 -1.5 -23.5 q0 -5 1.5 -21.5 q1.5 -16.5 7.5 -33.5 q6 -17 18.5 -30.5 q12.5 -13.5 35.5 -13.5 q16 0 28.5 9.5 q12.5 9.5 20 24.5 q7.5 15 11.5 32.5 q4 17.5 4 32.5 q0 14 -3.5 31 q-3.5 17 -11 32 q-7.5 15 -19.5 25 q-12 10 -30 10 ZM735 288 q-22 0 -34.5 -12.5 q-12.5 -12.5 -19 -29 q-6.5 -16.5 -8 -33 q-1.5 -16.5 -1.5 -23.5 q0 -5 1.5 -21.5 q1.5 -16.5 7.5 -33.5 q6 -17 18.5 -30.5 q12.5 -13.5 35.5 -13.5 q16 0 28 9.5 q12 9.5 20 24.5 q8 15 11.5 32.5 q3.5 17.5 3.5 32.5 q0 14 -3 31 q-3 17 -10.5 32 q-7.5 15 -19.5 25 q-12 10 -30 10 ZM220 630 q-22 0 -34.5 -12.5 q-12.5 -12.5 -19 -29 q-6.5 -16.5 -8 -33 q-1.5 -16.5 -1.5 -23.5 q0 -5 1.5 -21 q1.5 -16 7.5 -33 q6 -17 18.5 -30.5 q12.5 -13.5 35.5 -13.5 q16 0 28 9.5 q12 9.5 20 24.5 q8 15 11.5 32 q3.5 17 3.5 32 q0 14 -3 31 q-3 17 -10.5 32 q-7.5 15 -19.5 25 q-12 10 -30 10 Z" /><glyph glyph-name="yen" unicode="¥" d="M403 391 l138 0 l0 -90 l-166 0 l0 -86 l166 0 l0 -89 l-166 0 l0 -126 l-140 0 l0 126 l-157 0 l0 89 l157 0 l0 86 l-157 0 l0 90 l130 0 l-199 342 l162 0 l134 -232 l134 232 l162 0 l-198 -342 Z" /><glyph glyph-name="daggerdbl" unicode="&#x2021;" d="M22 244 l163 0 l0 152 l-163 0 l0 113 l163 0 l0 191 l113 0 l0 -191 l163 0 l0 -113 l-163 0 l0 -152 l163 0 l0 -113 l-163 0 l0 -191 l-113 0 l0 191 l-163 0 l0 113 Z" /><glyph glyph-name="quotesinglbase" unicode="&#x201a;" d="M172 78 q7 -29 2.5 -60.5 q-4.5 -31.5 -20.5 -59 q-16 -27.5 -42 -48.5 q-26 -21 -62 -29 l-17 37 q32 10 48.5 29.5 q16.5 19.5 20.5 44.5 q-30 -1 -52 19.5 q-22 20.5 -24 50.5 q-2 31 19 53 q21 22 51 24 q28 1 48.5 -15.5 q20.5 -16.5 27.5 -45.5 Z" /><glyph glyph-name="notequal" unicode="&#x2260;" d="M373 418 l-55 -113 l188 0 l0 -129 l-251 0 l-50 -102 l-143 0 l50 102 l-61 0 l0 129 l124 0 l56 113 l-180 0 l0 129 l243 0 l50 102 l143 0 l-51 -102 l70 0 l0 -129 l-133 0 Z" /><glyph glyph-name="ordfeminine" unicode="ª" d="M309 432 l-68 0 l0 18 q-11 -11 -26.5 -16 q-15.5 -5 -32.5 -6 l-5 0 q-58 0 -93 25.5 q-35 25.5 -37 70.5 q-3 47 27 77 q11 12 24.5 19 q13.5 7 27 11 q13.5 4 26 5 q12.5 1 21.5 1 q20 -1 37 -5 q17 -4 31 -13 q1 29 -8.5 42 q-9.5 13 -25.5 20 q-20 8 -39 7 q-19 -1 -34.5 -6 q-15.5 -5 -28 -12 q-12.5 -7 -19.5 -11 l-34 54 q1 1 17.5 9 q16.5 8 42.5 16 q73 21 123 -1 q25 -12 40 -27.5 q15 -15.5 22.5 -34 q7.5 -18.5 9.5 -39 q2 -20.5 2 -40.5 l0 -164 ZM314 309 l-270 0 l0 68 l270 0 l0 -68 ZM181 490 q27 0 43.5 11 q16.5 11 16.5 42 l0 7 q-8 5 -24.5 13.5 q-16.5 8.5 -44.5 8.5 q-32 1 -50 -17 q-3 -2 -5.5 -8.5 q-2.5 -6.5 -2.5 -18.5 q0 -5 3 -11.5 q3 -6.5 10 -12.5 q7 -6 20 -10 q13 -4 34 -4 Z" /><glyph glyph-name="ordmasculine" unicode="º" d="M196 429 q-33 0 -61.5 12.5 q-28.5 12.5 -49.5 34 q-21 21.5 -33.5 50 q-12.5 28.5 -12.5 61.5 q0 33 12.5 61.5 q12.5 28.5 33.5 49.5 q21 21 49.5 33.5 q28.5 12.5 61.5 12.5 q33 0 61.5 -12.5 q28.5 -12.5 50 -33.5 q21.5 -21 34 -49.5 q12.5 -28.5 12.5 -61.5 q0 -33 -12.5 -61.5 q-12.5 -28.5 -34 -50 q-21.5 -21.5 -50 -34 q-28.5 -12.5 -61.5 -12.5 ZM196 682 q-18 0 -34.5 -8 q-16.5 -8 -29 -21 q-12.5 -13 -19.5 -30.5 q-7 -17.5 -7 -35.5 q0 -19 7 -36 q7 -17 19.5 -30 q12.5 -13 29 -21 q16.5 -8 34.5 -8 q19 0 35.5 8 q16.5 8 28.5 21 q12 13 19 30 q7 17 7 36 q0 18 -7 35.5 q-7 17.5 -19 30.5 q-12 13 -28.5 21 q-16.5 8 -35.5 8 ZM336 309 l-279 0 l0 68 l279 0 l0 -68 Z" /><glyph glyph-name="exclamdown" unicode="¡" d="M196 518 l25 -518 l-150 0 l25 518 l100 0 ZM216 731 l0 -149 l-140 0 l0 149 l140 0 Z" /><glyph glyph-name="questiondown" unicode="¿" d="M400 751 l0 -149 l-140 0 l0 149 l140 0 ZM296 0 q73 0 122.5 25 q49.5 25 81 58.5 q31.5 33.5 47.5 67 q16 33.5 22 51.5 l-133 43 q-6 -18 -16 -38.5 q-10 -20.5 -26.5 -37.5 q-16.5 -17 -40.5 -28.5 q-24 -11.5 -57 -11.5 q-40 0 -62.5 10.5 q-22.5 10.5 -34 24 q-11.5 13.5 -14.5 27 q-3 13.5 -3 19.5 q0 17 3.5 28.5 q3.5 11.5 12 20.5 q8.5 9 21.5 17 q13 8 33 19 q26 14 52.5 30.5 q26.5 16.5 47.5 45.5 q33 46 42.5 91 q9.5 45 7.5 77 l-140 0 q2 -14 -2 -38 q-4 -24 -21 -48 q-10 -14 -28 -24 q-18 -10 -40 -21.5 q-22 -11.5 -45 -26.5 q-23 -15 -41.5 -37.5 q-18.5 -22.5 -30.5 -55 q-12 -32.5 -12 -78.5 q0 -53 23 -92 q23 -39 59 -65.5 q36 -26.5 81.5 -39.5 q45.5 -13 90.5 -13 Z" /><glyph glyph-name="ellipsis" unicode="&#x2026;" d="M197 66 q0 -31 -21.5 -52.5 q-21.5 -21.5 -52.5 -21.5 q-30 0 -51.5 21.5 q-21.5 21.5 -21.5 52.5 q0 30 21.5 51.5 q21.5 21.5 51.5 21.5 q31 0 52.5 -21.5 q21.5 -21.5 21.5 -51.5 ZM424 66 q0 -31 -21.5 -52.5 q-21.5 -21.5 -52.5 -21.5 q-30 0 -51.5 21.5 q-21.5 21.5 -21.5 52.5 q0 30 21.5 51.5 q21.5 21.5 51.5 21.5 q31 0 52.5 -21.5 q21.5 -21.5 21.5 -51.5 ZM651 66 q0 -31 -21.5 -52.5 q-21.5 -21.5 -52.5 -21.5 q-30 0 -51.5 21.5 q-21.5 21.5 -21.5 52.5 q0 30 21.5 51.5 q21.5 21.5 51.5 21.5 q31 0 52.5 -21.5 q21.5 -21.5 21.5 -51.5 Z" /><glyph glyph-name="fraction" unicode="&#x2044;" d="M0 0 l437 733 l92 0 l-436 -733 l-93 0 Z" /><glyph glyph-name="OE" unicode="&#x152;" d="M696 607 l0 -182 l354 0 l0 -127 l-354 0 l0 -172 l399 0 l0 -126 l-538 0 l0 11 q-32 -12 -65.5 -18.5 q-33.5 -6.5 -68.5 -6.5 q-79 0 -148 30 q-69 30 -120.5 81.5 q-51.5 51.5 -81.5 121 q-30 69.5 -30 147.5 q0 78 30 147.5 q30 69.5 81.5 121 q51.5 51.5 120.5 81.5 q69 30 148 30 q35 0 68.5 -6.5 q33.5 -6.5 65.5 -18.5 l0 11 l538 0 l0 -125 l-399 0 ZM423 111 q55 0 84 16.5 q29 16.5 50 39.5 l0 398 q-8 10 -19.5 20 q-11.5 10 -27.5 18 q-16 8 -37.5 13 q-21.5 5 -49.5 5 q-50 0 -93.5 -16.5 q-43.5 -16.5 -76 -49 q-32.5 -32.5 -51.5 -80 q-19 -47.5 -19 -109.5 q0 -60 19 -107 q19 -47 51.5 -80 q32.5 -33 76 -50.5 q43.5 -17.5 93.5 -17.5 Z" /><glyph glyph-name="asciicircum" unicode="^" d="M409 373 l-111 238 l-112 -238 l-141 0 l180 365 l146 0 l180 -365 l-142 0 Z" /><glyph glyph-name="quotedblbase" unicode="&#x201e;" d="M167 78 q7 -29 2.5 -60.5 q-4.5 -31.5 -20.5 -59.5 q-16 -28 -42.5 -48.5 q-26.5 -20.5 -61.5 -28.5 l-17 36 q32 11 48.5 30.5 q16.5 19.5 20.5 44.5 q-31 -2 -53 19 q-22 21 -23 51 q-2 31 18.5 53 q20.5 22 51.5 24 q28 1 48.5 -15.5 q20.5 -16.5 27.5 -45.5 ZM367 78 q7 -29 2.5 -60.5 q-4.5 -31.5 -20.5 -59.5 q-16 -28 -42.5 -48.5 q-26.5 -20.5 -61.5 -28.5 l-17 36 q32 11 48.5 30.5 q16.5 19.5 20.5 44.5 q-31 -2 -53 19 q-22 21 -23 51 q-2 31 18.5 53 q20.5 22 51.5 24 q28 1 48.5 -15.5 q20.5 -16.5 27.5 -45.5 Z" /><glyph glyph-name="periodcentered" unicode="·" d="M172 416 q0 -31 -21.5 -52.5 q-21.5 -21.5 -52.5 -21.5 q-30 0 -51.5 21.5 q-21.5 21.5 -21.5 52.5 q0 30 21.5 51.5 q21.5 21.5 51.5 21.5 q31 0 52.5 -21.5 q21.5 -21.5 21.5 -51.5 Z" /><glyph glyph-name="plusminus" unicode="±" d="M480 472 l0 -121 l-138 0 l0 -152 l-142 0 l0 152 l-138 0 l0 121 l138 0 l0 153 l142 0 l0 -153 l138 0 ZM62 0 l0 123 l418 0 l0 -123 l-418 0 Z" /><glyph glyph-name="lessequal" unicode="&#x2264;" d="M50 482 l414 195 l0 -151 l-257 -94 l257 -88 l0 -154 l-414 184 l0 108 ZM49 0 l0 123 l417 0 l0 -123 l-417 0 Z" /><glyph glyph-name="greaterequal" unicode="&#x2265;" d="M466 0 l-417 0 l0 123 l417 0 l0 -123 ZM465 482 l0 -108 l-414 -184 l0 154 l257 88 l-257 94 l0 151 l414 -195 Z" /><glyph glyph-name="guillemotright" unicode="»" d="M210 367 l-154 234 l142 0 l150 -234 l-149 -231 l-145 0 l156 231 ZM486 367 l-155 234 l143 0 l149 -234 l-148 -231 l-145 0 l156 231 Z" /><glyph glyph-name="guillemotleft" unicode="«" d="M478 136 l-149 231 l150 234 l142 0 l-154 -234 l156 -231 l-145 0 ZM202 136 l-148 231 l149 234 l143 0 l-155 -234 l156 -231 l-145 0 Z" /><glyph glyph-name="guilsinglleft" unicode="&#x2039;" d="M202 136 l-148 231 l149 234 l143 0 l-155 -234 l156 -231 l-145 0 Z" /><glyph glyph-name="guilsinglright" unicode="&#x203a;" d="M54 136 l156 231 l-155 234 l143 0 l149 -234 l-148 -231 l-145 0 Z" /><glyph glyph-name="paragraph" unicode="¶" d="M205 0 l0 319 q-33 0 -65.5 12 q-32.5 12 -58 36.5 q-25.5 24.5 -41 61.5 q-15.5 37 -15.5 86 q0 39 7.5 78 q7.5 39 34.5 70 q27 31 78.5 50.5 q51.5 19.5 138.5 19.5 l181 0 l0 -733 l-94 0 l0 677 l-72 0 l0 -677 l-94 0 Z" /><glyph glyph-name="brokenbar" unicode="¦" d="M92 -106 l0 387 l101 0 l0 -387 l-101 0 ZM92 836 l101 0 l0 -388 l-101 0 l0 388 Z" /><glyph glyph-name="germandbls" unicode="ß" d="M51 96 l76 112 q55 -38 113.5 -65.5 q58.5 -27.5 122.5 -27.5 q34 0 60 8.5 q26 8.5 44 22 q18 13.5 27 31 q9 17.5 9 34.5 q0 22 -13.5 37.5 q-13.5 15.5 -36 25.5 q-22.5 10 -53 17 q-30.5 7 -63.5 13 q-22 4 -51 9.5 q-29 5.5 -60 15 q-31 9.5 -61 25 q-30 15.5 -54 39 q-24 23.5 -38.5 56 q-14.5 32.5 -14.5 76.5 q0 64 26 106.5 q26 42.5 66.5 67 q40.5 24.5 90 34.5 q49.5 10 95.5 10 q46 0 82 -6 q36 -6 67 -17.5 q31 -11.5 60.5 -29 q29.5 -17.5 63.5 -41.5 l-78 -110 q-52 36 -100 55 q-48 19 -101 19 q-18 0 -41 -4.5 q-23 -4.5 -43.5 -14.5 q-20.5 -10 -34 -25.5 q-13.5 -15.5 -13.5 -37.5 q0 -22 16 -37 q16 -15 41 -25 q25 -10 55 -17 q30 -7 58 -14 q21 -5 49.5 -10 q28.5 -5 59 -14 q30.5 -9 60.5 -24 q30 -15 53.5 -38.5 q23.5 -23.5 38 -58 q14.5 -34.5 14.5 -83.5 q0 -57 -20 -99 q-20 -42 -57 -69.5 q-37 -27.5 -88 -41.5 q-51 -14 -113 -14 q-57 0 -100.5 8.5 q-43.5 8.5 -79.5 23 q-36 14.5 -68 34.5 q-32 20 -66 44 ZM718 96 l76 112 q55 -38 113.5 -65.5 q58.5 -27.5 122.5 -27.5 q34 0 60 8.5 q26 8.5 44 22 q18 13.5 27 31 q9 17.5 9 34.5 q0 22 -13.5 37.5 q-13.5 15.5 -36 25.5 q-22.5 10 -53 17 q-30.5 7 -63.5 13 q-22 4 -51 9.5 q-29 5.5 -60 15 q-31 9.5 -61 25 q-30 15.5 -54 39 q-24 23.5 -38.5 56 q-14.5 32.5 -14.5 76.5 q0 64 26 106.5 q26 42.5 66.5 67 q40.5 24.5 90 34.5 q49.5 10 95.5 10 q46 0 82 -6 q36 -6 67 -17.5 q31 -11.5 60.5 -29 q29.5 -17.5 63.5 -41.5 l-78 -110 q-52 36 -100 55 q-48 19 -101 19 q-18 0 -41 -4.5 q-23 -4.5 -43.5 -14.5 q-20.5 -10 -34 -25.5 q-13.5 -15.5 -13.5 -37.5 q0 -22 16 -37 q16 -15 41 -25 q25 -10 55 -17 q30 -7 58 -14 q21 -5 49.5 -10 q28.5 -5 59 -14 q30.5 -9 60.5 -24 q30 -15 53.5 -38.5 q23.5 -23.5 38 -58 q14.5 -34.5 14.5 -83.5 q0 -57 -20 -99 q-20 -42 -57 -69.5 q-37 -27.5 -88 -41.5 q-51 -14 -113 -14 q-57 0 -100.5 8.5 q-43.5 8.5 -79.5 23 q-36 14.5 -68 34.5 q-32 20 -66 44 Z" /><glyph glyph-name="logicalnot" unicode="¬" d="M532 208 l-140 0 l0 172 l-344 0 l0 123 l484 0 l0 -295 Z" /><glyph glyph-name="onequarter" unicode="¼" d="M131 0 l437 733 l92 0 l-436 -733 l-93 0 ZM219 734 l0 -477 l-91 0 l0 320 l-69 -66 l-63 66 l165 157 l58 0 ZM821 186 l0 -80 l-58 0 l0 -106 l-91 0 l0 106 l-228 0 l0 78 l250 293 l69 0 l0 -291 l58 0 ZM672 323 l-112 -137 l112 0 l0 137 Z" /><glyph glyph-name="onehalf" unicode="½" d="M131 0 l437 733 l92 0 l-436 -733 l-93 0 ZM219 734 l0 -477 l-91 0 l0 320 l-69 -66 l-63 66 l165 157 l58 0 ZM844 80 l0 -80 l-330 0 l0 91 q13 10 34 28 q21 18 45 38 q24 20 48 40.5 q24 20.5 42 35.5 q22 18 35 32 q13 14 19.5 26 q6.5 12 8 23 q1.5 11 1.5 22 q0 19 -7 32 q-7 13 -17.5 20.5 q-10.5 7.5 -23.5 11 q-13 3.5 -26 3.5 q-22 0 -37 -11 q-15 -11 -24 -24.5 q-9 -13.5 -13 -25.5 q-4 -12 -5 -15 l0 1 l-88 23 q5 17 17 40 q12 23 32.5 43.5 q20.5 20.5 49.5 35 q29 14.5 68 14.5 q42 0 73.5 -13 q31.5 -13 51.5 -34 q20 -21 30 -47.5 q10 -26.5 10 -53.5 q0 -55 -27 -93.5 q-27 -38.5 -74 -76.5 q-17 -15 -47 -39 q-30 -24 -57 -47 l211 0 Z" /><glyph glyph-name="threequarters" unicode="¾" d="M921 186 l0 -80 l-58 0 l0 -106 l-91 0 l0 106 l-228 0 l0 78 l250 293 l69 0 l0 -291 l58 0 ZM266 490 q13 -5 26.5 -12.5 q13.5 -7.5 25 -20.5 q11.5 -13 18.5 -32 q7 -19 7 -46 q0 -13 -5 -36 q-5 -23 -23 -46 q-14 -17 -31 -28 q-17 -11 -35.5 -17 q-18.5 -6 -37 -8.5 q-18.5 -2.5 -34.5 -2.5 q-42 0 -71 14 q-29 14 -48.5 34.5 q-19.5 20.5 -30 43.5 q-10.5 23 -15.5 40 l87 25 q1 -3 3.5 -15 q2.5 -12 10.5 -26 q8 -14 23 -25 q15 -11 41 -11 q38 0 56.5 17.5 q18.5 17.5 18.5 40.5 q0 25 -8 40 q-8 15 -23 23 q-15 8 -37.5 11.5 q-22.5 3.5 -51.5 4.5 l0 70 q28 1 50.5 3.5 q22.5 2.5 38 9.5 q15.5 7 23.5 20.5 q8 13.5 8 37.5 q0 23 -18.5 40 q-18.5 17 -56.5 17 q-26 0 -41 -11 q-15 -11 -23 -24.5 q-8 -13.5 -10.5 -26 q-2.5 -12.5 -3.5 -14.5 l-87 25 q5 17 15.5 40 q10.5 23 30 43.5 q19.5 20.5 48.5 34.5 q29 14 71 14 q46 0 77.5 -12.5 q31.5 -12.5 51 -32.5 q19.5 -20 28.5 -44.5 q9 -24.5 9 -48.5 q0 -26 -7 -44.5 q-7 -18.5 -18 -31 q-11 -12.5 -25 -20 q-14 -7.5 -27 -13.5 ZM231 0 l437 733 l92 0 l-436 -733 l-93 0 ZM772 323 l-112 -137 l112 0 l0 137 Z" /><glyph glyph-name="onesuperior" unicode="¹" d="M219 834 l0 -477 l-91 0 l0 320 l-69 -66 l-63 66 l165 157 l58 0 Z" /><glyph glyph-name="twosuperior" unicode="²" d="M364 439 l0 -80 l-330 0 l0 91 q13 10 34 28 q21 18 45 38 q24 20 48 40.5 q24 20.5 42 35.5 q22 18 35 32 q13 14 19.5 26 q6.5 12 8 23 q1.5 11 1.5 22 q0 19 -7 32 q-7 13 -17.5 20.5 q-10.5 7.5 -23.5 11 q-13 3.5 -26 3.5 q-22 0 -37 -11 q-15 -11 -24 -24.5 q-9 -13.5 -13 -25.5 q-4 -12 -5 -15 l0 1 l-88 23 q5 17 17 40 q12 23 32.5 43.5 q20.5 20.5 49.5 35 q29 14.5 68 14.5 q42 0 73.5 -13 q31.5 -13 51.5 -34 q20 -21 30 -47.5 q10 -26.5 10 -53.5 q0 -55 -27 -93.5 q-27 -38.5 -74 -76.5 q-17 -15 -47 -39 q-30 -24 -57 -47 l211 0 Z" /><glyph glyph-name="threesuperior" unicode="³" d="M269 595 q13 -5 26.5 -12.5 q13.5 -7.5 25 -20.5 q11.5 -13 18.5 -32 q7 -19 7 -46 q0 -13 -5 -36 q-5 -23 -23 -46 q-14 -17 -31 -28 q-17 -11 -35.5 -17 q-18.5 -6 -37 -8.5 q-18.5 -2.5 -34.5 -2.5 q-42 0 -71 14 q-29 14 -48.5 34.5 q-19.5 20.5 -30 43.5 q-10.5 23 -15.5 40 l87 25 q1 -3 3.5 -15 q2.5 -12 10.5 -26 q8 -14 23 -25 q15 -11 41 -11 q38 0 56.5 17.5 q18.5 17.5 18.5 40.5 q0 25 -8 40 q-8 15 -23 23 q-15 8 -37.5 11.5 q-22.5 3.5 -51.5 4.5 l0 70 q28 1 50.5 3.5 q22.5 2.5 38 9.5 q15.5 7 23.5 20.5 q8 13.5 8 37.5 q0 23 -18.5 40 q-18.5 17 -56.5 17 q-26 0 -41 -11 q-15 -11 -23 -24.5 q-8 -13.5 -10.5 -26 q-2.5 -12.5 -3.5 -14.5 l-87 25 q5 17 15.5 40 q10.5 23 30 43.5 q19.5 20.5 48.5 34.5 q29 14 71 14 q46 0 77.5 -12.5 q31.5 -12.5 51 -32.5 q19.5 -20 28.5 -44.5 q9 -24.5 9 -48.5 q0 -26 -7 -44.5 q-7 -18.5 -18 -31 q-11 -12.5 -25 -20 q-14 -7.5 -27 -13.5 Z" /><glyph glyph-name="multiply" unicode="×" d="M475 510 l-130 -129 l129 -130 l-96 -95 l-129 129 l-128 -128 l-95 96 l128 128 l-129 128 l96 95 l128 -127 l130 128 l96 -95 Z" /><glyph glyph-name="uni00AD" unicode="­" d="" /><glyph glyph-name="acute" unicode="´" d="M147 922 l116 -50 l-134 -101 l-99 0 l117 151 Z" /><glyph glyph-name="breve" unicode="&#x2d8;" d="M398 920 q-11 -69 -60 -111 q-49 -42 -123 -42 q-36 0 -67.5 11 q-31.5 11 -55.5 31.5 q-24 20.5 -40 48.5 q-16 28 -21 62 l91 0 q10 -35 37 -49.5 q27 -14.5 56 -14.5 q41 0 62.5 19 q21.5 19 29.5 45 l91 0 Z" /><glyph glyph-name="dieresis" unicode="¨" d="M37 847 q0 29 20 48.5 q20 19.5 49 19.5 q29 0 48 -19.5 q19 -19.5 19 -48.5 q0 -29 -19 -48 q-19 -19 -48 -19 q-29 0 -49 19 q-20 19 -20 48 ZM241 847 q0 29 19.5 48.5 q19.5 19.5 48.5 19.5 q29 0 48.5 -19.5 q19.5 -19.5 19.5 -48.5 q0 -29 -19.5 -48 q-19.5 -19 -48.5 -19 q-29 0 -48.5 19 q-19.5 19 -19.5 48 Z" /><glyph glyph-name="circumflex" unicode="&#x2c6;" d="M153 922 l117 0 l123 -153 l-112 0 l-71 70 l-67 -71 l-112 0 l122 154 Z" /><glyph glyph-name="caron" unicode="&#x2c7;" d="M272 768 l-117 0 l-123 154 l112 0 l71 -70 l67 70 l112 0 l-122 -154 Z" /><glyph glyph-name="macron" unicode="¯" d="M360 802 l-328 0 l0 92 l328 0 l0 -92 Z" /><glyph glyph-name="ring" unicode="&#x2da;" d="M139 701 q-23 0 -42.5 8.5 q-19.5 8.5 -34 23 q-14.5 14.5 -23 34 q-8.5 19.5 -8.5 42.5 q0 22 8.5 41.5 q8.5 19.5 23 34 q14.5 14.5 34 23 q19.5 8.5 42.5 8.5 q22 0 41.5 -8.5 q19.5 -8.5 34 -23 q14.5 -14.5 23 -34 q8.5 -19.5 8.5 -41.5 q0 -23 -8.5 -42.5 q-8.5 -19.5 -23 -34 q-14.5 -14.5 -34 -23 q-19.5 -8.5 -41.5 -8.5 ZM139 849 q-17 0 -29 -11.5 q-12 -11.5 -12 -28.5 q0 -17 12 -29 q12 -12 29 -12 q17 0 28.5 12 q11.5 12 11.5 29 q0 17 -11.5 28.5 q-11.5 11.5 -28.5 11.5 Z" /><glyph glyph-name="hungarumlaut" unicode="&#x2dd;" d="M331 922 l116 -50 l-135 -101 l-98 0 l117 151 ZM142 922 l116 -50 l-135 -101 l-98 0 l117 151 Z" /><glyph glyph-name="dotaccent" unicode="&#x2d9;" d="M35 847 q0 29 20 48.5 q20 19.5 49 19.5 q29 0 48 -19.5 q19 -19.5 19 -48.5 q0 -29 -19 -48 q-19 -19 -48 -19 q-29 0 -49 19 q-20 19 -20 48 Z" /><glyph glyph-name="ogonek" unicode="&#x2db;" d="M170 -189 q-53 0 -88 29 q-18 15 -30.5 36.5 q-12.5 21.5 -17 46.5 q-4.5 25 1 51.5 q5.5 26.5 23.5 51.5 q11 15 27 27 q16 12 33.5 20 q17.5 8 34 12 q16.5 4 28.5 5 l5 -90 q-17 0 -32.5 -8 q-15.5 -8 -22.5 -19 q-8 -12 -9 -22.5 q-1 -10.5 1.5 -18.5 q2.5 -8 6.5 -14 q4 -6 7 -9 q9 -7 21.5 -8.5 q12.5 -1.5 25 0.5 q12.5 2 23 5.5 q10.5 3.5 14.5 5.5 l37 -82 q-2 -1 -18 -7 q-16 -6 -40 -10 q-8 -2 -15.5 -2 q-7.5 0 -15.5 0 Z" /><glyph glyph-name="cedilla" unicode="¸" d="M152 -28 q55 -19 51 -80 q-2 -31 -15.5 -47.5 q-13.5 -16.5 -30.5 -24.5 q-17 -8 -33 -9.5 q-16 -1.5 -23 -1.5 q-21 0 -36 4.5 q-15 4.5 -26 9.5 q-12 6 -21 14 l25 49 q4 -4 12 -8 q7 -3 18 -6 q11 -3 28 -2 q12 0 21.5 7 q9.5 7 9.5 21 q0 14 -11.5 18 q-11.5 4 -21.5 4 q-11 -1 -20.5 -3 q-9.5 -2 -16.5 -4 q-8 -3 -15 -6 l-14 23 l32 81 l64 0 l-17 -36 q3 1 14.5 1.5 q11.5 0.5 25.5 -4.5 Z" /><glyph glyph-name="ae" unicode="æ" d="M598 607 l0 -181 l354 0 l0 -128 l-354 0 l0 -171 l399 0 l0 -127 l-539 0 l0 123 l-231 0 l-81 -123 l-158 0 l483 733 l526 0 l0 -126 l-399 0 ZM458 484 l-150 -237 l150 0 l0 237 Z" /><glyph glyph-name="oe" unicode="&#x153;" d="M696 607 l0 -182 l354 0 l0 -127 l-354 0 l0 -172 l399 0 l0 -126 l-538 0 l0 11 q-32 -12 -65.5 -18.5 q-33.5 -6.5 -68.5 -6.5 q-79 0 -148 30 q-69 30 -120.5 81.5 q-51.5 51.5 -81.5 121 q-30 69.5 -30 147.5 q0 78 30 147.5 q30 69.5 81.5 121 q51.5 51.5 120.5 81.5 q69 30 148 30 q35 0 68.5 -6.5 q33.5 -6.5 65.5 -18.5 l0 11 l538 0 l0 -125 l-399 0 ZM423 111 q55 0 84 16.5 q29 16.5 50 39.5 l0 398 q-8 10 -19.5 20 q-11.5 10 -27.5 18 q-16 8 -37.5 13 q-21.5 5 -49.5 5 q-50 0 -93.5 -16.5 q-43.5 -16.5 -76 -49 q-32.5 -32.5 -51.5 -80 q-19 -47.5 -19 -109.5 q0 -60 19 -107 q19 -47 51.5 -80 q32.5 -33 76 -50.5 q43.5 -17.5 93.5 -17.5 Z" /><glyph glyph-name="Oslash" unicode="ø" d="M148 -23 l-76 66 l64 73 q-44 51 -68.5 114.5 q-24.5 63.5 -24.5 135.5 q0 78 30 147.5 q30 69.5 81.5 121 q51.5 51.5 120.5 81.5 q69 30 147 30 q59 0 112.5 -17 q53.5 -17 99.5 -48 l61 70 l76 -67 l-62 -70 q44 -51 68.5 -114 q24.5 -63 24.5 -134 q0 -79 -30 -148 q-30 -69 -81.5 -120.5 q-51.5 -51.5 -120.5 -81.5 q-69 -30 -148 -30 q-59 0 -112 16.5 q-53 16.5 -98 46.5 l-64 -72 ZM422 615 q-50 0 -93.5 -20.5 q-43.5 -20.5 -76 -54.5 q-32.5 -34 -51.5 -79.5 q-19 -45.5 -19 -94.5 q0 -40 12 -77 q12 -37 34 -68 l316 358 q-56 36 -122 36 ZM422 116 q50 0 93.5 20.5 q43.5 20.5 76 55 q32.5 34.5 51.5 79.5 q19 45 19 95 q0 39 -12 75.5 q-12 36.5 -33 67.5 l-316 -358 q27 -17 57.5 -26 q30.5 -9 63.5 -9 Z" /><glyph glyph-name="a" unicode="a" d="M6 0 l374 731 l14 0 l374 -731 l-152 0 l-57 115 l-345 0 l-56 -115 l-152 0 ZM282 237 l209 0 l-104 221 l-105 -221 Z" /><glyph glyph-name="b" unicode="b" d="M616 529 q0 -22 -9 -47 q-9 -25 -24.5 -46 q-15.5 -21 -37.5 -35.5 q-22 -14.5 -48 -15.5 q27 -2 53.5 -15.5 q26.5 -13.5 47.5 -36.5 q21 -23 34.5 -53 q13.5 -30 13.5 -64 q0 -60 -18 -101.5 q-18 -41.5 -49 -67 q-31 -25.5 -72.5 -36.5 q-41.5 -11 -88.5 -11 l-338 0 l0 732 l322 0 q44 0 83 -8.5 q39 -8.5 68 -31 q29 -22.5 46 -62 q17 -39.5 17 -101.5 ZM418 124 q18 0 34 8.5 q16 8.5 28 23 q12 14.5 19 32 q7 17.5 7 35.5 q0 37 -27.5 62 q-27.5 25 -75.5 25 l-183 0 l0 -186 l198 0 ZM220 435 l172 0 q21 0 36.5 8 q15.5 8 26 21 q10.5 13 16 29.5 q5.5 16.5 5.5 32.5 q0 16 -6 31 q-6 15 -16 26 q-10 11 -23.5 18 q-13.5 7 -28.5 7 l-182 0 l0 -173 Z" /><glyph glyph-name="c" unicode="c" d="M750 180 q-24 -44 -59 -79.5 q-35 -35.5 -77.5 -61 q-42.5 -25.5 -92 -39.5 q-49.5 -14 -102.5 -14 q-78 0 -147 30 q-69 30 -120.5 81.5 q-51.5 51.5 -81.5 120.5 q-30 69 -30 147 q0 78 30 147 q30 69 81.5 120.5 q51.5 51.5 120.5 81.5 q69 30 147 30 q53 0 102.5 -14 q49.5 -14 92 -39.5 q42.5 -25.5 77.5 -61 q35 -35.5 59 -78.5 l-131 -53 q-16 24 -37.5 45 q-21.5 21 -47.5 37 q-26 16 -55 25 q-29 9 -60 9 q-50 0 -93.5 -20.5 q-43.5 -20.5 -75.5 -54.5 q-32 -34 -51 -79.5 q-19 -45.5 -19 -94.5 q0 -50 19 -95 q19 -45 51 -79 q32 -34 75.5 -54.5 q43.5 -20.5 93.5 -20.5 q31 0 60 9 q29 9 55 25 q26 16 47.5 37.5 q21.5 21.5 37.5 45.5 l131 -53 Z" /><glyph glyph-name="d" unicode="d" d="M369 0 l-289 0 l0 732 l289 0 q157 0 258 -92 q54 -49 81.5 -118.5 q27.5 -69.5 27.5 -155.5 q0 -87 -27.5 -156.5 q-27.5 -69.5 -81.5 -118.5 q-49 -45 -114.5 -68 q-65.5 -23 -143.5 -23 ZM220 124 l149 0 q39 0 79 9 q40 9 72.5 35.5 q32.5 26.5 53.5 73.5 q21 47 21 123 q0 76 -21 123.5 q-21 47.5 -54 73.5 q-33 26 -73 35 q-40 9 -78 9 l-149 0 l0 -482 Z" /><glyph glyph-name="e" unicode="e" d="M219 608 l0 -183 l354 0 l0 -127 l-354 0 l0 -172 l399 0 l0 -126 l-538 0 l0 732 l538 0 l0 -124 l-399 0 Z" /><glyph glyph-name="f" unicode="f" d="M220 607 l0 -180 l353 0 l0 -129 l-353 0 l0 -298 l-140 0 l0 732 l538 0 l0 -125 l-398 0 Z" /><glyph glyph-name="g" unicode="g" d="M790 400 q-1 -21 -1 -39 q-1 -16 -1 -31.5 q0 -15.5 -1 -23.5 q-6 -69 -37.5 -128 q-31.5 -59 -81 -101.5 q-49.5 -42.5 -114 -66.5 q-64.5 -24 -135.5 -24 q-78 0 -147 30 q-69 30 -120.5 81.5 q-51.5 51.5 -81.5 120.5 q-30 69 -30 147 q0 78 30 147.5 q30 69.5 81.5 121 q51.5 51.5 120.5 81.5 q69 30 147 30 q99 0 181.5 -46 q82.5 -46 133.5 -123 l-120 -73 q-32 47 -83.5 79 q-51.5 32 -111.5 32 q-50 0 -93.5 -20.5 q-43.5 -20.5 -76 -54.5 q-32.5 -34 -51.5 -79.5 q-19 -45.5 -19 -94.5 q0 -50 19 -95 q19 -45 51.5 -79 q32.5 -34 76 -54.5 q43.5 -20.5 93.5 -20.5 q38 0 73 11.5 q35 11.5 64 32.5 q29 21 50.5 50 q21.5 29 31.5 64 l-270 0 l0 126 l422 0 Z" /><glyph glyph-name="h" unicode="h" d="M720 732 l0 -732 l-139 0 l0 291 l-362 0 l0 -291 l-139 0 l0 732 l139 0 l0 -316 l362 0 l0 316 l139 0 Z" /><glyph glyph-name="i" unicode="i" d="M240 0 l-140 0 l0 731 l140 0 l0 -731 Z" /><glyph glyph-name="j" unicode="j" d="M532 731 l0 -459 q0 -64 -19.5 -117 q-19.5 -53 -55 -90.5 q-35.5 -37.5 -85.5 -58 q-50 -20.5 -111 -20.5 q-86 0 -148.5 40 q-62.5 40 -94.5 111 l127 57 q6 -14 16 -28.5 q10 -14.5 24 -26 q14 -11.5 32.5 -19 q18.5 -7.5 43.5 -7.5 q43 0 68.5 17 q25.5 17 39.5 42 q14 25 18.5 52 q4.5 27 4.5 48 l0 459 l140 0 Z" /><glyph glyph-name="k" unicode="k" d="M527 0 l-307 333 l0 -333 l-140 0 l0 732 l140 0 l0 -372 l291 371 l172 0 l-301 -378 l330 -353 l-185 0 Z" /><glyph glyph-name="l" unicode="l" d="M607 124 l0 -124 l-527 0 l0 732 l140 0 l0 -608 l387 0 Z" /><glyph glyph-name="m" unicode="m" d="M817 731 l0 -731 l-140 0 l0 370 l-229 -275 l-228 275 l0 -370 l-140 0 l0 731 l9 0 l359 -422 l360 422 l9 0 Z" /><glyph glyph-name="n" unicode="n" d="M701 0 l-482 435 l0 -435 l-139 0 l0 731 l15 0 l481 -442 l0 442 l140 0 l0 -731 l-15 0 Z" /><glyph glyph-name="o" unicode="o" d="M422 -14 q-78 0 -147 30 q-69 30 -120.5 81.5 q-51.5 51.5 -81.5 120.5 q-30 69 -30 148 q0 78 30 147.5 q30 69.5 81.5 121 q51.5 51.5 120.5 81.5 q69 30 147 30 q79 0 148 -30 q69 -30 120.5 -81.5 q51.5 -51.5 81.5 -121 q30 -69.5 30 -147.5 q0 -79 -30 -148 q-30 -69 -81.5 -120.5 q-51.5 -51.5 -120.5 -81.5 q-69 -30 -148 -30 ZM422 615 q-50 0 -93.5 -20.5 q-43.5 -20.5 -76 -54.5 q-32.5 -34 -51.5 -79.5 q-19 -45.5 -19 -94.5 q0 -50 19 -95 q19 -45 51.5 -79.5 q32.5 -34.5 76 -55 q43.5 -20.5 93.5 -20.5 q50 0 93.5 20.5 q43.5 20.5 76 55 q32.5 34.5 51.5 79.5 q19 45 19 95 q0 49 -19 94.5 q-19 45.5 -51.5 79.5 q-32.5 34 -76 54.5 q-43.5 20.5 -93.5 20.5 Z" /><glyph glyph-name="p" unicode="p" d="M406 732 q54 0 101.5 -20.5 q47.5 -20.5 82.5 -55.5 q35 -35 55.5 -82.5 q20.5 -47.5 20.5 -101.5 q0 -54 -18 -100 q-18 -46 -53 -80.5 q-35 -34.5 -88.5 -54 q-53.5 -19.5 -123.5 -19.5 l-163 0 l0 -218 l-140 0 l0 732 l326 0 ZM406 344 q31 0 54 10.5 q23 10.5 37.5 28.5 q14.5 18 21.5 41 q7 23 7 48 q0 25 -9 49.5 q-9 24.5 -26 43.5 q-17 19 -42 31 q-25 12 -58 12 l-171 0 l0 -264 l186 0 Z" /><glyph glyph-name="q" unicode="q" d="M803 128 l0 -129 l-364 0 q-102 0 -176.5 29.5 q-74.5 29.5 -123.5 80 q-49 50.5 -72.5 118.5 q-23.5 68 -23.5 145 q0 77 29.5 145 q29.5 68 80 118.5 q50.5 50.5 118 80 q67.5 29.5 144.5 29.5 q77 0 145 -29.5 q68 -29.5 118.5 -80 q50.5 -50.5 80 -118.5 q29.5 -68 29.5 -145 q0 -33 -7.5 -68 q-7.5 -35 -24.5 -68 q-17 -33 -43.5 -61 q-26.5 -28 -65.5 -47 l156 0 ZM182 372 q0 -48 18.5 -91 q18.5 -43 50 -75.5 q31.5 -32.5 74 -51.5 q42.5 -19 90.5 -19 q48 0 90.5 19 q42.5 19 74 51.5 q31.5 32.5 50 75.5 q18.5 43 18.5 91 q0 48 -18.5 91.5 q-18.5 43.5 -50 75.5 q-31.5 32 -74 51 q-42.5 19 -90.5 19 q-48 0 -90.5 -19 q-42.5 -19 -74 -51 q-31.5 -32 -50 -75.5 q-18.5 -43.5 -18.5 -91.5 Z" /><glyph glyph-name="r" unicode="r" d="M219 0 l-139 0 l0 732 l332 0 q56 0 102.5 -18.5 q46.5 -18.5 79.5 -52 q33 -33.5 51.5 -80 q18.5 -46.5 18.5 -101.5 q0 -83 -41.5 -145 q-41.5 -62 -110.5 -89 q93 -122 183 -246 l-167 0 q-44 57 -86 115 q-42 58 -84 118 l-139 0 l0 -233 ZM219 357 l193 0 q19 0 39.5 7.5 q20.5 7.5 36.5 23 q16 15.5 26.5 38.5 q10.5 23 10.5 54 q0 16 -4 38 q-4 22 -16 42 q-12 20 -34 34 q-22 14 -59 14 l-193 0 l0 -251 Z" /><glyph glyph-name="s" unicode="s" d="M51 96 l76 112 q55 -38 113.5 -65.5 q58.5 -27.5 122.5 -27.5 q34 0 60 8.5 q26 8.5 44 22 q18 13.5 27 31 q9 17.5 9 34.5 q0 22 -13.5 37.5 q-13.5 15.5 -36 25.5 q-22.5 10 -53 17 q-30.5 7 -63.5 13 q-22 4 -51 9.5 q-29 5.5 -60 15 q-31 9.5 -61 25 q-30 15.5 -54 39 q-24 23.5 -38.5 56 q-14.5 32.5 -14.5 76.5 q0 64 26 106.5 q26 42.5 66.5 67 q40.5 24.5 90 34.5 q49.5 10 95.5 10 q46 0 82 -6 q36 -6 67 -17.5 q31 -11.5 60.5 -29 q29.5 -17.5 63.5 -41.5 l-78 -110 q-52 36 -100 55 q-48 19 -101 19 q-18 0 -41 -4.5 q-23 -4.5 -43.5 -14.5 q-20.5 -10 -34 -25.5 q-13.5 -15.5 -13.5 -37.5 q0 -22 16 -37 q16 -15 41 -25 q25 -10 55 -17 q30 -7 58 -14 q21 -5 49.5 -10 q28.5 -5 59 -14 q30.5 -9 60.5 -24 q30 -15 53.5 -38.5 q23.5 -23.5 38 -58 q14.5 -34.5 14.5 -83.5 q0 -57 -20 -99 q-20 -42 -57 -69.5 q-37 -27.5 -88 -41.5 q-51 -14 -113 -14 q-57 0 -100.5 8.5 q-43.5 8.5 -79.5 23 q-36 14.5 -68 34.5 q-32 20 -66 44 Z" /><glyph glyph-name="t" unicode="t" d="M606 608 l-209 0 l0 -608 l-140 0 l0 608 l-210 0 l0 124 l559 0 l0 -124 Z" /><glyph glyph-name="u" unicode="u" d="M394 -13 q-71 0 -129 22 q-58 22 -99 62 q-41 40 -63.5 97 q-22.5 57 -22.5 127 l0 436 l140 0 l0 -436 q0 -55 18 -91 q18 -36 44.5 -57 q26.5 -21 57 -29 q30.5 -8 54.5 -8 q24 0 54.5 8 q30.5 8 57 29 q26.5 21 44.5 57 q18 36 18 91 l0 436 l140 0 l0 -436 q0 -70 -22 -127 q-22 -57 -63 -97 q-41 -40 -99 -62 q-58 -22 -130 -22 Z" /><glyph glyph-name="v" unicode="v" d="M716 731 l-348 -731 l-8 0 l-347 731 l154 0 l197 -424 l197 424 l155 0 Z" /><glyph glyph-name="w" unicode="w" d="M981 731 l-273 -731 l-14 0 l-198 426 l-200 -427 l-13 0 l-270 732 l149 0 l143 -401 l186 401 l9 0 l186 -402 l146 402 l149 0 Z" /><glyph glyph-name="x" unicode="x" d="M296 362 l-278 369 l175 0 l190 -263 l190 263 l174 0 l-277 -369 l272 -362 l-175 0 l-184 255 l-184 -255 l-175 0 l272 362 Z" /><glyph glyph-name="y" unicode="y" d="M704 731 q-28 -46 -64.5 -105 q-36.5 -59 -74.5 -120.5 q-38 -61.5 -75 -121 q-37 -59.5 -65 -107.5 l0 -277 l-140 0 l0 277 q-65 114 -138 227 q-73 113 -139 227 l163 0 q45 -75 92 -155 q47 -80 92 -155 q22 35 46 75 q24 40 48 80.5 q24 40.5 47.5 80 q23.5 39.5 44.5 74.5 l163 0 Z" /><glyph glyph-name="z" unicode="z" d="M675 714 l-408 -584 l394 0 l0 -130 l-640 0 l0 16 l409 586 l-378 0 l0 129 l623 0 l0 -17 Z" /><glyph glyph-name="Agrave" unicode="à" d="M158 0 l56 115 l345 0 l57 -115 l152 0 l-374 731 l-14 0 l-374 -731 l152 0 ZM387 458 l104 -221 l-209 0 l105 221 ZM433 767 l-98 0 l-134 101 l115 50 l117 -151 Z" /><glyph glyph-name="Aacute" unicode="á" d="M6 0 l374 731 l14 0 l374 -731 l-152 0 l-57 115 l-345 0 l-56 -115 l-152 0 ZM282 237 l209 0 l-104 221 l-105 -221 ZM457 918 l116 -50 l-134 -101 l-99 0 l117 151 Z" /><glyph glyph-name="Acircumflex" unicode="â" d="M6 0 l374 731 l14 0 l374 -731 l-152 0 l-57 115 l-345 0 l-56 -115 l-152 0 ZM328 918 l117 0 l123 -153 l-112 0 l-71 70 l-67 -71 l-112 0 l122 154 ZM282 237 l209 0 l-104 221 l-105 -221 Z" /><glyph glyph-name="Atilde" unicode="ã" d="M158 0 l56 115 l345 0 l57 -115 l152 0 l-374 731 l-14 0 l-374 -731 l152 0 ZM457 759 l-4 0 q-37 2 -58.5 16.5 q-21.5 14.5 -36.5 28.5 q-11 11 -19.5 16 q-8.5 5 -24.5 5 q-11 0 -19 -8.5 q-8 -8.5 -13.5 -19 q-5.5 -10.5 -9 -19 q-3.5 -8.5 -3.5 -8.5 l-82 23 q4 16 13.5 37 q9.5 21 25 39.5 q15.5 18.5 37 31 q21.5 12.5 49.5 13.5 q41 1 64.5 -14.5 q23.5 -15.5 38.5 -29.5 q11 -11 19 -15.5 q8 -4.5 22 -5.5 q12 -1 21 6.5 q9 7.5 15 15.5 q7 10 13 23 l81 -29 q-4 -11 -12 -27 q-8 -16 -22 -32 q-20 -23 -44 -35 q-24 -12 -51 -12 ZM387 458 l104 -221 l-209 0 l105 221 Z" /><glyph glyph-name="Adieresis" unicode="ä" d="M158 0 l56 115 l345 0 l57 -115 l152 0 l-374 731 l-14 0 l-374 -731 l152 0 ZM387 458 l104 -221 l-209 0 l105 221 ZM217 833 q0 29 20 48.5 q20 19.5 49 19.5 q29 0 48 -19.5 q19 -19.5 19 -48.5 q0 -29 -19 -48 q-19 -19 -48 -19 q-29 0 -49 19 q-20 19 -20 48 ZM421 833 q0 29 19.5 48.5 q19.5 19.5 48.5 19.5 q29 0 48.5 -19.5 q19.5 -19.5 19.5 -48.5 q0 -29 -19.5 -48 q-19.5 -19 -48.5 -19 q-29 0 -48.5 19 q-19.5 19 -19.5 48 Z" /><glyph glyph-name="Aring" unicode="å" d="M6 0 l358 699 q-37 8 -61 37.5 q-24 29.5 -24 68.5 q0 22 8.5 41.5 q8.5 19.5 23 34 q14.5 14.5 34 23 q19.5 8.5 42.5 8.5 q22 0 41.5 -8.5 q19.5 -8.5 34 -23 q14.5 -14.5 23 -34 q8.5 -19.5 8.5 -41.5 q0 -39 -24 -68.5 q-24 -29.5 -60 -37.5 l358 -699 l-152 0 l-57 115 l-345 0 l-56 -115 l-152 0 ZM282 237 l209 0 l-104 221 l-105 -221 ZM387 845 q-17 0 -29 -11.5 q-12 -11.5 -12 -28.5 q0 -17 12 -29 q12 -12 29 -12 q17 0 28.5 12 q11.5 12 11.5 29 q0 17 -11.5 28.5 q-11.5 11.5 -28.5 11.5 Z" /><glyph glyph-name="Ccedilla" unicode="ç" d="M469 -47 q55 -19 51 -80 q-2 -31 -15.5 -47.5 q-13.5 -16.5 -30.5 -24.5 q-17 -8 -33 -9.5 q-16 -1.5 -23 -1.5 q-21 0 -36 4.5 q-15 4.5 -26 9.5 q-12 6 -21 14 l25 49 q4 -4 12 -8 q7 -3 18 -6 q11 -3 28 -2 q12 0 21.5 7 q9.5 7 9.5 21 q0 14 -11.5 18 q-11.5 4 -21.5 4 q-11 -1 -20.5 -3 q-9.5 -2 -16.5 -4 q-8 -3 -15 -6 l-14 23 l30 77 q-72 7 -134 39.5 q-62 32.5 -107.5 83 q-45.5 50.5 -72 115.5 q-26.5 65 -26.5 139 q0 78 30 147 q30 69 81.5 120.5 q51.5 51.5 120.5 81.5 q69 30 147 30 q53 0 102.5 -14 q49.5 -14 92 -39.5 q42.5 -25.5 77.5 -61 q35 -35.5 59 -78.5 l-131 -53 q-16 24 -37.5 45 q-21.5 21 -47.5 37 q-26 16 -55 25 q-29 9 -60 9 q-50 0 -93.5 -20.5 q-43.5 -20.5 -75.5 -54.5 q-32 -34 -51 -79.5 q-19 -45.5 -19 -94.5 q0 -50 19 -95 q19 -45 51 -79 q32 -34 75.5 -54.5 q43.5 -20.5 93.5 -20.5 q31 0 60 9 q29 9 55 25 q26 16 47.5 37.5 q21.5 21.5 37.5 45.5 l131 -53 q-23 -41 -55 -75 q-32 -34 -71.5 -59 q-39.5 -25 -85.5 -40.5 q-46 -15.5 -95 -18.5 l-14 -31 q3 1 14.5 1.5 q11.5 0.5 25.5 -4.5 Z" /><glyph glyph-name="Scaron" unicode="&#x160;" d="M51 96 l76 112 q55 -38 113.5 -65.5 q58.5 -27.5 122.5 -27.5 q34 0 60 8.5 q26 8.5 44 22 q18 13.5 27 31 q9 17.5 9 34.5 q0 22 -13.5 37.5 q-13.5 15.5 -36 25.5 q-22.5 10 -53 17 q-30.5 7 -63.5 13 q-22 4 -51 9.5 q-29 5.5 -60 15 q-31 9.5 -61 25 q-30 15.5 -54 39 q-24 23.5 -38.5 56 q-14.5 32.5 -14.5 76.5 q0 64 26 106.5 q26 42.5 66.5 67 q40.5 24.5 90 34.5 q49.5 10 95.5 10 q46 0 82 -6 q36 -6 67 -17.5 q31 -11.5 60.5 -29 q29.5 -17.5 63.5 -41.5 l-78 -110 q-52 36 -100 55 q-48 19 -101 19 q-18 0 -41 -4.5 q-23 -4.5 -43.5 -14.5 q-20.5 -10 -34 -25.5 q-13.5 -15.5 -13.5 -37.5 q0 -22 16 -37 q16 -15 41 -25 q25 -10 55 -17 q30 -7 58 -14 q21 -5 49.5 -10 q28.5 -5 59 -14 q30.5 -9 60.5 -24 q30 -15 53.5 -38.5 q23.5 -23.5 38 -58 q14.5 -34.5 14.5 -83.5 q0 -57 -20 -99 q-20 -42 -57 -69.5 q-37 -27.5 -88 -41.5 q-51 -14 -113 -14 q-57 0 -100.5 8.5 q-43.5 8.5 -79.5 23 q-36 14.5 -68 34.5 q-32 20 -66 44 ZM399 764 l-117 0 l-123 154 l112 0 l71 -70 l67 70 l112 0 l-122 -154 Z" /><glyph glyph-name="Zcaron" unicode="&#x17d;" d="M675 714 l-408 -584 l394 0 l0 -130 l-640 0 l0 16 l409 586 l-378 0 l0 129 l623 0 l0 -17 ZM410 764 l-117 0 l-123 154 l112 0 l71 -70 l67 70 l112 0 l-122 -154 Z" /><glyph glyph-name="Ydieresis" unicode="&#x178;" d="M541 731 q-21 -35 -44.5 -74.5 q-23.5 -39.5 -47.5 -80 q-24 -40.5 -48 -80.5 q-24 -40 -46 -75 q-45 75 -92 155 q-47 80 -92 155 l-163 0 q66 -114 139 -227 q73 -113 138 -227 l0 -277 l140 0 l0 277 q28 48 65 107.5 q37 59.5 75 121 q38 61.5 74.5 120.5 q36.5 59 64.5 105 l-163 0 ZM186 843 q0 29 20 48.5 q20 19.5 49 19.5 q29 0 48 -19.5 q19 -19.5 19 -48.5 q0 -29 -19 -48 q-19 -19 -48 -19 q-29 0 -49 19 q-20 19 -20 48 ZM390 843 q0 29 19.5 48.5 q19.5 19.5 48.5 19.5 q29 0 48.5 -19.5 q19.5 -19.5 19.5 -48.5 q0 -29 -19.5 -48 q-19.5 -19 -48.5 -19 q-29 0 -48.5 19 q-19.5 19 -19.5 48 Z" /><glyph glyph-name="Egrave" unicode="è" d="M618 608 l0 124 l-538 0 l0 -732 l538 0 l0 126 l-399 0 l0 172 l354 0 l0 127 l-354 0 l0 183 l399 0 ZM437 767 l-98 0 l-134 101 l115 50 l117 -151 Z" /><glyph glyph-name="Eacute" unicode="é" d="M219 608 l0 -183 l354 0 l0 -127 l-354 0 l0 -172 l399 0 l0 -126 l-538 0 l0 732 l538 0 l0 -124 l-399 0 ZM372 918 l116 -50 l-134 -101 l-99 0 l117 151 Z" /><glyph glyph-name="Ecircumflex" unicode="ê" d="M219 608 l0 -183 l354 0 l0 -127 l-354 0 l0 -172 l399 0 l0 -126 l-538 0 l0 732 l538 0 l0 -124 l-399 0 ZM293 918 l117 0 l123 -153 l-112 0 l-71 70 l-67 -71 l-112 0 l122 154 Z" /><glyph glyph-name="Edieresis" unicode="ë" d="M618 608 l0 124 l-538 0 l0 -732 l538 0 l0 126 l-399 0 l0 172 l354 0 l0 127 l-354 0 l0 183 l399 0 ZM181 843 q0 29 20 48.5 q20 19.5 49 19.5 q29 0 48 -19.5 q19 -19.5 19 -48.5 q0 -29 -19 -48 q-19 -19 -48 -19 q-29 0 -49 19 q-20 19 -20 48 ZM385 843 q0 29 19.5 48.5 q19.5 19.5 48.5 19.5 q29 0 48.5 -19.5 q19.5 -19.5 19.5 -48.5 q0 -29 -19.5 -48 q-19.5 -19 -48.5 -19 q-29 0 -48.5 19 q-19.5 19 -19.5 48 Z" /><glyph glyph-name="Igrave" unicode="ì" d="M240 0 l-140 0 l0 731 l140 0 l0 -731 ZM238 767 l-98 0 l-134 101 l115 50 l117 -151 Z" /><glyph glyph-name="Iacute" unicode="í" d="M240 0 l-140 0 l0 731 l140 0 l0 -731 ZM217 918 l116 -50 l-134 -101 l-99 0 l117 151 Z" /><glyph glyph-name="Icircumflex" unicode="î" d="M240 0 l-140 0 l0 731 l140 0 l0 -731 ZM111 918 l117 0 l123 -153 l-112 0 l-71 70 l-67 -71 l-112 0 l122 154 Z" /><glyph glyph-name="Idieresis" unicode="ï" d="M240 0 l-140 0 l0 731 l140 0 l0 -731 ZM204 843 q0 29 19.5 48.5 q19.5 19.5 48.5 19.5 q29 0 48.5 -19.5 q19.5 -19.5 19.5 -48.5 q0 -29 -19.5 -48 q-19.5 -19 -48.5 -19 q-29 0 -48.5 19 q-19.5 19 -19.5 48 ZM0 843 q0 29 20 48.5 q20 19.5 49 19.5 q29 0 48 -19.5 q19 -19.5 19 -48.5 q0 -29 -19 -48 q-19 -19 -48 -19 q-29 0 -49 19 q-20 19 -20 48 Z" /><glyph glyph-name="Ntilde" unicode="ñ" d="M716 0 l0 731 l-140 0 l0 -442 l-481 442 l-15 0 l0 -731 l139 0 l0 435 l482 -435 l15 0 ZM458 759 l-4 0 q-37 2 -58.5 16.5 q-21.5 14.5 -36.5 28.5 q-11 11 -19.5 16 q-8.5 5 -24.5 5 q-11 0 -19 -8.5 q-8 -8.5 -13.5 -19 q-5.5 -10.5 -9 -19 q-3.5 -8.5 -3.5 -8.5 l-82 23 q4 16 13.5 37 q9.5 21 25 39.5 q15.5 18.5 37 31 q21.5 12.5 49.5 13.5 q41 1 64.5 -14.5 q23.5 -15.5 38.5 -29.5 q11 -11 19 -15.5 q8 -4.5 22 -5.5 q12 -1 21 6.5 q9 7.5 15 15.5 q7 10 13 23 l81 -29 q-4 -11 -12 -27 q-8 -16 -22 -32 q-20 -23 -44 -35 q-24 -12 -51 -12 Z" /><glyph glyph-name="Ograve" unicode="ò" d="M422 -14 q-78 0 -147 30 q-69 30 -120.5 81.5 q-51.5 51.5 -81.5 120.5 q-30 69 -30 148 q0 78 30 147.5 q30 69.5 81.5 121 q51.5 51.5 120.5 81.5 q69 30 147 30 q79 0 148 -30 q69 -30 120.5 -81.5 q51.5 -51.5 81.5 -121 q30 -69.5 30 -147.5 q0 -79 -30 -148 q-30 -69 -81.5 -120.5 q-51.5 -51.5 -120.5 -81.5 q-69 -30 -148 -30 ZM422 615 q-50 0 -93.5 -20.5 q-43.5 -20.5 -76 -54.5 q-32.5 -34 -51.5 -79.5 q-19 -45.5 -19 -94.5 q0 -50 19 -95 q19 -45 51.5 -79.5 q32.5 -34.5 76 -55 q43.5 -20.5 93.5 -20.5 q50 0 93.5 20.5 q43.5 20.5 76 55 q32.5 34.5 51.5 79.5 q19 45 19 95 q0 49 -19 94.5 q-19 45.5 -51.5 79.5 q-32.5 34 -76 54.5 q-43.5 20.5 -93.5 20.5 ZM499 767 l-98 0 l-134 101 l115 50 l117 -151 Z" /><glyph glyph-name="Oacute" unicode="ó" d="M422 -14 q-78 0 -147 30 q-69 30 -120.5 81.5 q-51.5 51.5 -81.5 120.5 q-30 69 -30 148 q0 78 30 147.5 q30 69.5 81.5 121 q51.5 51.5 120.5 81.5 q69 30 147 30 q79 0 148 -30 q69 -30 120.5 -81.5 q51.5 -51.5 81.5 -121 q30 -69.5 30 -147.5 q0 -79 -30 -148 q-30 -69 -81.5 -120.5 q-51.5 -51.5 -120.5 -81.5 q-69 -30 -148 -30 ZM422 615 q-50 0 -93.5 -20.5 q-43.5 -20.5 -76 -54.5 q-32.5 -34 -51.5 -79.5 q-19 -45.5 -19 -94.5 q0 -50 19 -95 q19 -45 51.5 -79.5 q32.5 -34.5 76 -55 q43.5 -20.5 93.5 -20.5 q50 0 93.5 20.5 q43.5 20.5 76 55 q32.5 34.5 51.5 79.5 q19 45 19 95 q0 49 -19 94.5 q-19 45.5 -51.5 79.5 q-32.5 34 -76 54.5 q-43.5 20.5 -93.5 20.5 ZM453 918 l116 -50 l-134 -101 l-99 0 l117 151 Z" /><glyph glyph-name="Ocircumflex" unicode="ô" d="M422 -14 q-78 0 -147 30 q-69 30 -120.5 81.5 q-51.5 51.5 -81.5 120.5 q-30 69 -30 148 q0 78 30 147.5 q30 69.5 81.5 121 q51.5 51.5 120.5 81.5 q69 30 147 30 q79 0 148 -30 q69 -30 120.5 -81.5 q51.5 -51.5 81.5 -121 q30 -69.5 30 -147.5 q0 -79 -30 -148 q-30 -69 -81.5 -120.5 q-51.5 -51.5 -120.5 -81.5 q-69 -30 -148 -30 ZM422 615 q-50 0 -93.5 -20.5 q-43.5 -20.5 -76 -54.5 q-32.5 -34 -51.5 -79.5 q-19 -45.5 -19 -94.5 q0 -50 19 -95 q19 -45 51.5 -79.5 q32.5 -34.5 76 -55 q43.5 -20.5 93.5 -20.5 q50 0 93.5 20.5 q43.5 20.5 76 55 q32.5 34.5 51.5 79.5 q19 45 19 95 q0 49 -19 94.5 q-19 45.5 -51.5 79.5 q-32.5 34 -76 54.5 q-43.5 20.5 -93.5 20.5 ZM365 918 l117 0 l123 -153 l-112 0 l-71 70 l-67 -71 l-112 0 l122 154 Z" /><glyph glyph-name="Otilde" unicode="õ" d="M422 -14 q-78 0 -147 30 q-69 30 -120.5 81.5 q-51.5 51.5 -81.5 120.5 q-30 69 -30 148 q0 78 30 147.5 q30 69.5 81.5 121 q51.5 51.5 120.5 81.5 q69 30 147 30 q79 0 148 -30 q69 -30 120.5 -81.5 q51.5 -51.5 81.5 -121 q30 -69.5 30 -147.5 q0 -79 -30 -148 q-30 -69 -81.5 -120.5 q-51.5 -51.5 -120.5 -81.5 q-69 -30 -148 -30 ZM422 615 q-50 0 -93.5 -20.5 q-43.5 -20.5 -76 -54.5 q-32.5 -34 -51.5 -79.5 q-19 -45.5 -19 -94.5 q0 -50 19 -95 q19 -45 51.5 -79.5 q32.5 -34.5 76 -55 q43.5 -20.5 93.5 -20.5 q50 0 93.5 20.5 q43.5 20.5 76 55 q32.5 34.5 51.5 79.5 q19 45 19 95 q0 49 -19 94.5 q-19 45.5 -51.5 79.5 q-32.5 34 -76 54.5 q-43.5 20.5 -93.5 20.5 ZM493 759 l-4 0 q-37 2 -58.5 16.5 q-21.5 14.5 -36.5 28.5 q-11 11 -19.5 16 q-8.5 5 -24.5 5 q-11 0 -19 -8.5 q-8 -8.5 -13.5 -19 q-5.5 -10.5 -9 -19 q-3.5 -8.5 -3.5 -8.5 l-82 23 q4 16 13.5 37 q9.5 21 25 39.5 q15.5 18.5 37 31 q21.5 12.5 49.5 13.5 q41 1 64.5 -14.5 q23.5 -15.5 38.5 -29.5 q11 -11 19 -15.5 q8 -4.5 22 -5.5 q12 -1 21 6.5 q9 7.5 15 15.5 q7 10 13 23 l81 -29 q-4 -11 -12 -27 q-8 -16 -22 -32 q-20 -23 -44 -35 q-24 -12 -51 -12 Z" /><glyph glyph-name="Odieresis" unicode="ö" d="M422 -14 q-78 0 -147 30 q-69 30 -120.5 81.5 q-51.5 51.5 -81.5 120.5 q-30 69 -30 148 q0 78 30 147.5 q30 69.5 81.5 121 q51.5 51.5 120.5 81.5 q69 30 147 30 q79 0 148 -30 q69 -30 120.5 -81.5 q51.5 -51.5 81.5 -121 q30 -69.5 30 -147.5 q0 -79 -30 -148 q-30 -69 -81.5 -120.5 q-51.5 -51.5 -120.5 -81.5 q-69 -30 -148 -30 ZM422 615 q-50 0 -93.5 -20.5 q-43.5 -20.5 -76 -54.5 q-32.5 -34 -51.5 -79.5 q-19 -45.5 -19 -94.5 q0 -50 19 -95 q19 -45 51.5 -79.5 q32.5 -34.5 76 -55 q43.5 -20.5 93.5 -20.5 q50 0 93.5 20.5 q43.5 20.5 76 55 q32.5 34.5 51.5 79.5 q19 45 19 95 q0 49 -19 94.5 q-19 45.5 -51.5 79.5 q-32.5 34 -76 54.5 q-43.5 20.5 -93.5 20.5 ZM251 843 q0 29 20 48.5 q20 19.5 49 19.5 q29 0 48 -19.5 q19 -19.5 19 -48.5 q0 -29 -19 -48 q-19 -19 -48 -19 q-29 0 -49 19 q-20 19 -20 48 ZM455 843 q0 29 19.5 48.5 q19.5 19.5 48.5 19.5 q29 0 48.5 -19.5 q19.5 -19.5 19.5 -48.5 q0 -29 -19.5 -48 q-19.5 -19 -48.5 -19 q-29 0 -48.5 19 q-19.5 19 -19.5 48 Z" /><glyph glyph-name="Ugrave" unicode="ù" d="M394 -13 q-71 0 -129 22 q-58 22 -99 62 q-41 40 -63.5 97 q-22.5 57 -22.5 127 l0 436 l140 0 l0 -436 q0 -55 18 -91 q18 -36 44.5 -57 q26.5 -21 57 -29 q30.5 -8 54.5 -8 q24 0 54.5 8 q30.5 8 57 29 q26.5 21 44.5 57 q18 36 18 91 l0 436 l140 0 l0 -436 q0 -70 -22 -127 q-22 -57 -63 -97 q-41 -40 -99 -62 q-58 -22 -130 -22 ZM470 767 l-98 0 l-134 101 l115 50 l117 -151 Z" /><glyph glyph-name="Uacute" unicode="ú" d="M394 -13 q-71 0 -129 22 q-58 22 -99 62 q-41 40 -63.5 97 q-22.5 57 -22.5 127 l0 436 l140 0 l0 -436 q0 -55 18 -91 q18 -36 44.5 -57 q26.5 -21 57 -29 q30.5 -8 54.5 -8 q24 0 54.5 8 q30.5 8 57 29 q26.5 21 44.5 57 q18 36 18 91 l0 436 l140 0 l0 -436 q0 -70 -22 -127 q-22 -57 -63 -97 q-41 -40 -99 -62 q-58 -22 -130 -22 ZM434 918 l116 -50 l-134 -101 l-99 0 l117 151 Z" /><glyph glyph-name="Ucircumflex" unicode="û" d="M394 -13 q-71 0 -129 22 q-58 22 -99 62 q-41 40 -63.5 97 q-22.5 57 -22.5 127 l0 436 l140 0 l0 -436 q0 -55 18 -91 q18 -36 44.5 -57 q26.5 -21 57 -29 q30.5 -8 54.5 -8 q24 0 54.5 8 q30.5 8 57 29 q26.5 21 44.5 57 q18 36 18 91 l0 436 l140 0 l0 -436 q0 -70 -22 -127 q-22 -57 -63 -97 q-41 -40 -99 -62 q-58 -22 -130 -22 ZM335 918 l117 0 l123 -153 l-112 0 l-71 70 l-67 -71 l-112 0 l122 154 Z" /><glyph glyph-name="Udieresis" unicode="ü" d="M394 -13 q-71 0 -129 22 q-58 22 -99 62 q-41 40 -63.5 97 q-22.5 57 -22.5 127 l0 436 l140 0 l0 -436 q0 -55 18 -91 q18 -36 44.5 -57 q26.5 -21 57 -29 q30.5 -8 54.5 -8 q24 0 54.5 8 q30.5 8 57 29 q26.5 21 44.5 57 q18 36 18 91 l0 436 l140 0 l0 -436 q0 -70 -22 -127 q-22 -57 -63 -97 q-41 -40 -99 -62 q-58 -22 -130 -22 ZM224 843 q0 29 20 48.5 q20 19.5 49 19.5 q29 0 48 -19.5 q19 -19.5 19 -48.5 q0 -29 -19 -48 q-19 -19 -48 -19 q-29 0 -49 19 q-20 19 -20 48 ZM428 843 q0 29 19.5 48.5 q19.5 19.5 48.5 19.5 q29 0 48.5 -19.5 q19.5 -19.5 19.5 -48.5 q0 -29 -19.5 -48 q-19.5 -19 -48.5 -19 q-29 0 -48.5 19 q-19.5 19 -19.5 48 Z" /><glyph glyph-name="Yacute" unicode="ý" d="M704 731 q-28 -46 -64.5 -105 q-36.5 -59 -74.5 -120.5 q-38 -61.5 -75 -121 q-37 -59.5 -65 -107.5 l0 -277 l-140 0 l0 277 q-65 114 -138 227 q-73 113 -139 227 l163 0 q45 -75 92 -155 q47 -80 92 -155 q22 35 46 75 q24 40 48 80.5 q24 40.5 47.5 80 q23.5 39.5 44.5 74.5 l163 0 ZM375 918 l116 -50 l-134 -101 l-99 0 l117 151 Z" /><glyph glyph-name="oslash" unicode="ø" d="M148 -23 l-76 66 l64 73 q-44 51 -68.5 114.5 q-24.5 63.5 -24.5 135.5 q0 78 30 147.5 q30 69.5 81.5 121 q51.5 51.5 120.5 81.5 q69 30 147 30 q59 0 112.5 -17 q53.5 -17 99.5 -48 l61 70 l76 -67 l-62 -70 q44 -51 68.5 -114 q24.5 -63 24.5 -134 q0 -79 -30 -148 q-30 -69 -81.5 -120.5 q-51.5 -51.5 -120.5 -81.5 q-69 -30 -148 -30 q-59 0 -112 16.5 q-53 16.5 -98 46.5 l-64 -72 ZM422 615 q-50 0 -93.5 -20.5 q-43.5 -20.5 -76 -54.5 q-32.5 -34 -51.5 -79.5 q-19 -45.5 -19 -94.5 q0 -40 12 -77 q12 -37 34 -68 l316 358 q-56 36 -122 36 ZM422 116 q50 0 93.5 20.5 q43.5 20.5 76 55 q32.5 34.5 51.5 79.5 q19 45 19 95 q0 39 -12 75.5 q-12 36.5 -33 67.5 l-316 -358 q27 -17 57.5 -26 q30.5 -9 63.5 -9 Z" /><glyph glyph-name="zcaron" unicode="&#x17e;" d="M675 714 l-408 -584 l394 0 l0 -130 l-640 0 l0 16 l409 586 l-378 0 l0 129 l623 0 l0 -17 ZM410 764 l-117 0 l-123 154 l112 0 l71 -70 l67 70 l112 0 l-122 -154 Z" /><glyph glyph-name="agrave" unicode="à" d="M158 0 l56 115 l345 0 l57 -115 l152 0 l-374 731 l-14 0 l-374 -731 l152 0 ZM387 458 l104 -221 l-209 0 l105 221 ZM433 767 l-98 0 l-134 101 l115 50 l117 -151 Z" /><glyph glyph-name="aacute" unicode="á" d="M6 0 l374 731 l14 0 l374 -731 l-152 0 l-57 115 l-345 0 l-56 -115 l-152 0 ZM282 237 l209 0 l-104 221 l-105 -221 ZM457 918 l116 -50 l-134 -101 l-99 0 l117 151 Z" /><glyph glyph-name="acircumflex" unicode="â" d="M6 0 l374 731 l14 0 l374 -731 l-152 0 l-57 115 l-345 0 l-56 -115 l-152 0 ZM328 918 l117 0 l123 -153 l-112 0 l-71 70 l-67 -71 l-112 0 l122 154 ZM282 237 l209 0 l-104 221 l-105 -221 Z" /><glyph glyph-name="atilde" unicode="ã" d="M158 0 l56 115 l345 0 l57 -115 l152 0 l-374 731 l-14 0 l-374 -731 l152 0 ZM457 759 l-4 0 q-37 2 -58.5 16.5 q-21.5 14.5 -36.5 28.5 q-11 11 -19.5 16 q-8.5 5 -24.5 5 q-11 0 -19 -8.5 q-8 -8.5 -13.5 -19 q-5.5 -10.5 -9 -19 q-3.5 -8.5 -3.5 -8.5 l-82 23 q4 16 13.5 37 q9.5 21 25 39.5 q15.5 18.5 37 31 q21.5 12.5 49.5 13.5 q41 1 64.5 -14.5 q23.5 -15.5 38.5 -29.5 q11 -11 19 -15.5 q8 -4.5 22 -5.5 q12 -1 21 6.5 q9 7.5 15 15.5 q7 10 13 23 l81 -29 q-4 -11 -12 -27 q-8 -16 -22 -32 q-20 -23 -44 -35 q-24 -12 -51 -12 ZM387 458 l104 -221 l-209 0 l105 221 Z" /><glyph glyph-name="adieresis" unicode="ä" d="M158 0 l56 115 l345 0 l57 -115 l152 0 l-374 731 l-14 0 l-374 -731 l152 0 ZM387 458 l104 -221 l-209 0 l105 221 ZM217 833 q0 29 20 48.5 q20 19.5 49 19.5 q29 0 48 -19.5 q19 -19.5 19 -48.5 q0 -29 -19 -48 q-19 -19 -48 -19 q-29 0 -49 19 q-20 19 -20 48 ZM421 833 q0 29 19.5 48.5 q19.5 19.5 48.5 19.5 q29 0 48.5 -19.5 q19.5 -19.5 19.5 -48.5 q0 -29 -19.5 -48 q-19.5 -19 -48.5 -19 q-29 0 -48.5 19 q-19.5 19 -19.5 48 Z" /><glyph glyph-name="aring" unicode="å" d="M6 0 l358 699 q-37 8 -61 37.5 q-24 29.5 -24 68.5 q0 22 8.5 41.5 q8.5 19.5 23 34 q14.5 14.5 34 23 q19.5 8.5 42.5 8.5 q22 0 41.5 -8.5 q19.5 -8.5 34 -23 q14.5 -14.5 23 -34 q8.5 -19.5 8.5 -41.5 q0 -39 -24 -68.5 q-24 -29.5 -60 -37.5 l358 -699 l-152 0 l-57 115 l-345 0 l-56 -115 l-152 0 ZM282 237 l209 0 l-104 221 l-105 -221 ZM387 845 q-17 0 -29 -11.5 q-12 -11.5 -12 -28.5 q0 -17 12 -29 q12 -12 29 -12 q17 0 28.5 12 q11.5 12 11.5 29 q0 17 -11.5 28.5 q-11.5 11.5 -28.5 11.5 Z" /><glyph glyph-name="egrave" unicode="è" d="M618 608 l0 124 l-538 0 l0 -732 l538 0 l0 126 l-399 0 l0 172 l354 0 l0 127 l-354 0 l0 183 l399 0 ZM437 767 l-98 0 l-134 101 l115 50 l117 -151 Z" /><glyph glyph-name="eacute" unicode="é" d="M219 608 l0 -183 l354 0 l0 -127 l-354 0 l0 -172 l399 0 l0 -126 l-538 0 l0 732 l538 0 l0 -124 l-399 0 ZM372 918 l116 -50 l-134 -101 l-99 0 l117 151 Z" /><glyph glyph-name="ecircumflex" unicode="ê" d="M219 608 l0 -183 l354 0 l0 -127 l-354 0 l0 -172 l399 0 l0 -126 l-538 0 l0 732 l538 0 l0 -124 l-399 0 ZM293 918 l117 0 l123 -153 l-112 0 l-71 70 l-67 -71 l-112 0 l122 154 Z" /><glyph glyph-name="edieresis" unicode="ë" d="M618 608 l0 124 l-538 0 l0 -732 l538 0 l0 126 l-399 0 l0 172 l354 0 l0 127 l-354 0 l0 183 l399 0 ZM181 843 q0 29 20 48.5 q20 19.5 49 19.5 q29 0 48 -19.5 q19 -19.5 19 -48.5 q0 -29 -19 -48 q-19 -19 -48 -19 q-29 0 -49 19 q-20 19 -20 48 ZM385 843 q0 29 19.5 48.5 q19.5 19.5 48.5 19.5 q29 0 48.5 -19.5 q19.5 -19.5 19.5 -48.5 q0 -29 -19.5 -48 q-19.5 -19 -48.5 -19 q-29 0 -48.5 19 q-19.5 19 -19.5 48 Z" /><glyph glyph-name="igrave" unicode="ì" d="M240 0 l-140 0 l0 731 l140 0 l0 -731 ZM238 767 l-98 0 l-134 101 l115 50 l117 -151 Z" /><glyph glyph-name="iacute" unicode="í" d="M240 0 l-140 0 l0 731 l140 0 l0 -731 ZM217 918 l116 -50 l-134 -101 l-99 0 l117 151 Z" /><glyph glyph-name="icircumflex" unicode="î" d="M240 0 l-140 0 l0 731 l140 0 l0 -731 ZM111 918 l117 0 l123 -153 l-112 0 l-71 70 l-67 -71 l-112 0 l122 154 Z" /><glyph glyph-name="idieresis" unicode="ï" d="M240 0 l-140 0 l0 731 l140 0 l0 -731 ZM204 843 q0 29 19.5 48.5 q19.5 19.5 48.5 19.5 q29 0 48.5 -19.5 q19.5 -19.5 19.5 -48.5 q0 -29 -19.5 -48 q-19.5 -19 -48.5 -19 q-29 0 -48.5 19 q-19.5 19 -19.5 48 ZM0 843 q0 29 20 48.5 q20 19.5 49 19.5 q29 0 48 -19.5 q19 -19.5 19 -48.5 q0 -29 -19 -48 q-19 -19 -48 -19 q-29 0 -49 19 q-20 19 -20 48 Z" /><glyph glyph-name="ntilde" unicode="ñ" d="M716 0 l0 731 l-140 0 l0 -442 l-481 442 l-15 0 l0 -731 l139 0 l0 435 l482 -435 l15 0 ZM458 759 l-4 0 q-37 2 -58.5 16.5 q-21.5 14.5 -36.5 28.5 q-11 11 -19.5 16 q-8.5 5 -24.5 5 q-11 0 -19 -8.5 q-8 -8.5 -13.5 -19 q-5.5 -10.5 -9 -19 q-3.5 -8.5 -3.5 -8.5 l-82 23 q4 16 13.5 37 q9.5 21 25 39.5 q15.5 18.5 37 31 q21.5 12.5 49.5 13.5 q41 1 64.5 -14.5 q23.5 -15.5 38.5 -29.5 q11 -11 19 -15.5 q8 -4.5 22 -5.5 q12 -1 21 6.5 q9 7.5 15 15.5 q7 10 13 23 l81 -29 q-4 -11 -12 -27 q-8 -16 -22 -32 q-20 -23 -44 -35 q-24 -12 -51 -12 Z" /><glyph glyph-name="ograve" unicode="ò" d="M422 -14 q-78 0 -147 30 q-69 30 -120.5 81.5 q-51.5 51.5 -81.5 120.5 q-30 69 -30 148 q0 78 30 147.5 q30 69.5 81.5 121 q51.5 51.5 120.5 81.5 q69 30 147 30 q79 0 148 -30 q69 -30 120.5 -81.5 q51.5 -51.5 81.5 -121 q30 -69.5 30 -147.5 q0 -79 -30 -148 q-30 -69 -81.5 -120.5 q-51.5 -51.5 -120.5 -81.5 q-69 -30 -148 -30 ZM422 615 q-50 0 -93.5 -20.5 q-43.5 -20.5 -76 -54.5 q-32.5 -34 -51.5 -79.5 q-19 -45.5 -19 -94.5 q0 -50 19 -95 q19 -45 51.5 -79.5 q32.5 -34.5 76 -55 q43.5 -20.5 93.5 -20.5 q50 0 93.5 20.5 q43.5 20.5 76 55 q32.5 34.5 51.5 79.5 q19 45 19 95 q0 49 -19 94.5 q-19 45.5 -51.5 79.5 q-32.5 34 -76 54.5 q-43.5 20.5 -93.5 20.5 ZM499 767 l-98 0 l-134 101 l115 50 l117 -151 Z" /><glyph glyph-name="oacute" unicode="ó" d="M422 -14 q-78 0 -147 30 q-69 30 -120.5 81.5 q-51.5 51.5 -81.5 120.5 q-30 69 -30 148 q0 78 30 147.5 q30 69.5 81.5 121 q51.5 51.5 120.5 81.5 q69 30 147 30 q79 0 148 -30 q69 -30 120.5 -81.5 q51.5 -51.5 81.5 -121 q30 -69.5 30 -147.5 q0 -79 -30 -148 q-30 -69 -81.5 -120.5 q-51.5 -51.5 -120.5 -81.5 q-69 -30 -148 -30 ZM422 615 q-50 0 -93.5 -20.5 q-43.5 -20.5 -76 -54.5 q-32.5 -34 -51.5 -79.5 q-19 -45.5 -19 -94.5 q0 -50 19 -95 q19 -45 51.5 -79.5 q32.5 -34.5 76 -55 q43.5 -20.5 93.5 -20.5 q50 0 93.5 20.5 q43.5 20.5 76 55 q32.5 34.5 51.5 79.5 q19 45 19 95 q0 49 -19 94.5 q-19 45.5 -51.5 79.5 q-32.5 34 -76 54.5 q-43.5 20.5 -93.5 20.5 ZM453 918 l116 -50 l-134 -101 l-99 0 l117 151 Z" /><glyph glyph-name="ocircumflex" unicode="ô" d="M422 -14 q-78 0 -147 30 q-69 30 -120.5 81.5 q-51.5 51.5 -81.5 120.5 q-30 69 -30 148 q0 78 30 147.5 q30 69.5 81.5 121 q51.5 51.5 120.5 81.5 q69 30 147 30 q79 0 148 -30 q69 -30 120.5 -81.5 q51.5 -51.5 81.5 -121 q30 -69.5 30 -147.5 q0 -79 -30 -148 q-30 -69 -81.5 -120.5 q-51.5 -51.5 -120.5 -81.5 q-69 -30 -148 -30 ZM422 615 q-50 0 -93.5 -20.5 q-43.5 -20.5 -76 -54.5 q-32.5 -34 -51.5 -79.5 q-19 -45.5 -19 -94.5 q0 -50 19 -95 q19 -45 51.5 -79.5 q32.5 -34.5 76 -55 q43.5 -20.5 93.5 -20.5 q50 0 93.5 20.5 q43.5 20.5 76 55 q32.5 34.5 51.5 79.5 q19 45 19 95 q0 49 -19 94.5 q-19 45.5 -51.5 79.5 q-32.5 34 -76 54.5 q-43.5 20.5 -93.5 20.5 ZM365 918 l117 0 l123 -153 l-112 0 l-71 70 l-67 -71 l-112 0 l122 154 Z" /><glyph glyph-name="otilde" unicode="õ" d="M422 -14 q-78 0 -147 30 q-69 30 -120.5 81.5 q-51.5 51.5 -81.5 120.5 q-30 69 -30 148 q0 78 30 147.5 q30 69.5 81.5 121 q51.5 51.5 120.5 81.5 q69 30 147 30 q79 0 148 -30 q69 -30 120.5 -81.5 q51.5 -51.5 81.5 -121 q30 -69.5 30 -147.5 q0 -79 -30 -148 q-30 -69 -81.5 -120.5 q-51.5 -51.5 -120.5 -81.5 q-69 -30 -148 -30 ZM422 615 q-50 0 -93.5 -20.5 q-43.5 -20.5 -76 -54.5 q-32.5 -34 -51.5 -79.5 q-19 -45.5 -19 -94.5 q0 -50 19 -95 q19 -45 51.5 -79.5 q32.5 -34.5 76 -55 q43.5 -20.5 93.5 -20.5 q50 0 93.5 20.5 q43.5 20.5 76 55 q32.5 34.5 51.5 79.5 q19 45 19 95 q0 49 -19 94.5 q-19 45.5 -51.5 79.5 q-32.5 34 -76 54.5 q-43.5 20.5 -93.5 20.5 ZM493 759 l-4 0 q-37 2 -58.5 16.5 q-21.5 14.5 -36.5 28.5 q-11 11 -19.5 16 q-8.5 5 -24.5 5 q-11 0 -19 -8.5 q-8 -8.5 -13.5 -19 q-5.5 -10.5 -9 -19 q-3.5 -8.5 -3.5 -8.5 l-82 23 q4 16 13.5 37 q9.5 21 25 39.5 q15.5 18.5 37 31 q21.5 12.5 49.5 13.5 q41 1 64.5 -14.5 q23.5 -15.5 38.5 -29.5 q11 -11 19 -15.5 q8 -4.5 22 -5.5 q12 -1 21 6.5 q9 7.5 15 15.5 q7 10 13 23 l81 -29 q-4 -11 -12 -27 q-8 -16 -22 -32 q-20 -23 -44 -35 q-24 -12 -51 -12 Z" /><glyph glyph-name="odieresis" unicode="ö" d="M422 -14 q-78 0 -147 30 q-69 30 -120.5 81.5 q-51.5 51.5 -81.5 120.5 q-30 69 -30 148 q0 78 30 147.5 q30 69.5 81.5 121 q51.5 51.5 120.5 81.5 q69 30 147 30 q79 0 148 -30 q69 -30 120.5 -81.5 q51.5 -51.5 81.5 -121 q30 -69.5 30 -147.5 q0 -79 -30 -148 q-30 -69 -81.5 -120.5 q-51.5 -51.5 -120.5 -81.5 q-69 -30 -148 -30 ZM422 615 q-50 0 -93.5 -20.5 q-43.5 -20.5 -76 -54.5 q-32.5 -34 -51.5 -79.5 q-19 -45.5 -19 -94.5 q0 -50 19 -95 q19 -45 51.5 -79.5 q32.5 -34.5 76 -55 q43.5 -20.5 93.5 -20.5 q50 0 93.5 20.5 q43.5 20.5 76 55 q32.5 34.5 51.5 79.5 q19 45 19 95 q0 49 -19 94.5 q-19 45.5 -51.5 79.5 q-32.5 34 -76 54.5 q-43.5 20.5 -93.5 20.5 ZM251 843 q0 29 20 48.5 q20 19.5 49 19.5 q29 0 48 -19.5 q19 -19.5 19 -48.5 q0 -29 -19 -48 q-19 -19 -48 -19 q-29 0 -49 19 q-20 19 -20 48 ZM455 843 q0 29 19.5 48.5 q19.5 19.5 48.5 19.5 q29 0 48.5 -19.5 q19.5 -19.5 19.5 -48.5 q0 -29 -19.5 -48 q-19.5 -19 -48.5 -19 q-29 0 -48.5 19 q-19.5 19 -19.5 48 Z" /><glyph glyph-name="ugrave" unicode="ù" d="M394 -13 q-71 0 -129 22 q-58 22 -99 62 q-41 40 -63.5 97 q-22.5 57 -22.5 127 l0 436 l140 0 l0 -436 q0 -55 18 -91 q18 -36 44.5 -57 q26.5 -21 57 -29 q30.5 -8 54.5 -8 q24 0 54.5 8 q30.5 8 57 29 q26.5 21 44.5 57 q18 36 18 91 l0 436 l140 0 l0 -436 q0 -70 -22 -127 q-22 -57 -63 -97 q-41 -40 -99 -62 q-58 -22 -130 -22 ZM470 767 l-98 0 l-134 101 l115 50 l117 -151 Z" /><glyph glyph-name="uacute" unicode="ú" d="M394 -13 q-71 0 -129 22 q-58 22 -99 62 q-41 40 -63.5 97 q-22.5 57 -22.5 127 l0 436 l140 0 l0 -436 q0 -55 18 -91 q18 -36 44.5 -57 q26.5 -21 57 -29 q30.5 -8 54.5 -8 q24 0 54.5 8 q30.5 8 57 29 q26.5 21 44.5 57 q18 36 18 91 l0 436 l140 0 l0 -436 q0 -70 -22 -127 q-22 -57 -63 -97 q-41 -40 -99 -62 q-58 -22 -130 -22 ZM434 918 l116 -50 l-134 -101 l-99 0 l117 151 Z" /><glyph glyph-name="ucircumflex" unicode="û" d="M394 -13 q-71 0 -129 22 q-58 22 -99 62 q-41 40 -63.5 97 q-22.5 57 -22.5 127 l0 436 l140 0 l0 -436 q0 -55 18 -91 q18 -36 44.5 -57 q26.5 -21 57 -29 q30.5 -8 54.5 -8 q24 0 54.5 8 q30.5 8 57 29 q26.5 21 44.5 57 q18 36 18 91 l0 436 l140 0 l0 -436 q0 -70 -22 -127 q-22 -57 -63 -97 q-41 -40 -99 -62 q-58 -22 -130 -22 ZM335 918 l117 0 l123 -153 l-112 0 l-71 70 l-67 -71 l-112 0 l122 154 Z" /><glyph glyph-name="udieresis" unicode="ü" d="M394 -13 q-71 0 -129 22 q-58 22 -99 62 q-41 40 -63.5 97 q-22.5 57 -22.5 127 l0 436 l140 0 l0 -436 q0 -55 18 -91 q18 -36 44.5 -57 q26.5 -21 57 -29 q30.5 -8 54.5 -8 q24 0 54.5 8 q30.5 8 57 29 q26.5 21 44.5 57 q18 36 18 91 l0 436 l140 0 l0 -436 q0 -70 -22 -127 q-22 -57 -63 -97 q-41 -40 -99 -62 q-58 -22 -130 -22 ZM224 843 q0 29 20 48.5 q20 19.5 49 19.5 q29 0 48 -19.5 q19 -19.5 19 -48.5 q0 -29 -19 -48 q-19 -19 -48 -19 q-29 0 -49 19 q-20 19 -20 48 ZM428 843 q0 29 19.5 48.5 q19.5 19.5 48.5 19.5 q29 0 48.5 -19.5 q19.5 -19.5 19.5 -48.5 q0 -29 -19.5 -48 q-19.5 -19 -48.5 -19 q-29 0 -48.5 19 q-19.5 19 -19.5 48 Z" /><glyph glyph-name="yacute" unicode="ý" d="M704 731 q-28 -46 -64.5 -105 q-36.5 -59 -74.5 -120.5 q-38 -61.5 -75 -121 q-37 -59.5 -65 -107.5 l0 -277 l-140 0 l0 277 q-65 114 -138 227 q-73 113 -139 227 l163 0 q45 -75 92 -155 q47 -80 92 -155 q22 35 46 75 q24 40 48 80.5 q24 40.5 47.5 80 q23.5 39.5 44.5 74.5 l163 0 ZM375 918 l116 -50 l-134 -101 l-99 0 l117 151 Z" /><glyph glyph-name="ydieresis" unicode="ÿ" d="M541 731 q-21 -35 -44.5 -74.5 q-23.5 -39.5 -47.5 -80 q-24 -40.5 -48 -80.5 q-24 -40 -46 -75 q-45 75 -92 155 q-47 80 -92 155 l-163 0 q66 -114 139 -227 q73 -113 138 -227 l0 -277 l140 0 l0 277 q28 48 65 107.5 q37 59.5 75 121 q38 61.5 74.5 120.5 q36.5 59 64.5 105 l-163 0 ZM186 843 q0 29 20 48.5 q20 19.5 49 19.5 q29 0 48 -19.5 q19 -19.5 19 -48.5 q0 -29 -19 -48 q-19 -19 -48 -19 q-29 0 -49 19 q-20 19 -20 48 ZM390 843 q0 29 19.5 48.5 q19.5 19.5 48.5 19.5 q29 0 48.5 -19.5 q19.5 -19.5 19.5 -48.5 q0 -29 -19.5 -48 q-19.5 -19 -48.5 -19 q-29 0 -48.5 19 q-19.5 19 -19.5 48 Z" /><glyph glyph-name="ccedilla" unicode="ç" d="M469 -47 q55 -19 51 -80 q-2 -31 -15.5 -47.5 q-13.5 -16.5 -30.5 -24.5 q-17 -8 -33 -9.5 q-16 -1.5 -23 -1.5 q-21 0 -36 4.5 q-15 4.5 -26 9.5 q-12 6 -21 14 l25 49 q4 -4 12 -8 q7 -3 18 -6 q11 -3 28 -2 q12 0 21.5 7 q9.5 7 9.5 21 q0 14 -11.5 18 q-11.5 4 -21.5 4 q-11 -1 -20.5 -3 q-9.5 -2 -16.5 -4 q-8 -3 -15 -6 l-14 23 l30 77 q-72 7 -134 39.5 q-62 32.5 -107.5 83 q-45.5 50.5 -72 115.5 q-26.5 65 -26.5 139 q0 78 30 147 q30 69 81.5 120.5 q51.5 51.5 120.5 81.5 q69 30 147 30 q53 0 102.5 -14 q49.5 -14 92 -39.5 q42.5 -25.5 77.5 -61 q35 -35.5 59 -78.5 l-131 -53 q-16 24 -37.5 45 q-21.5 21 -47.5 37 q-26 16 -55 25 q-29 9 -60 9 q-50 0 -93.5 -20.5 q-43.5 -20.5 -75.5 -54.5 q-32 -34 -51 -79.5 q-19 -45.5 -19 -94.5 q0 -50 19 -95 q19 -45 51 -79 q32 -34 75.5 -54.5 q43.5 -20.5 93.5 -20.5 q31 0 60 9 q29 9 55 25 q26 16 47.5 37.5 q21.5 21.5 37.5 45.5 l131 -53 q-23 -41 -55 -75 q-32 -34 -71.5 -59 q-39.5 -25 -85.5 -40.5 q-46 -15.5 -95 -18.5 l-14 -31 q3 1 14.5 1.5 q11.5 0.5 25.5 -4.5 Z" /><glyph glyph-name="scaron" unicode="&#x161;" d="M51 96 l76 112 q55 -38 113.5 -65.5 q58.5 -27.5 122.5 -27.5 q34 0 60 8.5 q26 8.5 44 22 q18 13.5 27 31 q9 17.5 9 34.5 q0 22 -13.5 37.5 q-13.5 15.5 -36 25.5 q-22.5 10 -53 17 q-30.5 7 -63.5 13 q-22 4 -51 9.5 q-29 5.5 -60 15 q-31 9.5 -61 25 q-30 15.5 -54 39 q-24 23.5 -38.5 56 q-14.5 32.5 -14.5 76.5 q0 64 26 106.5 q26 42.5 66.5 67 q40.5 24.5 90 34.5 q49.5 10 95.5 10 q46 0 82 -6 q36 -6 67 -17.5 q31 -11.5 60.5 -29 q29.5 -17.5 63.5 -41.5 l-78 -110 q-52 36 -100 55 q-48 19 -101 19 q-18 0 -41 -4.5 q-23 -4.5 -43.5 -14.5 q-20.5 -10 -34 -25.5 q-13.5 -15.5 -13.5 -37.5 q0 -22 16 -37 q16 -15 41 -25 q25 -10 55 -17 q30 -7 58 -14 q21 -5 49.5 -10 q28.5 -5 59 -14 q30.5 -9 60.5 -24 q30 -15 53.5 -38.5 q23.5 -23.5 38 -58 q14.5 -34.5 14.5 -83.5 q0 -57 -20 -99 q-20 -42 -57 -69.5 q-37 -27.5 -88 -41.5 q-51 -14 -113 -14 q-57 0 -100.5 8.5 q-43.5 8.5 -79.5 23 q-36 14.5 -68 34.5 q-32 20 -66 44 ZM399 764 l-117 0 l-123 154 l112 0 l71 -70 l67 70 l112 0 l-122 -154 Z" /><glyph glyph-name="Thorn" unicode="þ" d="M406 626 q54 0 101 -20.5 q47 -20.5 82.5 -56 q35.5 -35.5 56 -82.5 q20.5 -47 20.5 -101 q0 -54 -20.5 -101 q-20.5 -47 -56 -82.5 q-35.5 -35.5 -82.5 -56 q-47 -20.5 -101 -20.5 l-186 0 l0 -106 l-140 0 l0 732 l140 0 l0 -106 l186 0 ZM406 231 q25 0 46.5 12 q21.5 12 38 31 q16.5 19 26 43 q9.5 24 9.5 49 q0 25 -9.5 49 q-9.5 24 -26 43 q-16.5 19 -38 31 q-21.5 12 -46.5 12 l-186 0 l0 -270 l186 0 Z" /><glyph glyph-name="thorn" unicode="þ" d="M406 626 q54 0 101 -20.5 q47 -20.5 82.5 -56 q35.5 -35.5 56 -82.5 q20.5 -47 20.5 -101 q0 -54 -20.5 -101 q-20.5 -47 -56 -82.5 q-35.5 -35.5 -82.5 -56 q-47 -20.5 -101 -20.5 l-186 0 l0 -106 l-140 0 l0 732 l140 0 l0 -106 l186 0 ZM406 231 q25 0 46.5 12 q21.5 12 38 31 q16.5 19 26 43 q9.5 24 9.5 49 q0 25 -9.5 49 q-9.5 24 -26 43 q-16.5 19 -38 31 q-21.5 12 -46.5 12 l-186 0 l0 -270 l186 0 Z" /><glyph glyph-name="Eth" unicode="ð" d="M399 0 l-289 0 l0 301 l-81 0 l0 123 l81 0 l0 308 l289 0 q157 0 258 -92 q54 -49 81.5 -118.5 q27.5 -69.5 27.5 -155.5 q0 -87 -27.5 -156.5 q-27.5 -69.5 -81.5 -118.5 q-49 -45 -114.5 -68 q-65.5 -23 -143.5 -23 ZM376 301 l-126 0 l0 -177 l149 0 q39 0 79 9 q40 9 72.5 35.5 q32.5 26.5 53.5 73.5 q21 47 21 123 q0 76 -21 123.5 q-21 47.5 -54 73.5 q-33 26 -73 35 q-40 9 -78 9 l-149 0 l0 -182 l126 0 l0 -123 Z" /><glyph glyph-name="eth" unicode="ð" d="M399 0 l-289 0 l0 301 l-81 0 l0 123 l81 0 l0 308 l289 0 q157 0 258 -92 q54 -49 81.5 -118.5 q27.5 -69.5 27.5 -155.5 q0 -87 -27.5 -156.5 q-27.5 -69.5 -81.5 -118.5 q-49 -45 -114.5 -68 q-65.5 -23 -143.5 -23 ZM376 301 l-126 0 l0 -177 l149 0 q39 0 79 9 q40 9 72.5 35.5 q32.5 26.5 53.5 73.5 q21 47 21 123 q0 76 -21 123.5 q-21 47.5 -54 73.5 q-33 26 -73 35 q-40 9 -78 9 l-149 0 l0 -182 l126 0 l0 -123 Z" /><glyph glyph-name="dotlessi" unicode="&#x131;" d="M240 0 l-140 0 l0 731 l140 0 l0 -731 Z" /><glyph glyph-name="Lslash" unicode="&#x141;" d="M120 373 l0 359 l140 0 l0 -280 l223 126 l0 -137 l-223 -126 l0 -191 l387 0 l0 -124 l-527 0 l0 236 l-90 -50 l0 137 l90 50 Z" /><glyph glyph-name="lslash" unicode="&#x142;" d="M120 373 l0 359 l140 0 l0 -280 l223 126 l0 -137 l-223 -126 l0 -191 l387 0 l0 -124 l-527 0 l0 236 l-90 -50 l0 137 l90 50 Z" /><glyph glyph-name="B" unicode="b" d="M616 529 q0 -22 -9 -47 q-9 -25 -24.5 -46 q-15.5 -21 -37.5 -35.5 q-22 -14.5 -48 -15.5 q27 -2 53.5 -15.5 q26.5 -13.5 47.5 -36.5 q21 -23 34.5 -53 q13.5 -30 13.5 -64 q0 -60 -18 -101.5 q-18 -41.5 -49 -67 q-31 -25.5 -72.5 -36.5 q-41.5 -11 -88.5 -11 l-338 0 l0 732 l322 0 q44 0 83 -8.5 q39 -8.5 68 -31 q29 -22.5 46 -62 q17 -39.5 17 -101.5 ZM418 124 q18 0 34 8.5 q16 8.5 28 23 q12 14.5 19 32 q7 17.5 7 35.5 q0 37 -27.5 62 q-27.5 25 -75.5 25 l-183 0 l0 -186 l198 0 ZM220 435 l172 0 q21 0 36.5 8 q15.5 8 26 21 q10.5 13 16 29.5 q5.5 16.5 5.5 32.5 q0 16 -6 31 q-6 15 -16 26 q-10 11 -23.5 18 q-13.5 7 -28.5 7 l-182 0 l0 -173 Z" /><glyph glyph-name="C" unicode="c" d="M750 180 q-24 -44 -59 -79.5 q-35 -35.5 -77.5 -61 q-42.5 -25.5 -92 -39.5 q-49.5 -14 -102.5 -14 q-78 0 -147 30 q-69 30 -120.5 81.5 q-51.5 51.5 -81.5 120.5 q-30 69 -30 147 q0 78 30 147 q30 69 81.5 120.5 q51.5 51.5 120.5 81.5 q69 30 147 30 q53 0 102.5 -14 q49.5 -14 92 -39.5 q42.5 -25.5 77.5 -61 q35 -35.5 59 -78.5 l-131 -53 q-16 24 -37.5 45 q-21.5 21 -47.5 37 q-26 16 -55 25 q-29 9 -60 9 q-50 0 -93.5 -20.5 q-43.5 -20.5 -75.5 -54.5 q-32 -34 -51 -79.5 q-19 -45.5 -19 -94.5 q0 -50 19 -95 q19 -45 51 -79 q32 -34 75.5 -54.5 q43.5 -20.5 93.5 -20.5 q31 0 60 9 q29 9 55 25 q26 16 47.5 37.5 q21.5 21.5 37.5 45.5 l131 -53 Z" /></font>
</defs>
</svg>
